<svg xmlns="http://www.w3.org/2000/svg" xmlns:xlink="http://www.w3.org/1999/xlink" contentStyleType="text/css" data-diagram-type="SEQUENCE" height="939px" preserveAspectRatio="none" style="width:1489px;height:939px;background:#FFFFFF;" version="1.1" viewBox="0 0 1489 939" width="1489px" zoomAndPan="magnify"><title>DSS - Consulter le stock central (Spring Boot Web)</title><defs/><g><text fill="#000000" font-family="sans-serif" font-size="14" font-weight="bold" lengthAdjust="spacing" textLength="339.1445" x="570.9446" y="29.5332">DSS - Consulter le stock central (Spring Boot Web)</text><rect fill="none" height="233.1641" style="stroke:#000000;stroke-width:1.5;" width="989.6875" x="482.3462" y="502.4375"/><g><title>Employe</title><rect fill="#000000" fill-opacity="0.00000" height="736.4375" width="8" x="31.2344" y="121.2188"/><line style="stroke:#181818;stroke-width:0.5;stroke-dasharray:5.0,5.0;" x1="35" x2="35" y1="121.2188" y2="857.6563"/></g><g><title>Navigateur Web (Thymeleaf)</title><rect fill="#000000" fill-opacity="0.00000" height="736.4375" width="8" x="265.5322" y="121.2188"/><line style="stroke:#181818;stroke-width:0.5;stroke-dasharray:5.0,5.0;" x1="269.0566" x2="269.0566" y1="121.2188" y2="857.6563"/></g><g><title>StockCentralController</title><rect fill="#000000" fill-opacity="0.00000" height="736.4375" width="8" x="565.7632" y="121.2188"/><line style="stroke:#181818;stroke-width:0.5;stroke-dasharray:5.0,5.0;" x1="569.3462" x2="569.3462" y1="121.2188" y2="857.6563"/></g><g><title>StockCentralService</title><rect fill="#000000" fill-opacity="0.00000" height="736.4375" width="8" x="808.7065" y="121.2188"/><line style="stroke:#181818;stroke-width:0.5;stroke-dasharray:5.0,5.0;" x1="812.293" x2="812.293" y1="121.2188" y2="857.6563"/></g><g><title>ProduitRepository</title><rect fill="#000000" fill-opacity="0.00000" height="736.4375" width="8" x="951.7578" y="121.2188"/><line style="stroke:#181818;stroke-width:0.5;stroke-dasharray:5.0,5.0;" x1="955.1201" x2="955.1201" y1="121.2188" y2="857.6563"/></g><g><title>MagasinRepository</title><rect fill="#000000" fill-opacity="0.00000" height="736.4375" width="8" x="1091.3125" y="121.2188"/><line style="stroke:#181818;stroke-width:0.5;stroke-dasharray:5.0,5.0;" x1="1094.3955" x2="1094.3955" y1="121.2188" y2="857.6563"/></g><g><title>PostgreSQL</title><rect fill="#000000" fill-opacity="0.00000" height="736.4375" width="8" x="1209.3604" y="121.2188"/><line style="stroke:#181818;stroke-width:0.5;stroke-dasharray:5.0,5.0;" x1="1213.2295" x2="1213.2295" y1="121.2188" y2="857.6563"/></g><g><title>StockCentralRepository</title><rect fill="#000000" fill-opacity="0.00000" height="736.4375" width="8" x="1377.5029" y="121.2188"/><line style="stroke:#181818;stroke-width:0.5;stroke-dasharray:5.0,5.0;" x1="1380.9722" x2="1380.9722" y1="121.2188" y2="857.6563"/></g><g class="participant participant-head" data-participant="Employe"><text fill="#000000" font-family="sans-serif" font-size="14" lengthAdjust="spacing" textLength="54.4688" x="5" y="118.1426">Employe</text><ellipse cx="35.2344" cy="52.1094" fill="#E2E2F0" rx="8" ry="8" style="stroke:#181818;stroke-width:0.5;"/><path d="M35.2344,60.1094 L35.2344,87.1094 M22.2344,68.1094 L48.2344,68.1094 M35.2344,87.1094 L22.2344,102.1094 M35.2344,87.1094 L48.2344,102.1094" fill="none" style="stroke:#181818;stroke-width:0.5;"/></g><g class="participant participant-tail" data-participant="Employe"><text fill="#000000" font-family="sans-serif" font-size="14" lengthAdjust="spacing" textLength="54.4688" x="5" y="871.1895">Employe</text><ellipse cx="35.2344" cy="882.7656" fill="#E2E2F0" rx="8" ry="8" style="stroke:#181818;stroke-width:0.5;"/><path d="M35.2344,890.7656 L35.2344,917.7656 M22.2344,898.7656 L48.2344,898.7656 M35.2344,917.7656 L22.2344,932.7656 M35.2344,917.7656 L48.2344,932.7656" fill="none" style="stroke:#181818;stroke-width:0.5;"/></g><g class="participant participant-head" data-participant="Vue"><rect fill="#E2E2F0" height="31.6094" rx="2.5" ry="2.5" style="stroke:#181818;stroke-width:0.5;" width="192.9512" x="173.0566" y="88.6094"/><text fill="#000000" font-family="sans-serif" font-size="14" lengthAdjust="spacing" textLength="178.9512" x="180.0566" y="110.1426">Navigateur Web (Thymeleaf)</text></g><g class="participant participant-tail" data-participant="Vue"><rect fill="#E2E2F0" height="31.6094" rx="2.5" ry="2.5" style="stroke:#181818;stroke-width:0.5;" width="192.9512" x="173.0566" y="856.6563"/><text fill="#000000" font-family="sans-serif" font-size="14" lengthAdjust="spacing" textLength="178.9512" x="180.0566" y="878.1895">Navigateur Web (Thymeleaf)</text></g><g class="participant participant-head" data-participant="Controller"><rect fill="#E2E2F0" height="31.6094" rx="2.5" ry="2.5" style="stroke:#181818;stroke-width:0.5;" width="154.834" x="492.3462" y="88.6094"/><text fill="#000000" font-family="sans-serif" font-size="14" lengthAdjust="spacing" textLength="140.834" x="499.3462" y="110.1426">StockCentralController</text></g><g class="participant participant-tail" data-participant="Controller"><rect fill="#E2E2F0" height="31.6094" rx="2.5" ry="2.5" style="stroke:#181818;stroke-width:0.5;" width="154.834" x="492.3462" y="856.6563"/><text fill="#000000" font-family="sans-serif" font-size="14" lengthAdjust="spacing" textLength="140.834" x="499.3462" y="878.1895">StockCentralController</text></g><g class="participant participant-head" data-participant="Service"><rect fill="#E2E2F0" height="31.6094" rx="2.5" ry="2.5" style="stroke:#181818;stroke-width:0.5;" width="140.8271" x="742.293" y="88.6094"/><text fill="#000000" font-family="sans-serif" font-size="14" lengthAdjust="spacing" textLength="126.8271" x="749.293" y="110.1426">StockCentralService</text></g><g class="participant participant-tail" data-participant="Service"><rect fill="#E2E2F0" height="31.6094" rx="2.5" ry="2.5" style="stroke:#181818;stroke-width:0.5;" width="140.8271" x="742.293" y="856.6563"/><text fill="#000000" font-family="sans-serif" font-size="14" lengthAdjust="spacing" textLength="126.8271" x="749.293" y="878.1895">StockCentralService</text></g><g class="participant participant-head" data-participant="ProduitRepo"><rect fill="#E2E2F0" height="31.6094" rx="2.5" ry="2.5" style="stroke:#181818;stroke-width:0.5;" width="125.2754" x="893.1201" y="88.6094"/><text fill="#000000" font-family="sans-serif" font-size="14" lengthAdjust="spacing" textLength="111.2754" x="900.1201" y="110.1426">ProduitRepository</text></g><g class="participant participant-tail" data-participant="ProduitRepo"><rect fill="#E2E2F0" height="31.6094" rx="2.5" ry="2.5" style="stroke:#181818;stroke-width:0.5;" width="125.2754" x="893.1201" y="856.6563"/><text fill="#000000" font-family="sans-serif" font-size="14" lengthAdjust="spacing" textLength="111.2754" x="900.1201" y="878.1895">ProduitRepository</text></g><g class="participant participant-head" data-participant="MagasinRepo"><rect fill="#E2E2F0" height="31.6094" rx="2.5" ry="2.5" style="stroke:#181818;stroke-width:0.5;" width="133.834" x="1028.3955" y="88.6094"/><text fill="#000000" font-family="sans-serif" font-size="14" lengthAdjust="spacing" textLength="119.834" x="1035.3955" y="110.1426">MagasinRepository</text></g><g class="participant participant-tail" data-participant="MagasinRepo"><rect fill="#E2E2F0" height="31.6094" rx="2.5" ry="2.5" style="stroke:#181818;stroke-width:0.5;" width="133.834" x="1028.3955" y="856.6563"/><text fill="#000000" font-family="sans-serif" font-size="14" lengthAdjust="spacing" textLength="119.834" x="1035.3955" y="878.1895">MagasinRepository</text></g><g class="participant participant-head" data-participant="PostgreSQL"><text fill="#000000" font-family="sans-serif" font-size="14" lengthAdjust="spacing" textLength="76.2617" x="1172.2295" y="118.1426">PostgreSQL</text><path d="M1195.3604,67.6094 C1195.3604,57.6094 1213.3604,57.6094 1213.3604,57.6094 C1213.3604,57.6094 1231.3604,57.6094 1231.3604,67.6094 L1231.3604,93.6094 C1231.3604,103.6094 1213.3604,103.6094 1213.3604,103.6094 C1213.3604,103.6094 1195.3604,103.6094 1195.3604,93.6094 L1195.3604,67.6094" fill="#E2E2F0" style="stroke:#181818;stroke-width:1.5;"/><path d="M1195.3604,67.6094 C1195.3604,77.6094 1213.3604,77.6094 1213.3604,77.6094 C1213.3604,77.6094 1231.3604,77.6094 1231.3604,67.6094" fill="none" style="stroke:#181818;stroke-width:1.5;"/></g><g class="participant participant-tail" data-participant="PostgreSQL"><text fill="#000000" font-family="sans-serif" font-size="14" lengthAdjust="spacing" textLength="76.2617" x="1172.2295" y="871.1895">PostgreSQL</text><path d="M1195.3604,884.2656 C1195.3604,874.2656 1213.3604,874.2656 1213.3604,874.2656 C1213.3604,874.2656 1231.3604,874.2656 1231.3604,884.2656 L1231.3604,910.2656 C1231.3604,920.2656 1213.3604,920.2656 1213.3604,920.2656 C1213.3604,920.2656 1195.3604,920.2656 1195.3604,910.2656 L1195.3604,884.2656" fill="#E2E2F0" style="stroke:#181818;stroke-width:1.5;"/><path d="M1195.3604,884.2656 C1195.3604,894.2656 1213.3604,894.2656 1213.3604,894.2656 C1213.3604,894.2656 1231.3604,894.2656 1231.3604,884.2656" fill="none" style="stroke:#181818;stroke-width:1.5;"/></g><g class="participant participant-head" data-participant="StockCentralRepository"><rect fill="#E2E2F0" height="31.6094" rx="2.5" ry="2.5" style="stroke:#181818;stroke-width:0.5;" width="161.0615" x="1300.9722" y="88.6094"/><text fill="#000000" font-family="sans-serif" font-size="14" lengthAdjust="spacing" textLength="147.0615" x="1307.9722" y="110.1426">StockCentralRepository</text></g><g class="participant participant-tail" data-participant="StockCentralRepository"><rect fill="#E2E2F0" height="31.6094" rx="2.5" ry="2.5" style="stroke:#181818;stroke-width:0.5;" width="161.0615" x="1300.9722" y="856.6563"/><text fill="#000000" font-family="sans-serif" font-size="14" lengthAdjust="spacing" textLength="147.0615" x="1307.9722" y="878.1895">StockCentralRepository</text></g><rect fill="#EEEEEE" height="3" style="stroke:#EEEEEE;stroke-width:1;" width="1482.0337" x="0" y="152.3945"/><line style="stroke:#000000;stroke-width:1;" x1="0" x2="1482.0337" y1="152.3945" y2="152.3945"/><line style="stroke:#000000;stroke-width:1;" x1="0" x2="1482.0337" y1="155.3945" y2="155.3945"/><rect fill="#EEEEEE" height="24.3516" style="stroke:#000000;stroke-width:2;" width="174.3862" x="653.8237" y="141.2188"/><text fill="#000000" font-family="sans-serif" font-size="13" font-weight="bold" lengthAdjust="spacing" textLength="156.7744" x="659.8237" y="158.7139">S&#233;lection dans l&#8217;interface</text><g class="message" data-participant-1="Employe" data-participant-2="Vue"><polygon fill="#181818" points="257.5322,210.2734,267.5322,214.2734,257.5322,218.2734,261.5322,214.2734" style="stroke:#181818;stroke-width:1;"/><line style="stroke:#181818;stroke-width:1;" x1="35.2344" x2="263.5322" y1="214.2734" y2="214.2734"/><text fill="#000000" font-family="sans-serif" font-size="13" lengthAdjust="spacing" textLength="90.3271" x="42.2344" y="193.0654">acc&#232;de &#224; /stock</text><text fill="#000000" font-family="sans-serif" font-size="13" lengthAdjust="spacing" textLength="94.6689" x="45.8462" y="209.417">via menu ou lien</text></g><g class="message" data-participant-1="Vue" data-participant-2="Controller"><polygon fill="#181818" points="557.7632,240.625,567.7632,244.625,557.7632,248.625,561.7632,244.625" style="stroke:#181818;stroke-width:1;"/><line style="stroke:#181818;stroke-width:1;" x1="269.5322" x2="563.7632" y1="244.625" y2="244.625"/><text fill="#000000" font-family="sans-serif" font-size="13" lengthAdjust="spacing" textLength="187.478" x="276.5322" y="239.7686">HTTP GET /stock?magasinId=...</text></g><rect fill="#EEEEEE" height="3" style="stroke:#EEEEEE;stroke-width:1;" width="1482.0337" x="0" y="273.8008"/><line style="stroke:#000000;stroke-width:1;" x1="0" x2="1482.0337" y1="273.8008" y2="273.8008"/><line style="stroke:#000000;stroke-width:1;" x1="0" x2="1482.0337" y1="276.8008" y2="276.8008"/><rect fill="#EEEEEE" height="24.3516" style="stroke:#000000;stroke-width:2;" width="110.7891" x="685.6223" y="262.625"/><text fill="#000000" font-family="sans-serif" font-size="13" font-weight="bold" lengthAdjust="spacing" textLength="93.1772" x="691.6223" y="280.1201">Logique m&#233;tier</text><g class="message" data-participant-1="Controller" data-participant-2="Service"><polygon fill="#181818" points="800.7065,315.3281,810.7065,319.3281,800.7065,323.3281,804.7065,319.3281" style="stroke:#181818;stroke-width:1;"/><line style="stroke:#181818;stroke-width:1;" x1="569.7632" x2="806.7065" y1="319.3281" y2="319.3281"/><text fill="#000000" font-family="sans-serif" font-size="13" lengthAdjust="spacing" textLength="141.6226" x="576.7632" y="314.4717">getProduitsDisponibles()</text></g><g class="message" data-participant-1="Service" data-participant-2="ProduitRepo"><polygon fill="#181818" points="943.7578,345.6797,953.7578,349.6797,943.7578,353.6797,947.7578,349.6797" style="stroke:#181818;stroke-width:1;"/><line style="stroke:#181818;stroke-width:1;" x1="812.7065" x2="949.7578" y1="349.6797" y2="349.6797"/><text fill="#000000" font-family="sans-serif" font-size="13" lengthAdjust="spacing" textLength="44.0654" x="819.7065" y="344.8232">findAll()</text></g><g class="message" data-participant-1="ProduitRepo" data-participant-2="PostgreSQL"><polygon fill="#181818" points="1201.3604,392.3828,1211.3604,396.3828,1201.3604,400.3828,1205.3604,396.3828" style="stroke:#181818;stroke-width:1;"/><line style="stroke:#181818;stroke-width:1;" x1="955.7578" x2="1207.3604" y1="396.3828" y2="396.3828"/><text fill="#000000" font-family="sans-serif" font-size="13" lengthAdjust="spacing" textLength="59.2427" x="962.7578" y="375.1748">SELECT *</text><text fill="#000000" font-family="sans-serif" font-size="13" lengthAdjust="spacing" textLength="88.1309" x="966.3696" y="391.5264">FROM produits</text></g><g class="message" data-participant-1="PostgreSQL" data-participant-2="ProduitRepo"><polygon fill="#181818" points="966.7578,422.7344,956.7578,426.7344,966.7578,430.7344,962.7578,426.7344" style="stroke:#181818;stroke-width:1;"/><line style="stroke:#181818;stroke-width:1;stroke-dasharray:2.0,2.0;" x1="960.7578" x2="1212.3604" y1="426.7344" y2="426.7344"/><text fill="#000000" font-family="sans-serif" font-size="13" lengthAdjust="spacing" textLength="76.6035" x="972.7578" y="421.8779">List&lt;Produit&gt;</text></g><g class="message" data-participant-1="ProduitRepo" data-participant-2="Service"><polygon fill="#181818" points="823.7065,453.0859,813.7065,457.0859,823.7065,461.0859,819.7065,457.0859" style="stroke:#181818;stroke-width:1;"/><line style="stroke:#181818;stroke-width:1;stroke-dasharray:2.0,2.0;" x1="817.7065" x2="954.7578" y1="457.0859" y2="457.0859"/><text fill="#000000" font-family="sans-serif" font-size="13" lengthAdjust="spacing" textLength="76.6035" x="829.7065" y="452.2295">List&lt;Produit&gt;</text></g><g class="message" data-participant-1="Service" data-participant-2="Controller"><polygon fill="#181818" points="580.7632,483.4375,570.7632,487.4375,580.7632,491.4375,576.7632,487.4375" style="stroke:#181818;stroke-width:1;"/><line style="stroke:#181818;stroke-width:1;stroke-dasharray:2.0,2.0;" x1="574.7632" x2="811.7065" y1="487.4375" y2="487.4375"/><text fill="#000000" font-family="sans-serif" font-size="13" lengthAdjust="spacing" textLength="76.6035" x="586.7632" y="482.5811">List&lt;Produit&gt;</text></g><path d="M482.3462,502.4375 L542.5171,502.4375 L542.5171,510.7891 L532.5171,520.7891 L482.3462,520.7891 L482.3462,502.4375" fill="#EEEEEE" style="stroke:#000000;stroke-width:1.5;"/><rect fill="none" height="233.1641" style="stroke:#000000;stroke-width:1.5;" width="989.6875" x="482.3462" y="502.4375"/><text fill="#000000" font-family="sans-serif" font-size="13" font-weight="bold" lengthAdjust="spacing" textLength="15.1709" x="497.3462" y="516.9326">alt</text><text fill="#000000" font-family="sans-serif" font-size="11" font-weight="bold" lengthAdjust="spacing" textLength="115.5322" x="557.5171" y="515.8564">[magasin s&#233;lectionn&#233;]</text><g class="message" data-participant-1="Controller" data-participant-2="Service"><polygon fill="#181818" points="800.7065,539.1406,810.7065,543.1406,800.7065,547.1406,804.7065,543.1406" style="stroke:#181818;stroke-width:1;"/><line style="stroke:#181818;stroke-width:1;" x1="569.7632" x2="806.7065" y1="543.1406" y2="543.1406"/><text fill="#000000" font-family="sans-serif" font-size="13" lengthAdjust="spacing" textLength="218.9434" x="576.7632" y="538.2842">getDemandesParMagasin(magasinId)</text></g><g class="message" data-participant-1="Service" data-participant-2="StockCentralRepository"><polygon fill="#181818" points="1369.5029,569.4922,1379.5029,573.4922,1369.5029,577.4922,1373.5029,573.4922" style="stroke:#181818;stroke-width:1;"/><line style="stroke:#181818;stroke-width:1;" x1="812.7065" x2="1375.5029" y1="573.4922" y2="573.4922"/><text fill="#000000" font-family="sans-serif" font-size="13" lengthAdjust="spacing" textLength="153.9053" x="819.7065" y="568.6357">findByMagasin(magasinId)</text></g><g class="message" data-participant-1="StockCentralRepository" data-participant-2="PostgreSQL"><polygon fill="#181818" points="1224.3604,632.5469,1214.3604,636.5469,1224.3604,640.5469,1220.3604,636.5469" style="stroke:#181818;stroke-width:1;"/><line style="stroke:#181818;stroke-width:1;" x1="1218.3604" x2="1380.5029" y1="636.5469" y2="636.5469"/><text fill="#000000" font-family="sans-serif" font-size="13" lengthAdjust="spacing" textLength="59.2427" x="1230.3604" y="598.9873">SELECT *</text><text fill="#000000" font-family="sans-serif" font-size="13" lengthAdjust="spacing" textLength="118.4727" x="1233.9722" y="615.3389">FROM stock_central</text><text fill="#000000" font-family="sans-serif" font-size="13" lengthAdjust="spacing" textLength="140.5308" x="1233.9722" y="631.6904">WHERE magasin_id = ?</text></g><g class="message" data-participant-1="PostgreSQL" data-participant-2="StockCentralRepository"><polygon fill="#181818" points="1369.5029,662.8984,1379.5029,666.8984,1369.5029,670.8984,1373.5029,666.8984" style="stroke:#181818;stroke-width:1;"/><line style="stroke:#181818;stroke-width:1;stroke-dasharray:2.0,2.0;" x1="1213.3604" x2="1375.5029" y1="666.8984" y2="666.8984"/><text fill="#000000" font-family="sans-serif" font-size="13" lengthAdjust="spacing" textLength="109.8335" x="1220.3604" y="662.042">List&lt;StockCentral&gt;</text></g><g class="message" data-participant-1="StockCentralRepository" data-participant-2="Service"><polygon fill="#181818" points="823.7065,693.25,813.7065,697.25,823.7065,701.25,819.7065,697.25" style="stroke:#181818;stroke-width:1;"/><line style="stroke:#181818;stroke-width:1;stroke-dasharray:2.0,2.0;" x1="817.7065" x2="1380.5029" y1="697.25" y2="697.25"/><text fill="#000000" font-family="sans-serif" font-size="13" lengthAdjust="spacing" textLength="109.8335" x="829.7065" y="692.3936">List&lt;StockCentral&gt;</text></g><g class="message" data-participant-1="Service" data-participant-2="Controller"><polygon fill="#181818" points="580.7632,723.6016,570.7632,727.6016,580.7632,731.6016,576.7632,727.6016" style="stroke:#181818;stroke-width:1;"/><line style="stroke:#181818;stroke-width:1;stroke-dasharray:2.0,2.0;" x1="574.7632" x2="811.7065" y1="727.6016" y2="727.6016"/><text fill="#000000" font-family="sans-serif" font-size="13" lengthAdjust="spacing" textLength="109.8335" x="586.7632" y="722.7451">List&lt;StockCentral&gt;</text></g><rect fill="#EEEEEE" height="3" style="stroke:#EEEEEE;stroke-width:1;" width="1482.0337" x="0" y="763.7773"/><line style="stroke:#000000;stroke-width:1;" x1="0" x2="1482.0337" y1="763.7773" y2="763.7773"/><line style="stroke:#000000;stroke-width:1;" x1="0" x2="1482.0337" y1="766.7773" y2="766.7773"/><rect fill="#EEEEEE" height="24.3516" style="stroke:#000000;stroke-width:2;" width="76.8418" x="702.5959" y="752.6016"/><text fill="#000000" font-family="sans-serif" font-size="13" font-weight="bold" lengthAdjust="spacing" textLength="59.23" x="708.5959" y="770.0967">Affichage</text><g class="message" data-participant-1="Controller" data-participant-2="Vue"><polygon fill="#181818" points="280.5322,805.3047,270.5322,809.3047,280.5322,813.3047,276.5322,809.3047" style="stroke:#181818;stroke-width:1;"/><line style="stroke:#181818;stroke-width:1;stroke-dasharray:2.0,2.0;" x1="274.5322" x2="568.7632" y1="809.3047" y2="809.3047"/><text fill="#000000" font-family="sans-serif" font-size="13" lengthAdjust="spacing" textLength="276.231" x="286.5322" y="804.4482">retourne "stock.html" avec produits + demandes</text></g><g class="message" data-participant-1="Vue" data-participant-2="Employe"><polygon fill="#181818" points="46.2344,835.6563,36.2344,839.6563,46.2344,843.6563,42.2344,839.6563" style="stroke:#181818;stroke-width:1;"/><line style="stroke:#181818;stroke-width:1;stroke-dasharray:2.0,2.0;" x1="40.2344" x2="268.5322" y1="839.6563" y2="839.6563"/><text fill="#000000" font-family="sans-serif" font-size="13" lengthAdjust="spacing" textLength="210.2979" x="52.2344" y="834.7998">Affiche tableau produits et historique</text></g><!--SRC=[ZLLBSXit4DtFARgq2HcNbBqhj4iccSWfAf55njwaoWNED8T8CC0O7qRSvHhPPIbcxHlCJNAID32O7pznLYJ1HlVhr- -XBRS2ORPSmZLCbJHEMDH0HyQgz3T8KLhD18oMfUOoXpTAMVY0wt6IV0MJoGHkKujEmzOLZ4j_ah3KAWtpeXHgZqtOL1MbCanQus_3wFxzT1oYIwOjJtb9Vy7LZsp7SnOIXgZLTb-WGBOPNm4pyDxXC7xfCKvhY0JUQYK4wX3R_RnyPObwnrCCyV7xCFX1gynn-uY4dLDN-n3QEns6txES6IwFmdkdISOiMpE3b5ePcsjSlbjS9GaHjAmE0bFBbOICIGFYdp_-v99ciM4f4bD991IkNtaUu2MmDAsUCuJgB_Yc7jOl4dQSGO7IWN8WE4gYVq6PdEM2cvhPLF1FbC2uCEQrSfPgrhmquxw234l7Zr7yZkiaySK9GySlGRbRhHxW-_ag0dbTr2s_pIOtDpSU0eBiHejofpY2amWQFxdgRulXCjjX6Yg-dK7c82Q14N7CYkhPQWHLUeOaYd4WRQ7oq4jH7Imd94HJ3nUXZ5CbY3dQE3SpuwPKagy5cj6uHfVwMzLduU6niaIw7pmGhvUApdLrI5rP7JIbjieHEMYWZ3a1dxYnNjz9qXIb-Zsf48ODbzcj44tH9diWMAiybDIjUE27XzkwibfRbFnSLQB9x8sjdWjoMh-OhzqgZ4elvulvT0LVUuryz_ZJVPk2eFpS7uGFHsCXhmwIUgqE28mKKZ3hcIPfMQ1vG7mEPgHdZvEATzMkJnfV43VVngDNlda6mGMatep6IKKC8Q3sD44HZ9Hhh1yAIPxcxkEwde_w70pvfCw0Jns5vnbKwr_HzeXahXb7Rtx7CZ-JlfdXANhAs5DLaZ1XMqcRrkpKEoLQybRttgoo3MH0oguEiF79UNmPM3kjvB_aFiE2IMBkWUdu18rQNvwHVLQ7zvW8HCLZ_yKxWCoXrOwRuCAWXfvJwraE3D1_RhjtCNhXpVuIi2zP8wiE6ITUc7kg5vM9JvTxelBdQtxH4Y7HnsRZqUc7k_dZlEdk8yzW0gzhzGxialgdP4XMi2qTjWEdToFb6-xPENBAHOQ2slh_NdPEhMjIe4Kp129u2A4TaRPeBZDqQgQJ-eCnqAaq1TfEzLc_-FytrPaodRDohLmP2MvwfeP2stlASUGqb5bO3hUR3K-tBCVZjT1kqDQqLs7qDrjRqEeBQwXz65wqxPnQfYH3q6COn5ceh7gcJoAZv-xm7koesDtgVZ4e4nSfOMaM-yk8c0R9I53KLRTSB6o99gNz6nnN-c0j0ujNXzkXMtG-nL2XVfsHYuXp-ZKo75eFnjTcdFmB]--></g></svg>