<svg xmlns="http://www.w3.org/2000/svg" xmlns:xlink="http://www.w3.org/1999/xlink" contentStyleType="text/css" data-diagram-type="CLASS" height="1547px" preserveAspectRatio="none" style="width:598px;height:1547px;background:#FFFFFF;" version="1.1" viewBox="0 0 598 1547" width="598px" zoomAndPan="magnify"><title>Diagramme de classe - Magasin Web (Vue logique)</title><defs/><g><text fill="#000000" font-family="sans-serif" font-size="14" font-weight="bold" lengthAdjust="spacing" textLength="337.6406" x="123.3154" y="24.5332">Diagramme de classe - Magasin Web (Vue logique)</text><!--class Employe--><g class="entity" data-entity="Employe" data-source-line="5" data-uid="ent0002" id="entity_Employe"><rect fill="#F1F1F1" height="153.6563" rx="2.5" ry="2.5" style="stroke:#181818;stroke-width:0.5;" width="159.8477" x="113.5" y="45.6094"/><ellipse cx="161.9395" cy="61.6094" fill="#ADD1B2" rx="11" ry="11" style="stroke:#181818;stroke-width:1;"/><path d="M164.7051,57.4844 Q164.8613,57.2656 165.0488,57.1563 Q165.2363,57.0469 165.4551,57.0469 Q165.8301,57.0469 166.0645,57.3125 Q166.2988,57.5625 166.2988,58.1719 L166.2988,59.625 Q166.2988,60.2344 166.0645,60.5 Q165.8301,60.7656 165.4551,60.7656 Q165.1113,60.7656 164.9082,60.5625 Q164.7051,60.375 164.5957,59.8594 Q164.5488,59.5 164.3613,59.3125 Q164.0332,58.9375 163.4238,58.7188 Q162.8145,58.5 162.1895,58.5 Q161.4238,58.5 160.7832,58.8281 Q160.1582,59.1563 159.6582,59.9063 Q159.1738,60.6563 159.1738,61.6875 L159.1738,62.7813 Q159.1738,64.0156 160.0645,64.8438 Q160.9551,65.6563 162.5488,65.6563 Q163.4863,65.6563 164.1426,65.4063 Q164.5332,65.25 164.9551,64.8125 Q165.2207,64.5469 165.3613,64.4688 Q165.5176,64.3906 165.7207,64.3906 Q166.0488,64.3906 166.2988,64.6563 Q166.5645,64.9063 166.5645,65.25 Q166.5645,65.5938 166.2207,66 Q165.7207,66.5781 164.9238,66.9063 Q163.8457,67.3594 162.5488,67.3594 Q161.0332,67.3594 159.8301,66.7344 Q158.8457,66.2344 158.1582,65.1719 Q157.4707,64.0938 157.4707,62.8125 L157.4707,61.6563 Q157.4707,60.3281 158.0801,59.1875 Q158.7051,58.0313 159.7988,57.4219 Q160.8926,56.7969 162.127,56.7969 Q162.8613,56.7969 163.502,56.9688 Q164.1582,57.125 164.7051,57.4844 Z " fill="#000000"/><text fill="#000000" font-family="sans-serif" font-size="14" lengthAdjust="spacing" textLength="54.4688" x="182.4395" y="67.3379">Employe</text><line style="stroke:#181818;stroke-width:0.5;" x1="114.5" x2="272.3477" y1="77.6094" y2="77.6094"/><rect fill="none" height="6" style="stroke:#C82930;stroke-width:1;" width="6" x="121.5" y="88.9141"/><text fill="#000000" font-family="sans-serif" font-size="14" lengthAdjust="spacing" textLength="37.3516" x="133.5" y="96.1426">id : int</text><rect fill="none" height="6" style="stroke:#C82930;stroke-width:1;" width="6" x="121.5" y="106.5234"/><text fill="#000000" font-family="sans-serif" font-size="14" lengthAdjust="spacing" textLength="75.4756" x="133.5" y="113.752">nom : String</text><rect fill="none" height="6" style="stroke:#C82930;stroke-width:1;" width="6" x="121.5" y="124.1328"/><text fill="#000000" font-family="sans-serif" font-size="14" lengthAdjust="spacing" textLength="108.1719" x="133.5" y="131.3613">identifiant : String</text><line style="stroke:#181818;stroke-width:1;" x1="114.5" x2="272.3477" y1="138.4375" y2="138.4375"/><ellipse cx="124.5" cy="152.7422" fill="#84BE84" rx="3" ry="3" style="stroke:#038048;stroke-width:1;"/><text fill="#000000" font-family="sans-serif" font-size="14" lengthAdjust="spacing" textLength="66.917" x="133.5" y="156.9707">getId() : int</text><ellipse cx="124.5" cy="170.3516" fill="#84BE84" rx="3" ry="3" style="stroke:#038048;stroke-width:1;"/><text fill="#000000" font-family="sans-serif" font-size="14" lengthAdjust="spacing" textLength="106.5859" x="133.5" y="174.5801">getNom() : String</text><ellipse cx="124.5" cy="187.9609" fill="#84BE84" rx="3" ry="3" style="stroke:#038048;stroke-width:1;"/><text fill="#000000" font-family="sans-serif" font-size="14" lengthAdjust="spacing" textLength="133.8477" x="133.5" y="192.1895">getIdentifiant(): String</text></g><!--class Magasin--><g class="entity" data-entity="Magasin" data-source-line="15" data-uid="ent0003" id="entity_Magasin"><rect fill="#F1F1F1" height="153.6563" rx="2.5" ry="2.5" style="stroke:#181818;stroke-width:0.5;" width="153.5996" x="274.5" y="805.6094"/><ellipse cx="320.5913" cy="821.6094" fill="#ADD1B2" rx="11" ry="11" style="stroke:#181818;stroke-width:1;"/><path d="M323.3569,817.4844 Q323.5132,817.2656 323.7007,817.1563 Q323.8882,817.0469 324.1069,817.0469 Q324.4819,817.0469 324.7163,817.3125 Q324.9507,817.5625 324.9507,818.1719 L324.9507,819.625 Q324.9507,820.2344 324.7163,820.5 Q324.4819,820.7656 324.1069,820.7656 Q323.7632,820.7656 323.5601,820.5625 Q323.3569,820.375 323.2476,819.8594 Q323.2007,819.5 323.0132,819.3125 Q322.6851,818.9375 322.0757,818.7188 Q321.4663,818.5 320.8413,818.5 Q320.0757,818.5 319.4351,818.8281 Q318.8101,819.1563 318.3101,819.9063 Q317.8257,820.6563 317.8257,821.6875 L317.8257,822.7813 Q317.8257,824.0156 318.7163,824.8438 Q319.6069,825.6563 321.2007,825.6563 Q322.1382,825.6563 322.7944,825.4063 Q323.1851,825.25 323.6069,824.8125 Q323.8726,824.5469 324.0132,824.4688 Q324.1694,824.3906 324.3726,824.3906 Q324.7007,824.3906 324.9507,824.6563 Q325.2163,824.9063 325.2163,825.25 Q325.2163,825.5938 324.8726,826 Q324.3726,826.5781 323.5757,826.9063 Q322.4976,827.3594 321.2007,827.3594 Q319.6851,827.3594 318.4819,826.7344 Q317.4976,826.2344 316.8101,825.1719 Q316.1226,824.0938 316.1226,822.8125 L316.1226,821.6563 Q316.1226,820.3281 316.7319,819.1875 Q317.3569,818.0313 318.4507,817.4219 Q319.5444,816.7969 320.7788,816.7969 Q321.5132,816.7969 322.1538,816.9688 Q322.8101,817.125 323.3569,817.4844 Z " fill="#000000"/><text fill="#000000" font-family="sans-serif" font-size="14" lengthAdjust="spacing" textLength="52.917" x="341.0913" y="827.3379">Magasin</text><line style="stroke:#181818;stroke-width:0.5;" x1="275.5" x2="427.0996" y1="837.6094" y2="837.6094"/><rect fill="none" height="6" style="stroke:#C82930;stroke-width:1;" width="6" x="282.5" y="848.9141"/><text fill="#000000" font-family="sans-serif" font-size="14" lengthAdjust="spacing" textLength="37.3516" x="294.5" y="856.1426">id : int</text><rect fill="none" height="6" style="stroke:#C82930;stroke-width:1;" width="6" x="282.5" y="866.5234"/><text fill="#000000" font-family="sans-serif" font-size="14" lengthAdjust="spacing" textLength="75.4756" x="294.5" y="873.752">nom : String</text><rect fill="none" height="6" style="stroke:#C82930;stroke-width:1;" width="6" x="282.5" y="884.1328"/><text fill="#000000" font-family="sans-serif" font-size="14" lengthAdjust="spacing" textLength="95.71" x="294.5" y="891.3613">quartier : String</text><line style="stroke:#181818;stroke-width:1;" x1="275.5" x2="427.0996" y1="898.4375" y2="898.4375"/><ellipse cx="285.5" cy="912.7422" fill="#84BE84" rx="3" ry="3" style="stroke:#038048;stroke-width:1;"/><text fill="#000000" font-family="sans-serif" font-size="14" lengthAdjust="spacing" textLength="66.917" x="294.5" y="916.9707">getId() : int</text><ellipse cx="285.5" cy="930.3516" fill="#84BE84" rx="3" ry="3" style="stroke:#038048;stroke-width:1;"/><text fill="#000000" font-family="sans-serif" font-size="14" lengthAdjust="spacing" textLength="106.5859" x="294.5" y="934.5801">getNom() : String</text><ellipse cx="285.5" cy="947.9609" fill="#84BE84" rx="3" ry="3" style="stroke:#038048;stroke-width:1;"/><text fill="#000000" font-family="sans-serif" font-size="14" lengthAdjust="spacing" textLength="127.5996" x="294.5" y="952.1895">getQuartier() : String</text></g><!--class Produit--><g class="entity" data-entity="Produit" data-source-line="25" data-uid="ent0004" id="entity_Produit"><rect fill="#F1F1F1" height="224.0938" rx="2.5" ry="2.5" style="stroke:#181818;stroke-width:0.5;" width="163.7305" x="205.5" y="1316.6094"/><ellipse cx="260.936" cy="1332.6094" fill="#ADD1B2" rx="11" ry="11" style="stroke:#181818;stroke-width:1;"/><path d="M263.7017,1328.4844 Q263.8579,1328.2656 264.0454,1328.1563 Q264.2329,1328.0469 264.4517,1328.0469 Q264.8267,1328.0469 265.061,1328.3125 Q265.2954,1328.5625 265.2954,1329.1719 L265.2954,1330.625 Q265.2954,1331.2344 265.061,1331.5 Q264.8267,1331.7656 264.4517,1331.7656 Q264.1079,1331.7656 263.9048,1331.5625 Q263.7017,1331.375 263.5923,1330.8594 Q263.5454,1330.5 263.3579,1330.3125 Q263.0298,1329.9375 262.4204,1329.7188 Q261.811,1329.5 261.186,1329.5 Q260.4204,1329.5 259.7798,1329.8281 Q259.1548,1330.1563 258.6548,1330.9063 Q258.1704,1331.6563 258.1704,1332.6875 L258.1704,1333.7813 Q258.1704,1335.0156 259.061,1335.8438 Q259.9517,1336.6563 261.5454,1336.6563 Q262.4829,1336.6563 263.1392,1336.4063 Q263.5298,1336.25 263.9517,1335.8125 Q264.2173,1335.5469 264.3579,1335.4688 Q264.5142,1335.3906 264.7173,1335.3906 Q265.0454,1335.3906 265.2954,1335.6563 Q265.561,1335.9063 265.561,1336.25 Q265.561,1336.5938 265.2173,1337 Q264.7173,1337.5781 263.9204,1337.9063 Q262.8423,1338.3594 261.5454,1338.3594 Q260.0298,1338.3594 258.8267,1337.7344 Q257.8423,1337.2344 257.1548,1336.1719 Q256.4673,1335.0938 256.4673,1333.8125 L256.4673,1332.6563 Q256.4673,1331.3281 257.0767,1330.1875 Q257.7017,1329.0313 258.7954,1328.4219 Q259.8892,1327.7969 261.1235,1327.7969 Q261.8579,1327.7969 262.4985,1327.9688 Q263.1548,1328.125 263.7017,1328.4844 Z " fill="#000000"/><text fill="#000000" font-family="sans-serif" font-size="14" lengthAdjust="spacing" textLength="44.3584" x="281.436" y="1338.3379">Produit</text><line style="stroke:#181818;stroke-width:0.5;" x1="206.5" x2="368.2305" y1="1348.6094" y2="1348.6094"/><rect fill="none" height="6" style="stroke:#C82930;stroke-width:1;" width="6" x="213.5" y="1359.9141"/><text fill="#000000" font-family="sans-serif" font-size="14" lengthAdjust="spacing" textLength="37.3516" x="225.5" y="1367.1426">id : int</text><rect fill="none" height="6" style="stroke:#C82930;stroke-width:1;" width="6" x="213.5" y="1377.5234"/><text fill="#000000" font-family="sans-serif" font-size="14" lengthAdjust="spacing" textLength="75.4756" x="225.5" y="1384.752">nom : String</text><rect fill="none" height="6" style="stroke:#C82930;stroke-width:1;" width="6" x="213.5" y="1395.1328"/><text fill="#000000" font-family="sans-serif" font-size="14" lengthAdjust="spacing" textLength="105.834" x="225.5" y="1402.3613">categorie : String</text><rect fill="none" height="6" style="stroke:#C82930;stroke-width:1;" width="6" x="213.5" y="1412.7422"/><text fill="#000000" font-family="sans-serif" font-size="14" lengthAdjust="spacing" textLength="60.6895" x="225.5" y="1419.9707">prix : float</text><rect fill="none" height="6" style="stroke:#C82930;stroke-width:1;" width="6" x="213.5" y="1430.3516"/><text fill="#000000" font-family="sans-serif" font-size="14" lengthAdjust="spacing" textLength="76.2754" x="225.5" y="1437.5801">quantite : int</text><line style="stroke:#181818;stroke-width:1;" x1="206.5" x2="368.2305" y1="1444.6563" y2="1444.6563"/><ellipse cx="216.5" cy="1458.9609" fill="#84BE84" rx="3" ry="3" style="stroke:#038048;stroke-width:1;"/><text fill="#000000" font-family="sans-serif" font-size="14" lengthAdjust="spacing" textLength="66.917" x="225.5" y="1463.1895">getId() : int</text><ellipse cx="216.5" cy="1476.5703" fill="#84BE84" rx="3" ry="3" style="stroke:#038048;stroke-width:1;"/><text fill="#000000" font-family="sans-serif" font-size="14" lengthAdjust="spacing" textLength="106.5859" x="225.5" y="1480.7988">getNom() : String</text><ellipse cx="216.5" cy="1494.1797" fill="#84BE84" rx="3" ry="3" style="stroke:#038048;stroke-width:1;"/><text fill="#000000" font-family="sans-serif" font-size="14" lengthAdjust="spacing" textLength="137.7305" x="225.5" y="1498.4082">getCategorie() : String</text><ellipse cx="216.5" cy="1511.7891" fill="#84BE84" rx="3" ry="3" style="stroke:#038048;stroke-width:1;"/><text fill="#000000" font-family="sans-serif" font-size="14" lengthAdjust="spacing" textLength="91.0273" x="225.5" y="1516.0176">getPrix() : float</text><ellipse cx="216.5" cy="1529.3984" fill="#84BE84" rx="3" ry="3" style="stroke:#038048;stroke-width:1;"/><text fill="#000000" font-family="sans-serif" font-size="14" lengthAdjust="spacing" textLength="108.165" x="225.5" y="1533.627">getQuantite() : int</text></g><!--class Vente--><g class="entity" data-entity="Vente" data-source-line="39" data-uid="ent0005" id="entity_Vente"><rect fill="#F1F1F1" height="153.6563" rx="2.5" ry="2.5" style="stroke:#181818;stroke-width:0.5;" width="195.6543" x="140.5" y="473.6094"/><ellipse cx="215.7842" cy="489.6094" fill="#ADD1B2" rx="11" ry="11" style="stroke:#181818;stroke-width:1;"/><path d="M218.5498,485.4844 Q218.7061,485.2656 218.8936,485.1563 Q219.0811,485.0469 219.2998,485.0469 Q219.6748,485.0469 219.9092,485.3125 Q220.1436,485.5625 220.1436,486.1719 L220.1436,487.625 Q220.1436,488.2344 219.9092,488.5 Q219.6748,488.7656 219.2998,488.7656 Q218.9561,488.7656 218.7529,488.5625 Q218.5498,488.375 218.4404,487.8594 Q218.3936,487.5 218.2061,487.3125 Q217.8779,486.9375 217.2686,486.7188 Q216.6592,486.5 216.0342,486.5 Q215.2686,486.5 214.6279,486.8281 Q214.0029,487.1563 213.5029,487.9063 Q213.0186,488.6563 213.0186,489.6875 L213.0186,490.7813 Q213.0186,492.0156 213.9092,492.8438 Q214.7998,493.6563 216.3936,493.6563 Q217.3311,493.6563 217.9873,493.4063 Q218.3779,493.25 218.7998,492.8125 Q219.0654,492.5469 219.2061,492.4688 Q219.3623,492.3906 219.5654,492.3906 Q219.8936,492.3906 220.1436,492.6563 Q220.4092,492.9063 220.4092,493.25 Q220.4092,493.5938 220.0654,494 Q219.5654,494.5781 218.7686,494.9063 Q217.6904,495.3594 216.3936,495.3594 Q214.8779,495.3594 213.6748,494.7344 Q212.6904,494.2344 212.0029,493.1719 Q211.3154,492.0938 211.3154,490.8125 L211.3154,489.6563 Q211.3154,488.3281 211.9248,487.1875 Q212.5498,486.0313 213.6436,485.4219 Q214.7373,484.7969 215.9717,484.7969 Q216.7061,484.7969 217.3467,484.9688 Q218.0029,485.125 218.5498,485.4844 Z " fill="#000000"/><text fill="#000000" font-family="sans-serif" font-size="14" lengthAdjust="spacing" textLength="36.5859" x="236.2842" y="495.3379">Vente</text><line style="stroke:#181818;stroke-width:0.5;" x1="141.5" x2="335.1543" y1="505.6094" y2="505.6094"/><rect fill="none" height="6" style="stroke:#C82930;stroke-width:1;" width="6" x="148.5" y="516.9141"/><text fill="#000000" font-family="sans-serif" font-size="14" lengthAdjust="spacing" textLength="37.3516" x="160.5" y="524.1426">id : int</text><rect fill="none" height="6" style="stroke:#C82930;stroke-width:1;" width="6" x="148.5" y="534.5234"/><text fill="#000000" font-family="sans-serif" font-size="14" lengthAdjust="spacing" textLength="138.5439" x="160.5" y="541.752">dateVente : LocalDate</text><rect fill="none" height="6" style="stroke:#C82930;stroke-width:1;" width="6" x="148.5" y="552.1328"/><text fill="#000000" font-family="sans-serif" font-size="14" lengthAdjust="spacing" textLength="119.8408" x="160.5" y="559.3613">montantTotal : float</text><line style="stroke:#181818;stroke-width:1;" x1="141.5" x2="335.1543" y1="566.4375" y2="566.4375"/><ellipse cx="151.5" cy="580.7422" fill="#84BE84" rx="3" ry="3" style="stroke:#038048;stroke-width:1;"/><text fill="#000000" font-family="sans-serif" font-size="14" lengthAdjust="spacing" textLength="66.917" x="160.5" y="584.9707">getId() : int</text><ellipse cx="151.5" cy="598.3516" fill="#84BE84" rx="3" ry="3" style="stroke:#038048;stroke-width:1;"/><text fill="#000000" font-family="sans-serif" font-size="14" lengthAdjust="spacing" textLength="169.6543" x="160.5" y="602.5801">getDateVente() : LocalDate</text><ellipse cx="151.5" cy="615.9609" fill="#84BE84" rx="3" ry="3" style="stroke:#038048;stroke-width:1;"/><text fill="#000000" font-family="sans-serif" font-size="14" lengthAdjust="spacing" textLength="148.627" x="160.5" y="620.1895">getMontantTotal() : float</text></g><!--class VenteProduit--><g class="entity" data-entity="VenteProduit" data-source-line="49" data-uid="ent0006" id="entity_VenteProduit"><rect fill="#F1F1F1" height="118.4375" rx="2.5" ry="2.5" style="stroke:#181818;stroke-width:0.5;" width="134.165" x="151.5" y="989.6094"/><ellipse cx="176.0493" cy="1005.6094" fill="#ADD1B2" rx="11" ry="11" style="stroke:#181818;stroke-width:1;"/><path d="M178.8149,1001.4844 Q178.9712,1001.2656 179.1587,1001.1563 Q179.3462,1001.0469 179.5649,1001.0469 Q179.9399,1001.0469 180.1743,1001.3125 Q180.4087,1001.5625 180.4087,1002.1719 L180.4087,1003.625 Q180.4087,1004.2344 180.1743,1004.5 Q179.9399,1004.7656 179.5649,1004.7656 Q179.2212,1004.7656 179.0181,1004.5625 Q178.8149,1004.375 178.7056,1003.8594 Q178.6587,1003.5 178.4712,1003.3125 Q178.1431,1002.9375 177.5337,1002.7188 Q176.9243,1002.5 176.2993,1002.5 Q175.5337,1002.5 174.8931,1002.8281 Q174.2681,1003.1563 173.7681,1003.9063 Q173.2837,1004.6563 173.2837,1005.6875 L173.2837,1006.7813 Q173.2837,1008.0156 174.1743,1008.8438 Q175.0649,1009.6563 176.6587,1009.6563 Q177.5962,1009.6563 178.2524,1009.4063 Q178.6431,1009.25 179.0649,1008.8125 Q179.3306,1008.5469 179.4712,1008.4688 Q179.6274,1008.3906 179.8306,1008.3906 Q180.1587,1008.3906 180.4087,1008.6563 Q180.6743,1008.9063 180.6743,1009.25 Q180.6743,1009.5938 180.3306,1010 Q179.8306,1010.5781 179.0337,1010.9063 Q177.9556,1011.3594 176.6587,1011.3594 Q175.1431,1011.3594 173.9399,1010.7344 Q172.9556,1010.2344 172.2681,1009.1719 Q171.5806,1008.0938 171.5806,1006.8125 L171.5806,1005.6563 Q171.5806,1004.3281 172.1899,1003.1875 Q172.8149,1002.0313 173.9087,1001.4219 Q175.0024,1000.7969 176.2368,1000.7969 Q176.9712,1000.7969 177.6118,1000.9688 Q178.2681,1001.125 178.8149,1001.4844 Z " fill="#000000"/><text fill="#000000" font-family="sans-serif" font-size="14" lengthAdjust="spacing" textLength="80.9443" x="192.1714" y="1011.3379">VenteProduit</text><line style="stroke:#181818;stroke-width:0.5;" x1="152.5" x2="284.665" y1="1021.6094" y2="1021.6094"/><rect fill="none" height="6" style="stroke:#C82930;stroke-width:1;" width="6" x="159.5" y="1032.9141"/><text fill="#000000" font-family="sans-serif" font-size="14" lengthAdjust="spacing" textLength="37.3516" x="171.5" y="1040.1426">id : int</text><rect fill="none" height="6" style="stroke:#C82930;stroke-width:1;" width="6" x="159.5" y="1050.5234"/><text fill="#000000" font-family="sans-serif" font-size="14" lengthAdjust="spacing" textLength="76.2754" x="171.5" y="1057.752">quantite : int</text><line style="stroke:#181818;stroke-width:1;" x1="152.5" x2="284.665" y1="1064.8281" y2="1064.8281"/><ellipse cx="162.5" cy="1079.1328" fill="#84BE84" rx="3" ry="3" style="stroke:#038048;stroke-width:1;"/><text fill="#000000" font-family="sans-serif" font-size="14" lengthAdjust="spacing" textLength="66.917" x="171.5" y="1083.3613">getId() : int</text><ellipse cx="162.5" cy="1096.7422" fill="#84BE84" rx="3" ry="3" style="stroke:#038048;stroke-width:1;"/><text fill="#000000" font-family="sans-serif" font-size="14" lengthAdjust="spacing" textLength="108.165" x="171.5" y="1100.9707">getQuantite() : int</text></g><!--class Retour--><g class="entity" data-entity="Retour" data-source-line="57" data-uid="ent0007" id="entity_Retour"><rect fill="#F1F1F1" height="118.4375" rx="2.5" ry="2.5" style="stroke:#181818;stroke-width:0.5;" width="201.0889" x="7" y="277.6094"/><ellipse cx="82.2842" cy="293.6094" fill="#ADD1B2" rx="11" ry="11" style="stroke:#181818;stroke-width:1;"/><path d="M85.0498,289.4844 Q85.2061,289.2656 85.3936,289.1563 Q85.5811,289.0469 85.7998,289.0469 Q86.1748,289.0469 86.4092,289.3125 Q86.6436,289.5625 86.6436,290.1719 L86.6436,291.625 Q86.6436,292.2344 86.4092,292.5 Q86.1748,292.7656 85.7998,292.7656 Q85.4561,292.7656 85.2529,292.5625 Q85.0498,292.375 84.9404,291.8594 Q84.8936,291.5 84.7061,291.3125 Q84.3779,290.9375 83.7686,290.7188 Q83.1592,290.5 82.5342,290.5 Q81.7686,290.5 81.1279,290.8281 Q80.5029,291.1563 80.0029,291.9063 Q79.5186,292.6563 79.5186,293.6875 L79.5186,294.7813 Q79.5186,296.0156 80.4092,296.8438 Q81.2998,297.6563 82.8936,297.6563 Q83.8311,297.6563 84.4873,297.4063 Q84.8779,297.25 85.2998,296.8125 Q85.5654,296.5469 85.7061,296.4688 Q85.8623,296.3906 86.0654,296.3906 Q86.3936,296.3906 86.6436,296.6563 Q86.9092,296.9063 86.9092,297.25 Q86.9092,297.5938 86.5654,298 Q86.0654,298.5781 85.2686,298.9063 Q84.1904,299.3594 82.8936,299.3594 Q81.3779,299.3594 80.1748,298.7344 Q79.1904,298.2344 78.5029,297.1719 Q77.8154,296.0938 77.8154,294.8125 L77.8154,293.6563 Q77.8154,292.3281 78.4248,291.1875 Q79.0498,290.0313 80.1436,289.4219 Q81.2373,288.7969 82.4717,288.7969 Q83.2061,288.7969 83.8467,288.9688 Q84.5029,289.125 85.0498,289.4844 Z " fill="#000000"/><text fill="#000000" font-family="sans-serif" font-size="14" lengthAdjust="spacing" textLength="42.0205" x="102.7842" y="299.3379">Retour</text><line style="stroke:#181818;stroke-width:0.5;" x1="8" x2="207.0889" y1="309.6094" y2="309.6094"/><rect fill="none" height="6" style="stroke:#C82930;stroke-width:1;" width="6" x="15" y="320.9141"/><text fill="#000000" font-family="sans-serif" font-size="14" lengthAdjust="spacing" textLength="37.3516" x="27" y="328.1426">id : int</text><rect fill="none" height="6" style="stroke:#C82930;stroke-width:1;" width="6" x="15" y="338.5234"/><text fill="#000000" font-family="sans-serif" font-size="14" lengthAdjust="spacing" textLength="143.9785" x="27" y="345.752">dateRetour : LocalDate</text><line style="stroke:#181818;stroke-width:1;" x1="8" x2="207.0889" y1="352.8281" y2="352.8281"/><ellipse cx="18" cy="367.1328" fill="#84BE84" rx="3" ry="3" style="stroke:#038048;stroke-width:1;"/><text fill="#000000" font-family="sans-serif" font-size="14" lengthAdjust="spacing" textLength="66.917" x="27" y="371.3613">getId() : int</text><ellipse cx="18" cy="384.7422" fill="#84BE84" rx="3" ry="3" style="stroke:#038048;stroke-width:1;"/><text fill="#000000" font-family="sans-serif" font-size="14" lengthAdjust="spacing" textLength="175.0889" x="27" y="388.9707">getDateRetour() : LocalDate</text></g><!--class RetourProduit--><g class="entity" data-entity="RetourProduit" data-source-line="65" data-uid="ent0008" id="entity_RetourProduit"><rect fill="#F1F1F1" height="118.4375" rx="2.5" ry="2.5" style="stroke:#181818;stroke-width:0.5;" width="134.165" x="23.5" y="657.6094"/><ellipse cx="45.6038" cy="673.6094" fill="#ADD1B2" rx="11" ry="11" style="stroke:#181818;stroke-width:1;"/><path d="M48.3694,669.4844 Q48.5256,669.2656 48.7131,669.1563 Q48.9006,669.0469 49.1194,669.0469 Q49.4944,669.0469 49.7288,669.3125 Q49.9631,669.5625 49.9631,670.1719 L49.9631,671.625 Q49.9631,672.2344 49.7288,672.5 Q49.4944,672.7656 49.1194,672.7656 Q48.7756,672.7656 48.5725,672.5625 Q48.3694,672.375 48.26,671.8594 Q48.2131,671.5 48.0256,671.3125 Q47.6975,670.9375 47.0881,670.7188 Q46.4788,670.5 45.8538,670.5 Q45.0881,670.5 44.4475,670.8281 Q43.8225,671.1563 43.3225,671.9063 Q42.8381,672.6563 42.8381,673.6875 L42.8381,674.7813 Q42.8381,676.0156 43.7288,676.8438 Q44.6194,677.6563 46.2131,677.6563 Q47.1506,677.6563 47.8069,677.4063 Q48.1975,677.25 48.6194,676.8125 Q48.885,676.5469 49.0256,676.4688 Q49.1819,676.3906 49.385,676.3906 Q49.7131,676.3906 49.9631,676.6563 Q50.2288,676.9063 50.2288,677.25 Q50.2288,677.5938 49.885,678 Q49.385,678.5781 48.5881,678.9063 Q47.51,679.3594 46.2131,679.3594 Q44.6975,679.3594 43.4944,678.7344 Q42.51,678.2344 41.8225,677.1719 Q41.135,676.0938 41.135,674.8125 L41.135,673.6563 Q41.135,672.3281 41.7444,671.1875 Q42.3694,670.0313 43.4631,669.4219 Q44.5569,668.7969 45.7913,668.7969 Q46.5256,668.7969 47.1663,668.9688 Q47.8225,669.125 48.3694,669.4844 Z " fill="#000000"/><text fill="#000000" font-family="sans-serif" font-size="14" lengthAdjust="spacing" textLength="86.3789" x="61.1824" y="679.3379">RetourProduit</text><line style="stroke:#181818;stroke-width:0.5;" x1="24.5" x2="156.665" y1="689.6094" y2="689.6094"/><rect fill="none" height="6" style="stroke:#C82930;stroke-width:1;" width="6" x="31.5" y="700.9141"/><text fill="#000000" font-family="sans-serif" font-size="14" lengthAdjust="spacing" textLength="37.3516" x="43.5" y="708.1426">id : int</text><rect fill="none" height="6" style="stroke:#C82930;stroke-width:1;" width="6" x="31.5" y="718.5234"/><text fill="#000000" font-family="sans-serif" font-size="14" lengthAdjust="spacing" textLength="76.2754" x="43.5" y="725.752">quantite : int</text><line style="stroke:#181818;stroke-width:1;" x1="24.5" x2="156.665" y1="732.8281" y2="732.8281"/><ellipse cx="34.5" cy="747.1328" fill="#84BE84" rx="3" ry="3" style="stroke:#038048;stroke-width:1;"/><text fill="#000000" font-family="sans-serif" font-size="14" lengthAdjust="spacing" textLength="66.917" x="43.5" y="751.3613">getId() : int</text><ellipse cx="34.5" cy="764.7422" fill="#84BE84" rx="3" ry="3" style="stroke:#038048;stroke-width:1;"/><text fill="#000000" font-family="sans-serif" font-size="14" lengthAdjust="spacing" textLength="108.165" x="43.5" y="768.9707">getQuantite() : int</text></g><!--class StockMagasin--><g class="entity" data-entity="StockMagasin" data-source-line="73" data-uid="ent0009" id="entity_StockMagasin"><rect fill="#F1F1F1" height="118.4375" rx="2.5" ry="2.5" style="stroke:#181818;stroke-width:0.5;" width="134.165" x="292.5" y="1137.6094"/><ellipse cx="313.9055" cy="1153.6094" fill="#ADD1B2" rx="11" ry="11" style="stroke:#181818;stroke-width:1;"/><path d="M316.6711,1149.4844 Q316.8273,1149.2656 317.0148,1149.1563 Q317.2023,1149.0469 317.4211,1149.0469 Q317.7961,1149.0469 318.0305,1149.3125 Q318.2648,1149.5625 318.2648,1150.1719 L318.2648,1151.625 Q318.2648,1152.2344 318.0305,1152.5 Q317.7961,1152.7656 317.4211,1152.7656 Q317.0773,1152.7656 316.8742,1152.5625 Q316.6711,1152.375 316.5617,1151.8594 Q316.5148,1151.5 316.3273,1151.3125 Q315.9992,1150.9375 315.3898,1150.7188 Q314.7805,1150.5 314.1555,1150.5 Q313.3898,1150.5 312.7492,1150.8281 Q312.1242,1151.1563 311.6242,1151.9063 Q311.1398,1152.6563 311.1398,1153.6875 L311.1398,1154.7813 Q311.1398,1156.0156 312.0305,1156.8438 Q312.9211,1157.6563 314.5148,1157.6563 Q315.4523,1157.6563 316.1086,1157.4063 Q316.4992,1157.25 316.9211,1156.8125 Q317.1867,1156.5469 317.3273,1156.4688 Q317.4836,1156.3906 317.6867,1156.3906 Q318.0148,1156.3906 318.2648,1156.6563 Q318.5305,1156.9063 318.5305,1157.25 Q318.5305,1157.5938 318.1867,1158 Q317.6867,1158.5781 316.8898,1158.9063 Q315.8117,1159.3594 314.5148,1159.3594 Q312.9992,1159.3594 311.7961,1158.7344 Q310.8117,1158.2344 310.1242,1157.1719 Q309.4367,1156.0938 309.4367,1154.8125 L309.4367,1153.6563 Q309.4367,1152.3281 310.0461,1151.1875 Q310.6711,1150.0313 311.7648,1149.4219 Q312.8586,1148.7969 314.093,1148.7969 Q314.8273,1148.7969 315.468,1148.9688 Q316.1242,1149.125 316.6711,1149.4844 Z " fill="#000000"/><text fill="#000000" font-family="sans-serif" font-size="14" lengthAdjust="spacing" textLength="87.9307" x="329.3289" y="1159.3379">StockMagasin</text><line style="stroke:#181818;stroke-width:0.5;" x1="293.5" x2="425.665" y1="1169.6094" y2="1169.6094"/><rect fill="none" height="6" style="stroke:#C82930;stroke-width:1;" width="6" x="300.5" y="1180.9141"/><text fill="#000000" font-family="sans-serif" font-size="14" lengthAdjust="spacing" textLength="37.3516" x="312.5" y="1188.1426">id : int</text><rect fill="none" height="6" style="stroke:#C82930;stroke-width:1;" width="6" x="300.5" y="1198.5234"/><text fill="#000000" font-family="sans-serif" font-size="14" lengthAdjust="spacing" textLength="76.2754" x="312.5" y="1205.752">quantite : int</text><line style="stroke:#181818;stroke-width:1;" x1="293.5" x2="425.665" y1="1212.8281" y2="1212.8281"/><ellipse cx="303.5" cy="1227.1328" fill="#84BE84" rx="3" ry="3" style="stroke:#038048;stroke-width:1;"/><text fill="#000000" font-family="sans-serif" font-size="14" lengthAdjust="spacing" textLength="66.917" x="312.5" y="1231.3613">getId() : int</text><ellipse cx="303.5" cy="1244.7422" fill="#84BE84" rx="3" ry="3" style="stroke:#038048;stroke-width:1;"/><text fill="#000000" font-family="sans-serif" font-size="14" lengthAdjust="spacing" textLength="108.165" x="312.5" y="1248.9707">getQuantite() : int</text></g><!--class StockCentral--><g class="entity" data-entity="StockCentral" data-source-line="81" data-uid="ent0010" id="entity_StockCentral"><rect fill="#F1F1F1" height="153.6563" rx="2.5" ry="2.5" style="stroke:#181818;stroke-width:0.5;" width="219.7715" x="371.5" y="473.6094"/><ellipse cx="437.0635" cy="489.6094" fill="#ADD1B2" rx="11" ry="11" style="stroke:#181818;stroke-width:1;"/><path d="M439.8291,485.4844 Q439.9854,485.2656 440.1729,485.1563 Q440.3604,485.0469 440.5791,485.0469 Q440.9541,485.0469 441.1885,485.3125 Q441.4229,485.5625 441.4229,486.1719 L441.4229,487.625 Q441.4229,488.2344 441.1885,488.5 Q440.9541,488.7656 440.5791,488.7656 Q440.2354,488.7656 440.0322,488.5625 Q439.8291,488.375 439.7197,487.8594 Q439.6729,487.5 439.4854,487.3125 Q439.1572,486.9375 438.5479,486.7188 Q437.9385,486.5 437.3135,486.5 Q436.5479,486.5 435.9072,486.8281 Q435.2822,487.1563 434.7822,487.9063 Q434.2979,488.6563 434.2979,489.6875 L434.2979,490.7813 Q434.2979,492.0156 435.1885,492.8438 Q436.0791,493.6563 437.6729,493.6563 Q438.6104,493.6563 439.2666,493.4063 Q439.6572,493.25 440.0791,492.8125 Q440.3447,492.5469 440.4854,492.4688 Q440.6416,492.3906 440.8447,492.3906 Q441.1729,492.3906 441.4229,492.6563 Q441.6885,492.9063 441.6885,493.25 Q441.6885,493.5938 441.3447,494 Q440.8447,494.5781 440.0479,494.9063 Q438.9697,495.3594 437.6729,495.3594 Q436.1572,495.3594 434.9541,494.7344 Q433.9697,494.2344 433.2822,493.1719 Q432.5947,492.0938 432.5947,490.8125 L432.5947,489.6563 Q432.5947,488.3281 433.2041,487.1875 Q433.8291,486.0313 434.9229,485.4219 Q436.0166,484.7969 437.251,484.7969 Q437.9854,484.7969 438.626,484.9688 Q439.2822,485.125 439.8291,485.4844 Z " fill="#000000"/><text fill="#000000" font-family="sans-serif" font-size="14" lengthAdjust="spacing" textLength="80.1445" x="457.5635" y="495.3379">StockCentral</text><line style="stroke:#181818;stroke-width:0.5;" x1="372.5" x2="590.2715" y1="505.6094" y2="505.6094"/><rect fill="none" height="6" style="stroke:#C82930;stroke-width:1;" width="6" x="379.5" y="516.9141"/><text fill="#000000" font-family="sans-serif" font-size="14" lengthAdjust="spacing" textLength="37.3516" x="391.5" y="524.1426">id : int</text><rect fill="none" height="6" style="stroke:#C82930;stroke-width:1;" width="6" x="379.5" y="534.5234"/><text fill="#000000" font-family="sans-serif" font-size="14" lengthAdjust="spacing" textLength="144.7646" x="391.5" y="541.752">quantiteDemandee : int</text><rect fill="none" height="6" style="stroke:#C82930;stroke-width:1;" width="6" x="379.5" y="552.1328"/><text fill="#000000" font-family="sans-serif" font-size="14" lengthAdjust="spacing" textLength="162.6611" x="391.5" y="559.3613">dateDemande : LocalDate</text><line style="stroke:#181818;stroke-width:1;" x1="372.5" x2="590.2715" y1="566.4375" y2="566.4375"/><ellipse cx="382.5" cy="580.7422" fill="#84BE84" rx="3" ry="3" style="stroke:#038048;stroke-width:1;"/><text fill="#000000" font-family="sans-serif" font-size="14" lengthAdjust="spacing" textLength="66.917" x="391.5" y="584.9707">getId() : int</text><ellipse cx="382.5" cy="598.3516" fill="#84BE84" rx="3" ry="3" style="stroke:#038048;stroke-width:1;"/><text fill="#000000" font-family="sans-serif" font-size="14" lengthAdjust="spacing" textLength="176.6543" x="391.5" y="602.5801">getQuantiteDemandee() : int</text><ellipse cx="382.5" cy="615.9609" fill="#84BE84" rx="3" ry="3" style="stroke:#038048;stroke-width:1;"/><text fill="#000000" font-family="sans-serif" font-size="14" lengthAdjust="spacing" textLength="193.7715" x="391.5" y="620.1895">getDateDemande() : LocalDate</text></g><!--link Employe to Vente--><g class="link" data-entity-1="Employe" data-entity-2="Vente" data-source-line="94" data-uid="lnk11" id="link_Employe_Vente"><path codeLine="94" d="M216.69,199.6294 C233.96,264.0994 253.86,359.2594 249.5,443.6094 C249,453.3094 248.7693,457.5128 247.8793,467.5628" fill="none" id="Employe-to-Vente" style="stroke:#181818;stroke-width:1;"/><polygon fill="#181818" points="247.35,473.5394,252.1283,464.9273,247.7911,468.5589,244.1595,464.2216,247.35,473.5394" style="stroke:#181818;stroke-width:1;"/><polygon fill="#000000" points="256.0781,341.7516,257.9515,332.4274,252.1131,333.107,256.0781,341.7516" style="stroke:#000000;stroke-width:1;"/><text fill="#000000" font-family="sans-serif" font-size="13" lengthAdjust="spacing" textLength="46.2554" x="264.5" y="342.1045">effectue</text><text fill="#000000" font-family="sans-serif" font-size="13" lengthAdjust="spacing" textLength="7.23" x="211.4607" y="220.7275">1</text><text fill="#000000" font-family="sans-serif" font-size="13" lengthAdjust="spacing" textLength="5.0591" x="242.995" y="462.6946">*</text></g><!--link Employe to Retour--><g class="link" data-entity-1="Employe" data-entity-2="Retour" data-source-line="95" data-uid="lnk12" id="link_Employe_Retour"><path codeLine="95" d="M162.57,199.8494 C152.22,225.3694 143.1068,247.84 133.3968,271.76" fill="none" id="Employe-to-Retour" style="stroke:#181818;stroke-width:1;"/><polygon fill="#181818" points="131.14,277.3194,138.2314,270.4848,133.0206,272.6865,130.8189,267.4758,131.14,277.3194" style="stroke:#181818;stroke-width:1;"/><polygon fill="#000000" points="153.6204,243.4184,159.744,236.1416,154.2973,233.932,153.6204,243.4184" style="stroke:#000000;stroke-width:1;"/><text fill="#000000" font-family="sans-serif" font-size="13" lengthAdjust="spacing" textLength="28.9009" x="164.5" y="244.1045">traite</text><text fill="#000000" font-family="sans-serif" font-size="13" lengthAdjust="spacing" textLength="7.23" x="152.6276" y="220.6997">1</text><text fill="#000000" font-family="sans-serif" font-size="13" lengthAdjust="spacing" textLength="5.0591" x="128.7146" y="266.6083">*</text></g><!--link Vente to Magasin--><g class="link" data-entity-1="Vente" data-entity-2="Magasin" data-source-line="98" data-uid="lnk13" id="link_Vente_Magasin"><path codeLine="98" d="M276.22,627.6694 C280.62,637.6394 284.83,647.7894 288.5,657.6094 C306.52,705.8594 320.7317,755.7969 331.9517,799.6169" fill="none" id="Vente-to-Magasin" style="stroke:#181818;stroke-width:1;"/><polygon fill="#181818" points="333.44,805.4294,335.0826,795.7185,332.1998,800.5856,327.3326,797.7028,333.44,805.4294" style="stroke:#181818;stroke-width:1;"/><polygon fill="#000000" points="332.0416,721.5416,332.0485,712.031,326.457,713.8433,332.0416,721.5416" style="stroke:#000000;stroke-width:1;"/><text fill="#000000" font-family="sans-serif" font-size="13" lengthAdjust="spacing" textLength="20.2363" x="339.5" y="722.1045">lieu</text><text fill="#000000" font-family="sans-serif" font-size="13" lengthAdjust="spacing" textLength="5.0591" x="274.3748" y="648.7711">*</text><text fill="#000000" font-family="sans-serif" font-size="13" lengthAdjust="spacing" textLength="7.23" x="324.4151" y="794.8389">1</text></g><!--link Retour to Vente--><g class="link" data-entity-1="Retour" data-entity-2="Vente" data-source-line="101" data-uid="lnk14" id="link_Retour_Vente"><path codeLine="101" d="M143.47,395.8194 C158.24,419.7194 172.385,442.6258 188.155,468.1358" fill="none" id="Retour-to-Vente" style="stroke:#181818;stroke-width:1;"/><polygon fill="#181818" points="191.31,473.2394,189.9799,463.4807,188.6809,468.9864,183.1752,467.6874,191.31,473.2394" style="stroke:#181818;stroke-width:1;"/><polygon fill="#000000" points="181.1283,439.0386,178.8738,429.7992,173.8735,432.8889,181.1283,439.0386" style="stroke:#000000;stroke-width:1;"/><text fill="#000000" font-family="sans-serif" font-size="13" lengthAdjust="spacing" textLength="53.479" x="187.5" y="440.1045">concerne</text><text fill="#000000" font-family="sans-serif" font-size="13" lengthAdjust="spacing" textLength="7.23" x="140.4359" y="417.5005">1</text><text fill="#000000" font-family="sans-serif" font-size="13" lengthAdjust="spacing" textLength="7.23" x="179.506" y="462.6308">1</text></g><!--reverse link Vente to VenteProduit--><g class="link" data-entity-1="Vente" data-entity-2="VenteProduit" data-source-line="104" data-uid="lnk15" id="link_Vente_VenteProduit"><path codeLine="104" d="M222.3046,639.7147 C220.8546,649.6947 221.34,647.9394 220.5,657.6094 C210.3,774.9794 213.04,912.9694 215.85,989.3294" fill="none" id="Vente-backto-VenteProduit" style="stroke:#181818;stroke-width:1;"/><polygon fill="#181818" points="224.03,627.8394,219.2089,633.2019,222.3046,639.7147,227.1258,634.3522,224.03,627.8394" style="stroke:#181818;stroke-width:1;"/><polygon fill="#000000" points="225.4077,721.7843,228.5131,712.795,222.6362,712.6865,225.4077,721.7843" style="stroke:#000000;stroke-width:1;"/><text fill="#000000" font-family="sans-serif" font-size="13" lengthAdjust="spacing" textLength="45.5317" x="234.5" y="722.1045">contient</text><text fill="#000000" font-family="sans-serif" font-size="13" lengthAdjust="spacing" textLength="7.23" x="215.5104" y="648.6888">1</text><text fill="#000000" font-family="sans-serif" font-size="13" lengthAdjust="spacing" textLength="5.0591" x="210.2159" y="978.6195">*</text></g><!--reverse link Retour to RetourProduit--><g class="link" data-entity-1="Retour" data-entity-2="RetourProduit" data-source-line="107" data-uid="lnk16" id="link_Retour_RetourProduit"><path codeLine="107" d="M98.9013,407.7042 C97.8613,417.6442 98.16,415.9494 97.5,425.6094 C91.98,505.8694 90.62,598.8894 90.38,657.4894" fill="none" id="Retour-backto-RetourProduit" style="stroke:#181818;stroke-width:1;"/><polygon fill="#181818" points="100.15,395.7694,95.5474,401.3206,98.9013,407.7042,103.5039,402.153,100.15,395.7694" style="stroke:#181818;stroke-width:1;"/><polygon fill="#000000" points="102.3295,439.7822,105.5751,430.8426,99.7007,430.6422,102.3295,439.7822" style="stroke:#000000;stroke-width:1;"/><text fill="#000000" font-family="sans-serif" font-size="13" lengthAdjust="spacing" textLength="45.5317" x="111.5" y="440.1045">contient</text><text fill="#000000" font-family="sans-serif" font-size="13" lengthAdjust="spacing" textLength="7.23" x="91.8363" y="417.4444">1</text><text fill="#000000" font-family="sans-serif" font-size="13" lengthAdjust="spacing" textLength="5.0591" x="85.0542" y="646.799">*</text></g><!--link VenteProduit to Produit--><g class="link" data-entity-1="VenteProduit" data-entity-2="Produit" data-source-line="110" data-uid="lnk17" id="link_VenteProduit_Produit"><path codeLine="110" d="M219.16,1107.7894 C220.49,1149.3094 224.1,1206.2994 233.5,1255.6094 C237.28,1275.4394 240.9097,1290.4395 246.7297,1310.3895" fill="none" id="VenteProduit-to-Produit" style="stroke:#181818;stroke-width:1;"/><polygon fill="#181818" points="248.41,1316.1494,249.7294,1306.3893,247.0097,1311.3495,242.0496,1308.6297,248.41,1316.1494" style="stroke:#181818;stroke-width:1;"/><polygon fill="#000000" points="239.1742,1201.7395,240.8667,1192.3807,235.0425,1193.1733,239.1742,1201.7395" style="stroke:#000000;stroke-width:1;"/><text fill="#000000" font-family="sans-serif" font-size="13" lengthAdjust="spacing" textLength="26.7363" x="247.5" y="1202.1045">cible</text><text fill="#000000" font-family="sans-serif" font-size="13" lengthAdjust="spacing" textLength="5.0591" x="213.9293" y="1129.4668">*</text><text fill="#000000" font-family="sans-serif" font-size="13" lengthAdjust="spacing" textLength="7.23" x="238.6976" y="1305.9358">1</text></g><!--link RetourProduit to Produit--><g class="link" data-entity-1="RetourProduit" data-entity-2="Produit" data-source-line="111" data-uid="lnk18" id="link_RetourProduit_Produit"><path codeLine="111" d="M81.27,775.7994 C71.12,853.2194 60.19,993.6094 92.5,1107.6094 C114.9,1186.6294 159.1429,1260.6568 201.7729,1320.3468" fill="none" id="RetourProduit-to-Produit" style="stroke:#181818;stroke-width:1;"/><polygon fill="#181818" points="205.26,1325.2294,203.2844,1315.5807,202.3541,1321.1605,196.7742,1320.2302,205.26,1325.2294" style="stroke:#181818;stroke-width:1;"/><polygon fill="#000000" points="98.5803,1053.6671,99.4955,1044.2006,93.7565,1045.4706,98.5803,1053.6671" style="stroke:#000000;stroke-width:1;"/><text fill="#000000" font-family="sans-serif" font-size="13" lengthAdjust="spacing" textLength="26.7363" x="106.5" y="1054.1045">cible</text><text fill="#000000" font-family="sans-serif" font-size="13" lengthAdjust="spacing" textLength="5.0591" x="74.8339" y="797.478">*</text><text fill="#000000" font-family="sans-serif" font-size="13" lengthAdjust="spacing" textLength="7.23" x="190.3789" y="1312.4685">1</text></g><!--link Magasin to StockMagasin--><g class="link" data-entity-1="Magasin" data-entity-2="StockMagasin" data-source-line="114" data-uid="lnk19" id="link_Magasin_StockMagasin"><path codeLine="114" d="M353.46,959.9294 C354.86,1014.5994 356.5667,1081.1013 357.8467,1131.1813" fill="none" id="Magasin-to-StockMagasin" style="stroke:#181818;stroke-width:1;"/><polygon fill="#181818" points="358,1137.1794,361.7687,1128.0801,357.8722,1132.181,353.7713,1128.2845,358,1137.1794" style="stroke:#181818;stroke-width:1;"/><polygon fill="#000000" points="362.628,1053.7835,365.3344,1044.6661,359.4585,1044.8167,362.628,1053.7835" style="stroke:#000000;stroke-width:1;"/><text fill="#000000" font-family="sans-serif" font-size="13" lengthAdjust="spacing" textLength="49.1499" x="371.5" y="1054.1045">poss&#232;de</text><text fill="#000000" font-family="sans-serif" font-size="13" lengthAdjust="spacing" textLength="7.23" x="346.3547" y="980.7866">1</text><text fill="#000000" font-family="sans-serif" font-size="13" lengthAdjust="spacing" textLength="5.0591" x="352.5314" y="1126.8729">*</text></g><!--link StockMagasin to Produit--><g class="link" data-entity-1="StockMagasin" data-entity-2="Produit" data-source-line="117" data-uid="lnk20" id="link_StockMagasin_Produit"><path codeLine="117" d="M341.33,1255.6494 C335.54,1274.1494 330.7238,1289.5438 324.1538,1310.5138" fill="none" id="StockMagasin-to-Produit" style="stroke:#181818;stroke-width:1;"/><polygon fill="#181818" points="322.36,1316.2394,328.8678,1308.8469,323.8549,1311.4681,321.2337,1306.4551,322.36,1316.2394" style="stroke:#181818;stroke-width:1;"/><text fill="#000000" font-family="sans-serif" font-size="13" lengthAdjust="spacing" textLength="5.0591" x="333.6749" y="1277.7285">*</text><text fill="#000000" font-family="sans-serif" font-size="13" lengthAdjust="spacing" textLength="7.23" x="317.4838" y="1305.6558">1</text></g><!--link StockCentral to Produit--><g class="link" data-entity-1="StockCentral" data-entity-2="Produit" data-source-line="120" data-uid="lnk21" id="link_StockCentral_Produit"><path codeLine="120" d="M493.43,627.6894 C510.9,760.8794 532.46,1042.3994 443.5,1255.6094 C427.28,1294.4894 402.5323,1326.0364 373.9223,1354.7864" fill="none" id="StockCentral-to-Produit" style="stroke:#181818;stroke-width:1;"/><polygon fill="#181818" points="369.69,1359.0394,378.8737,1355.4814,373.2169,1355.4952,373.2031,1349.8384,369.69,1359.0394" style="stroke:#181818;stroke-width:1;"/><text fill="#000000" font-family="sans-serif" font-size="13" lengthAdjust="spacing" textLength="5.0591" x="489.2827" y="648.7929">*</text><text fill="#000000" font-family="sans-serif" font-size="13" lengthAdjust="spacing" textLength="7.23" x="377.344" y="1349.6374">1</text></g><!--link StockCentral to Magasin--><g class="link" data-entity-1="StockCentral" data-entity-2="Magasin" data-source-line="121" data-uid="lnk22" id="link_StockCentral_Magasin"><path codeLine="121" d="M451.51,627.7294 C430.48,681.1194 404.6687,746.6268 383.6487,799.9968" fill="none" id="StockCentral-to-Magasin" style="stroke:#181818;stroke-width:1;"/><polygon fill="#181818" points="381.45,805.5794,388.4698,798.6713,383.2823,800.9272,381.0264,795.7396,381.45,805.5794" style="stroke:#181818;stroke-width:1;"/><text fill="#000000" font-family="sans-serif" font-size="13" lengthAdjust="spacing" textLength="5.0591" x="443.6292" y="648.8365">*</text><text fill="#000000" font-family="sans-serif" font-size="13" lengthAdjust="spacing" textLength="7.23" x="377.0847" y="794.7386">1</text></g><!--SRC=[jLLBRjim4Dth50DlOgSmYcmDs9iuYm99aK-HhcbfB12bI4MaYXP5xz9bVGvTh4EAb4LLLcEqtHWmtyoRDryPRWJ2bhEyOaM1a26aWccDi8GxbZFD9Np47SoVQmIXSlvIuo99Bc2zNiEDDDmq1mrbnMNAIoPGMo1970VS5ALGNn6-9K1qF8CLS6dS7waA-lTao37tA1BRdZDf8c19FsyWH_Ckcoyw0lVoNXNkgJFsTXtHVD61tuEcaDHhDBtKh38SgxyJzE1P-b0dvxvIMStDg-Iap62kAexnCnN_2xtiXM8coBQDmIFNsPglGwWHx9xYkUSGCMJfWdRyNOhFr8_H6SWeI0kku5QbJ6pfmI65aeReFYZ3H3-rYJosWSm1VJe7t_KOU-9ZaHFDEAkcfslnY4RLrQbYU7HGZJyatJeDiXu4_F-9FHcLVfhOhNyPvffwLT5WJ8JPOi5aXZWei7y-ey8F0yAn3dZiznQqL_8H1JDSIMsFwuxHQNKdyiAVn-O0LNDWWXFmsKwX1ZHGkRxf99pGsTMCT6vWTZc3i3EutsDgw2vlHiswQQ9YsSflRCpML_3cWD3yW5f2qJOjQH7hw0Y8ABHpHVPOj_wUr1Aq_bvque5EmDLHPwfaYfMC55mkb_7EpLDLb4fpMwb544Carh1BEXWxJhgfzAtegxAsyS37h3sDWJOs7_BUyboYwvjByctRbIuXCgC2bgrp4Ydirx77pdV2bY6EEcrBCa8Zc0sdxGhGfvZcB0b0l-tH9gw0ijVDpymp1VgIHavR_HcZkUnJHkuZoYoBiu7Kh-7AJK7cLuksLANqYJeMPZ1dqGgF1JXfu5Kblm00]--></g></svg>