<svg xmlns="http://www.w3.org/2000/svg" xmlns:xlink="http://www.w3.org/1999/xlink" contentStyleType="text/css" data-diagram-type="DESCRIPTION" height="520px" preserveAspectRatio="none" style="width:523px;height:520px;background:#FFFFFF;" version="1.1" viewBox="0 0 523 520" width="523px" zoomAndPan="magnify"><title>Diagramme de d&#233;ploiement - Application Web (Spring Boot + PostgreSQL)</title><defs/><g><text fill="#000000" font-family="sans-serif" font-size="14" font-weight="bold" lengthAdjust="spacing" textLength="495.0996" x="10" y="24.5332">Diagramme de d&#233;ploiement - Application Web (Spring Boot + PostgreSQL)</text><!--cluster Client (navigateur Web)--><g class="cluster" data-entity="Client (navigateur Web)" data-source-line="4" data-uid="ent0002" id="cluster_Client (navigateur Web)"><polygon fill="none" points="123.5498,54.6094,133.5498,44.6094,355.5498,44.6094,355.5498,167.6094,345.5498,177.6094,123.5498,177.6094,123.5498,54.6094" style="stroke:#181818;stroke-width:1;"/><line style="stroke:#181818;stroke-width:1;" x1="345.5498" x2="355.5498" y1="54.6094" y2="44.6094"/><line style="stroke:#181818;stroke-width:1;" x1="123.5498" x2="345.5498" y1="54.6094" y2="54.6094"/><line style="stroke:#181818;stroke-width:1;" x1="345.5498" x2="345.5498" y1="54.6094" y2="177.6094"/><text fill="#000000" font-family="sans-serif" font-size="14" font-weight="bold" lengthAdjust="spacing" textLength="156.3447" x="157.3774" y="72.1426">Client (navigateur Web)</text></g><!--cluster Serveur applicatif (Docker - Spring Boot)--><g class="cluster" data-entity="Serveur applicatif (Docker - Spring Boot)" data-source-line="9" data-uid="ent0004" id="cluster_Serveur applicatif (Docker - Spring Boot)"><polygon fill="none" points="105.5498,237.6094,115.5498,227.6094,451.5498,227.6094,451.5498,339.6094,441.5498,349.6094,105.5498,349.6094,105.5498,237.6094" style="stroke:#181818;stroke-width:1;"/><line style="stroke:#181818;stroke-width:1;" x1="441.5498" x2="451.5498" y1="237.6094" y2="227.6094"/><line style="stroke:#181818;stroke-width:1;" x1="105.5498" x2="441.5498" y1="237.6094" y2="237.6094"/><line style="stroke:#181818;stroke-width:1;" x1="441.5498" x2="441.5498" y1="237.6094" y2="349.6094"/><text fill="#000000" font-family="sans-serif" font-size="14" font-weight="bold" lengthAdjust="spacing" textLength="270.71" x="139.1948" y="255.1426">Serveur applicatif (Docker - Spring Boot)</text></g><!--cluster Serveur BD (Docker - PostgreSQL)--><g class="cluster" data-entity="Serveur BD (Docker - PostgreSQL)" data-source-line="14" data-uid="ent0006" id="cluster_Serveur BD (Docker - PostgreSQL)"><polygon fill="none" points="76.5498,409.6094,86.5498,399.6094,382.5498,399.6094,382.5498,493.6094,372.5498,503.6094,76.5498,503.6094,76.5498,409.6094" style="stroke:#181818;stroke-width:1;"/><line style="stroke:#181818;stroke-width:1;" x1="372.5498" x2="382.5498" y1="409.6094" y2="399.6094"/><line style="stroke:#181818;stroke-width:1;" x1="76.5498" x2="372.5498" y1="409.6094" y2="409.6094"/><line style="stroke:#181818;stroke-width:1;" x1="372.5498" x2="372.5498" y1="409.6094" y2="503.6094"/><text fill="#000000" font-family="sans-serif" font-size="14" font-weight="bold" lengthAdjust="spacing" textLength="230.2822" x="110.4087" y="427.1426">Serveur BD (Docker - PostgreSQL)</text></g><!--entity Interface utilisateur\nHTML + JavaScript\n(Thymeleaf/AJAX)--><g class="entity" data-entity="Interface utilisateur\nHTML + JavaScript\n(Thymeleaf/AJAX)" data-source-line="5" data-uid="ent0003" id="entity_Interface utilisateur\nHTML + JavaScript\n(Thymeleaf/AJAX)"><rect fill="#F1F1F1" height="75.8281" rx="2.5" ry="2.5" style="stroke:#181818;stroke-width:0.5;" width="149.4238" x="155.0498" y="85.6094"/><polygon fill="#F1F1F1" points="287.4736,90.6094,287.4736,104.6094,299.4736,104.6094,299.4736,96.6094,293.4736,90.6094,287.4736,90.6094" style="stroke:#181818;stroke-width:0.5;"/><line style="stroke:#181818;stroke-width:0.5;" x1="293.4736" x2="293.4736" y1="90.6094" y2="96.6094"/><line style="stroke:#181818;stroke-width:0.5;" x1="299.4736" x2="293.4736" y1="96.6094" y2="96.6094"/><text fill="#000000" font-family="sans-serif" font-size="14" lengthAdjust="spacing" textLength="118.2822" x="165.0498" y="113.1426">Interface utilisateur</text><text fill="#000000" font-family="sans-serif" font-size="14" lengthAdjust="spacing" textLength="119.4238" x="165.0498" y="130.752">HTML + JavaScript</text><text fill="#000000" font-family="sans-serif" font-size="14" lengthAdjust="spacing" textLength="113.5859" x="165.0498" y="148.3613">(Thymeleaf/AJAX)</text></g><!--entity Application Web\n(Spring Boot MVC)--><g class="entity" data-entity="Application Web\n(Spring Boot MVC)" data-source-line="10" data-uid="ent0005" id="entity_Application Web\n(Spring Boot MVC)"><rect fill="#F1F1F1" height="65.2188" rx="2.5" ry="2.5" style="stroke:#181818;stroke-width:0.5;" width="157.4824" x="151.0498" y="268.6094"/><rect fill="#F1F1F1" height="10" style="stroke:#181818;stroke-width:0.5;" width="15" x="288.5322" y="273.6094"/><rect fill="#F1F1F1" height="2" style="stroke:#181818;stroke-width:0.5;" width="4" x="286.5322" y="275.6094"/><rect fill="#F1F1F1" height="2" style="stroke:#181818;stroke-width:0.5;" width="4" x="286.5322" y="279.6094"/><text fill="#000000" font-family="sans-serif" font-size="14" lengthAdjust="spacing" textLength="101.165" x="166.0498" y="303.1426">Application Web</text><text fill="#000000" font-family="sans-serif" font-size="14" lengthAdjust="spacing" textLength="117.4824" x="166.0498" y="320.752">(Spring Boot MVC)</text></g><!--entity Base de donn?es PostgreSQL--><g class="entity" data-entity="Base de donn&#233;es PostgreSQL" data-source-line="15" data-uid="ent0007" id="entity_Base de donn&#233;es PostgreSQL"><path d="M125.0498,450.6094 C125.0498,440.6094 229.6147,440.6094 229.6147,440.6094 C229.6147,440.6094 334.1797,440.6094 334.1797,450.6094 L334.1797,477.2188 C334.1797,487.2188 229.6147,487.2188 229.6147,487.2188 C229.6147,487.2188 125.0498,487.2188 125.0498,477.2188 L125.0498,450.6094" fill="#F1F1F1" style="stroke:#181818;stroke-width:0.5;"/><path d="M125.0498,450.6094 C125.0498,460.6094 229.6147,460.6094 229.6147,460.6094 C229.6147,460.6094 334.1797,460.6094 334.1797,450.6094" fill="none" style="stroke:#181818;stroke-width:0.5;"/><text fill="#000000" font-family="sans-serif" font-size="14" lengthAdjust="spacing" textLength="189.1299" x="135.0498" y="479.1426">Base de donn&#233;es PostgreSQL</text></g><!--link Interface utilisateur\nHTML + JavaScript\n(Thymeleaf/AJAX) to Application Web\n(Spring Boot MVC)--><g class="link" data-entity-1="Interface utilisateur\nHTML + JavaScript\n(Thymeleaf/AJAX)" data-entity-2="Application Web\n(Spring Boot MVC)" data-source-line="19" data-uid="lnk8" id="link_Interface utilisateur\nHTML + JavaScript\n(Thymeleaf/AJAX)_Application Web\n(Spring Boot MVC)"><path d="M229.5498,161.8294 C229.5498,193.5194 229.5498,232.5594 229.5498,262.5294" fill="none" id="Interface utilisateur\nHTML + JavaScript\n(Thymeleaf/AJAX)-to-Application Web\n(Spring Boot MVC)" style="stroke:#181818;stroke-width:1;"/><polygon fill="#181818" points="229.5498,268.5294,233.5498,259.5294,229.5498,263.5294,225.5498,259.5294,229.5498,268.5294" style="stroke:#181818;stroke-width:1;"/><text fill="#000000" font-family="sans-serif" font-size="13" lengthAdjust="spacing" textLength="171.2026" x="230.5498" y="208.1045">Requ&#234;tes HTTP (GET/POST)</text></g><!--link Application Web\n(Spring Boot MVC) to Base de donn?es PostgreSQL--><g class="link" data-entity-1="Application Web\n(Spring Boot MVC)" data-entity-2="Base de donn&#233;es PostgreSQL" data-source-line="21" data-uid="lnk9" id="link_Application Web\n(Spring Boot MVC)_Base de donn&#233;es PostgreSQL"><path d="M229.5498,333.9194 C229.5498,365.2594 229.5498,406.3694 229.5498,434.2094" fill="none" id="Application Web\n(Spring Boot MVC)-to-Base de donn&#233;es PostgreSQL" style="stroke:#181818;stroke-width:1;"/><polygon fill="#181818" points="229.5498,440.2094,233.5498,431.2094,229.5498,435.2094,225.5498,431.2094,229.5498,440.2094" style="stroke:#181818;stroke-width:1;"/><text fill="#000000" font-family="sans-serif" font-size="13" lengthAdjust="spacing" textLength="142.3208" x="230.5498" y="380.1045">JDBC (Spring Data JPA)</text></g><!--SRC=[fPBDJeD058NtFCKD6o66T6zI4oZ6Ibf58UgYcrjwYnE76Ho66cDyeFeQVJ47Y4f_OfgOp68MPyvtpW7DD2S86UOAYu9WOSvcNNB9g22XmGE_B3dBK3Cfu87cu2IbOYA7G4eDfn3BIkUAajk9QradC1mEuLfIlO2CiyR04RXYEMgg5RpIt6qKbf26Ou_s5GRWsl1k0Q3IR8cP1ljAQ5BcIb1hnbdLAcTYd4udXX_X2fDCiLBFX9C-lHN42PS3F_8VNTlwsCvKaLer6FpkjDogqm-N7926CdicPJRfl-dYPh8efMZgs3k3cLZznQRte_rSSwowwQKGcpLL1t84OO_V6xt3Br1ZQs87krQ_sXxsZdWRi2FzPsBmlFEZEiEPeRxKcqzjGetJD0RdyY8Tn3T9QlwSennQr5y53ICAWz7FHmtDB135lcjz0G00]--></g></svg>