<svg xmlns="http://www.w3.org/2000/svg" xmlns:xlink="http://www.w3.org/1999/xlink" contentStyleType="text/css" data-diagram-type="SEQUENCE" height="1117px" preserveAspectRatio="none" style="width:1367px;height:1117px;background:#FFFFFF;" version="1.1" viewBox="0 0 1367 1117" width="1367px" zoomAndPan="magnify"><title>DSS - G&#233;rer un retour (Spring Boot Web)</title><defs/><g><text fill="#000000" font-family="sans-serif" font-size="14" font-weight="bold" lengthAdjust="spacing" textLength="270.6689" x="544.4607" y="29.5332">DSS - G&#233;rer un retour (Spring Boot Web)</text><g><title>Employe</title><rect fill="#000000" fill-opacity="0.00000" height="914.1953" width="8" x="31.2344" y="121.2188"/><line style="stroke:#181818;stroke-width:0.5;stroke-dasharray:5.0,5.0;" x1="35" x2="35" y1="121.2188" y2="1035.4141"/></g><g><title>Navigateur Web (Thymeleaf)</title><rect fill="#000000" fill-opacity="0.00000" height="914.1953" width="8" x="305.6431" y="121.2188"/><line style="stroke:#181818;stroke-width:0.5;stroke-dasharray:5.0,5.0;" x1="309.1675" x2="309.1675" y1="121.2188" y2="1035.4141"/></g><g><title>RetourController</title><rect fill="#000000" fill-opacity="0.00000" height="914.1953" width="8" x="539.1665" y="121.2188"/><line style="stroke:#181818;stroke-width:0.5;stroke-dasharray:5.0,5.0;" x1="542.8115" x2="542.8115" y1="121.2188" y2="1035.4141"/></g><g><title>RetourService</title><rect fill="#000000" fill-opacity="0.00000" height="914.1953" width="8" x="795.8271" y="121.2188"/><line style="stroke:#181818;stroke-width:0.5;stroke-dasharray:5.0,5.0;" x1="799.4756" x2="799.4756" y1="121.2188" y2="1035.4141"/></g><g><title>VenteRepository</title><rect fill="#000000" fill-opacity="0.00000" height="914.1953" width="8" x="915.9302" y="121.2188"/><line style="stroke:#181818;stroke-width:0.5;stroke-dasharray:5.0,5.0;" x1="919.1787" x2="919.1787" y1="121.2188" y2="1035.4141"/></g><g><title>RetourRepository</title><rect fill="#000000" fill-opacity="0.00000" height="914.1953" width="8" x="1046.1504" y="121.2188"/><line style="stroke:#181818;stroke-width:0.5;stroke-dasharray:5.0,5.0;" x1="1049.6816" x2="1049.6816" y1="121.2188" y2="1035.4141"/></g><g><title>ProduitRepository</title><rect fill="#000000" fill-opacity="0.00000" height="914.1953" width="8" x="1180.2568" y="121.2188"/><line style="stroke:#181818;stroke-width:0.5;stroke-dasharray:5.0,5.0;" x1="1183.6191" x2="1183.6191" y1="121.2188" y2="1035.4141"/></g><g><title>PostgreSQL</title><rect fill="#000000" fill-opacity="0.00000" height="914.1953" width="8" x="1310.4595" y="121.2188"/><line style="stroke:#181818;stroke-width:0.5;stroke-dasharray:5.0,5.0;" x1="1314.3286" x2="1314.3286" y1="121.2188" y2="1035.4141"/></g><g class="participant participant-head" data-participant="Employe"><text fill="#000000" font-family="sans-serif" font-size="14" lengthAdjust="spacing" textLength="54.4688" x="5" y="118.1426">Employe</text><ellipse cx="35.2344" cy="52.1094" fill="#E2E2F0" rx="8" ry="8" style="stroke:#181818;stroke-width:0.5;"/><path d="M35.2344,60.1094 L35.2344,87.1094 M22.2344,68.1094 L48.2344,68.1094 M35.2344,87.1094 L22.2344,102.1094 M35.2344,87.1094 L48.2344,102.1094" fill="none" style="stroke:#181818;stroke-width:0.5;"/></g><g class="participant participant-tail" data-participant="Employe"><text fill="#000000" font-family="sans-serif" font-size="14" lengthAdjust="spacing" textLength="54.4688" x="5" y="1048.9473">Employe</text><ellipse cx="35.2344" cy="1060.5234" fill="#E2E2F0" rx="8" ry="8" style="stroke:#181818;stroke-width:0.5;"/><path d="M35.2344,1068.5234 L35.2344,1095.5234 M22.2344,1076.5234 L48.2344,1076.5234 M35.2344,1095.5234 L22.2344,1110.5234 M35.2344,1095.5234 L48.2344,1110.5234" fill="none" style="stroke:#181818;stroke-width:0.5;"/></g><g class="participant participant-head" data-participant="Vue"><rect fill="#E2E2F0" height="31.6094" rx="2.5" ry="2.5" style="stroke:#181818;stroke-width:0.5;" width="192.9512" x="213.1675" y="88.6094"/><text fill="#000000" font-family="sans-serif" font-size="14" lengthAdjust="spacing" textLength="178.9512" x="220.1675" y="110.1426">Navigateur Web (Thymeleaf)</text></g><g class="participant participant-tail" data-participant="Vue"><rect fill="#E2E2F0" height="31.6094" rx="2.5" ry="2.5" style="stroke:#181818;stroke-width:0.5;" width="192.9512" x="213.1675" y="1034.4141"/><text fill="#000000" font-family="sans-serif" font-size="14" lengthAdjust="spacing" textLength="178.9512" x="220.1675" y="1055.9473">Navigateur Web (Thymeleaf)</text></g><g class="participant participant-head" data-participant="Controller"><rect fill="#E2E2F0" height="31.6094" rx="2.5" ry="2.5" style="stroke:#181818;stroke-width:0.5;" width="116.71" x="484.8115" y="88.6094"/><text fill="#000000" font-family="sans-serif" font-size="14" lengthAdjust="spacing" textLength="102.71" x="491.8115" y="110.1426">RetourController</text></g><g class="participant participant-tail" data-participant="Controller"><rect fill="#E2E2F0" height="31.6094" rx="2.5" ry="2.5" style="stroke:#181818;stroke-width:0.5;" width="116.71" x="484.8115" y="1034.4141"/><text fill="#000000" font-family="sans-serif" font-size="14" lengthAdjust="spacing" textLength="102.71" x="491.8115" y="1055.9473">RetourController</text></g><g class="participant participant-head" data-participant="Service"><rect fill="#E2E2F0" height="31.6094" rx="2.5" ry="2.5" style="stroke:#181818;stroke-width:0.5;" width="102.7031" x="748.4756" y="88.6094"/><text fill="#000000" font-family="sans-serif" font-size="14" lengthAdjust="spacing" textLength="88.7031" x="755.4756" y="110.1426">RetourService</text></g><g class="participant participant-tail" data-participant="Service"><rect fill="#E2E2F0" height="31.6094" rx="2.5" ry="2.5" style="stroke:#181818;stroke-width:0.5;" width="102.7031" x="748.4756" y="1034.4141"/><text fill="#000000" font-family="sans-serif" font-size="14" lengthAdjust="spacing" textLength="88.7031" x="755.4756" y="1055.9473">RetourService</text></g><g class="participant participant-head" data-participant="VenteRepo"><rect fill="#E2E2F0" height="31.6094" rx="2.5" ry="2.5" style="stroke:#181818;stroke-width:0.5;" width="117.5029" x="861.1787" y="88.6094"/><text fill="#000000" font-family="sans-serif" font-size="14" lengthAdjust="spacing" textLength="103.5029" x="868.1787" y="110.1426">VenteRepository</text></g><g class="participant participant-tail" data-participant="VenteRepo"><rect fill="#E2E2F0" height="31.6094" rx="2.5" ry="2.5" style="stroke:#181818;stroke-width:0.5;" width="117.5029" x="861.1787" y="1034.4141"/><text fill="#000000" font-family="sans-serif" font-size="14" lengthAdjust="spacing" textLength="103.5029" x="868.1787" y="1055.9473">VenteRepository</text></g><g class="participant participant-head" data-participant="RetourRepo"><rect fill="#E2E2F0" height="31.6094" rx="2.5" ry="2.5" style="stroke:#181818;stroke-width:0.5;" width="122.9375" x="988.6816" y="88.6094"/><text fill="#000000" font-family="sans-serif" font-size="14" lengthAdjust="spacing" textLength="108.9375" x="995.6816" y="110.1426">RetourRepository</text></g><g class="participant participant-tail" data-participant="RetourRepo"><rect fill="#E2E2F0" height="31.6094" rx="2.5" ry="2.5" style="stroke:#181818;stroke-width:0.5;" width="122.9375" x="988.6816" y="1034.4141"/><text fill="#000000" font-family="sans-serif" font-size="14" lengthAdjust="spacing" textLength="108.9375" x="995.6816" y="1055.9473">RetourRepository</text></g><g class="participant participant-head" data-participant="ProduitRepo"><rect fill="#E2E2F0" height="31.6094" rx="2.5" ry="2.5" style="stroke:#181818;stroke-width:0.5;" width="125.2754" x="1121.6191" y="88.6094"/><text fill="#000000" font-family="sans-serif" font-size="14" lengthAdjust="spacing" textLength="111.2754" x="1128.6191" y="110.1426">ProduitRepository</text></g><g class="participant participant-tail" data-participant="ProduitRepo"><rect fill="#E2E2F0" height="31.6094" rx="2.5" ry="2.5" style="stroke:#181818;stroke-width:0.5;" width="125.2754" x="1121.6191" y="1034.4141"/><text fill="#000000" font-family="sans-serif" font-size="14" lengthAdjust="spacing" textLength="111.2754" x="1128.6191" y="1055.9473">ProduitRepository</text></g><g class="participant participant-head" data-participant="PostgreSQL"><text fill="#000000" font-family="sans-serif" font-size="14" lengthAdjust="spacing" textLength="76.2617" x="1273.3286" y="118.1426">PostgreSQL</text><path d="M1296.4595,67.6094 C1296.4595,57.6094 1314.4595,57.6094 1314.4595,57.6094 C1314.4595,57.6094 1332.4595,57.6094 1332.4595,67.6094 L1332.4595,93.6094 C1332.4595,103.6094 1314.4595,103.6094 1314.4595,103.6094 C1314.4595,103.6094 1296.4595,103.6094 1296.4595,93.6094 L1296.4595,67.6094" fill="#E2E2F0" style="stroke:#181818;stroke-width:1.5;"/><path d="M1296.4595,67.6094 C1296.4595,77.6094 1314.4595,77.6094 1314.4595,77.6094 C1314.4595,77.6094 1332.4595,77.6094 1332.4595,67.6094" fill="none" style="stroke:#181818;stroke-width:1.5;"/></g><g class="participant participant-tail" data-participant="PostgreSQL"><text fill="#000000" font-family="sans-serif" font-size="14" lengthAdjust="spacing" textLength="76.2617" x="1273.3286" y="1048.9473">PostgreSQL</text><path d="M1296.4595,1062.0234 C1296.4595,1052.0234 1314.4595,1052.0234 1314.4595,1052.0234 C1314.4595,1052.0234 1332.4595,1052.0234 1332.4595,1062.0234 L1332.4595,1088.0234 C1332.4595,1098.0234 1314.4595,1098.0234 1314.4595,1098.0234 C1314.4595,1098.0234 1296.4595,1098.0234 1296.4595,1088.0234 L1296.4595,1062.0234" fill="#E2E2F0" style="stroke:#181818;stroke-width:1.5;"/><path d="M1296.4595,1062.0234 C1296.4595,1072.0234 1314.4595,1072.0234 1314.4595,1072.0234 C1314.4595,1072.0234 1332.4595,1072.0234 1332.4595,1062.0234" fill="none" style="stroke:#181818;stroke-width:1.5;"/></g><rect fill="#EEEEEE" height="3" style="stroke:#EEEEEE;stroke-width:1;" width="1360.5903" x="0" y="152.3945"/><line style="stroke:#000000;stroke-width:1;" x1="0" x2="1360.5903" y1="152.3945" y2="152.3945"/><line style="stroke:#000000;stroke-width:1;" x1="0" x2="1360.5903" y1="155.3945" y2="155.3945"/><rect fill="#EEEEEE" height="24.3516" style="stroke:#000000;stroke-width:2;" width="232.918" x="563.8362" y="141.2188"/><text fill="#000000" font-family="sans-serif" font-size="13" font-weight="bold" lengthAdjust="spacing" textLength="215.3062" x="569.8362" y="158.7139">&#201;tape 1 : Acc&#232;s &#224; la page de retour</text><g class="message" data-participant-1="Employe" data-participant-2="Vue"><polygon fill="#181818" points="297.6431,193.9219,307.6431,197.9219,297.6431,201.9219,301.6431,197.9219" style="stroke:#181818;stroke-width:1;"/><line style="stroke:#181818;stroke-width:1;" x1="35.2344" x2="303.6431" y1="197.9219" y2="197.9219"/><text fill="#000000" font-family="sans-serif" font-size="13" lengthAdjust="spacing" textLength="132.939" x="42.2344" y="193.0654">acc&#232;de &#224; /retour (GET)</text></g><g class="message" data-participant-1="Vue" data-participant-2="Controller"><polygon fill="#181818" points="531.1665,224.2734,541.1665,228.2734,531.1665,232.2734,535.1665,228.2734" style="stroke:#181818;stroke-width:1;"/><line style="stroke:#181818;stroke-width:1;" x1="309.6431" x2="537.1665" y1="228.2734" y2="228.2734"/><text fill="#000000" font-family="sans-serif" font-size="13" lengthAdjust="spacing" textLength="105.46" x="316.6431" y="223.417">HTTP GET /retour</text></g><g class="message" data-participant-1="Controller" data-participant-2="Vue"><polygon fill="#181818" points="320.6431,254.625,310.6431,258.625,320.6431,262.625,316.6431,258.625" style="stroke:#181818;stroke-width:1;"/><line style="stroke:#181818;stroke-width:1;" x1="314.6431" x2="542.1665" y1="258.625" y2="258.625"/><text fill="#000000" font-family="sans-serif" font-size="13" lengthAdjust="spacing" textLength="175.5698" x="326.6431" y="253.7686">retourne formulaire retour.html</text></g><rect fill="#EEEEEE" height="3" style="stroke:#EEEEEE;stroke-width:1;" width="1360.5903" x="0" y="287.8008"/><line style="stroke:#000000;stroke-width:1;" x1="0" x2="1360.5903" y1="287.8008" y2="287.8008"/><line style="stroke:#000000;stroke-width:1;" x1="0" x2="1360.5903" y1="290.8008" y2="290.8008"/><rect fill="#EEEEEE" height="24.3516" style="stroke:#000000;stroke-width:2;" width="212.6943" x="573.948" y="276.625"/><text fill="#000000" font-family="sans-serif" font-size="13" font-weight="bold" lengthAdjust="spacing" textLength="195.0825" x="579.948" y="294.1201">&#201;tape 2 : Recherche de la vente</text><g class="message" data-participant-1="Employe" data-participant-2="Vue"><polygon fill="#181818" points="297.6431,329.3281,307.6431,333.3281,297.6431,337.3281,301.6431,333.3281" style="stroke:#181818;stroke-width:1;"/><line style="stroke:#181818;stroke-width:1;" x1="35.2344" x2="303.6431" y1="333.3281" y2="333.3281"/><text fill="#000000" font-family="sans-serif" font-size="13" lengthAdjust="spacing" textLength="119.2217" x="42.2344" y="328.4717">saisit l&#8217;ID de la vente</text></g><g class="message" data-participant-1="Vue" data-participant-2="Controller"><polygon fill="#181818" points="531.1665,359.6797,541.1665,363.6797,531.1665,367.6797,535.1665,363.6797" style="stroke:#181818;stroke-width:1;"/><line style="stroke:#181818;stroke-width:1;" x1="309.6431" x2="537.1665" y1="363.6797" y2="363.6797"/><text fill="#000000" font-family="sans-serif" font-size="13" lengthAdjust="spacing" textLength="209.5234" x="316.6431" y="358.8232">HTTP POST /retour/rechercheVente</text></g><g class="message" data-participant-1="Controller" data-participant-2="VenteRepo"><polygon fill="#181818" points="907.9302,390.0313,917.9302,394.0313,907.9302,398.0313,911.9302,394.0313" style="stroke:#181818;stroke-width:1;"/><line style="stroke:#181818;stroke-width:1;" x1="543.1665" x2="913.9302" y1="394.0313" y2="394.0313"/><text fill="#000000" font-family="sans-serif" font-size="13" lengthAdjust="spacing" textLength="98.2744" x="550.1665" y="389.1748">findById(venteId)</text></g><g class="message" data-participant-1="VenteRepo" data-participant-2="PostgreSQL"><polygon fill="#181818" points="1302.4595,453.0859,1312.4595,457.0859,1302.4595,461.0859,1306.4595,457.0859" style="stroke:#181818;stroke-width:1;"/><line style="stroke:#181818;stroke-width:1;" x1="919.9302" x2="1308.4595" y1="457.0859" y2="457.0859"/><text fill="#000000" font-family="sans-serif" font-size="13" lengthAdjust="spacing" textLength="59.2427" x="926.9302" y="419.5264">SELECT *</text><text fill="#000000" font-family="sans-serif" font-size="13" lengthAdjust="spacing" textLength="73.6836" x="930.542" y="435.8779">FROM vente</text><text fill="#000000" font-family="sans-serif" font-size="13" lengthAdjust="spacing" textLength="84.1636" x="930.542" y="452.2295">WHERE id = ?</text></g><g class="message" data-participant-1="PostgreSQL" data-participant-2="VenteRepo"><polygon fill="#181818" points="930.9302,483.4375,920.9302,487.4375,930.9302,491.4375,926.9302,487.4375" style="stroke:#181818;stroke-width:1;"/><line style="stroke:#181818;stroke-width:1;stroke-dasharray:2.0,2.0;" x1="924.9302" x2="1313.4595" y1="487.4375" y2="487.4375"/><text fill="#000000" font-family="sans-serif" font-size="13" lengthAdjust="spacing" textLength="33.9727" x="936.9302" y="482.5811">Vente</text></g><g class="message" data-participant-1="VenteRepo" data-participant-2="Controller"><polygon fill="#181818" points="554.1665,513.7891,544.1665,517.7891,554.1665,521.7891,550.1665,517.7891" style="stroke:#181818;stroke-width:1;"/><line style="stroke:#181818;stroke-width:1;stroke-dasharray:2.0,2.0;" x1="548.1665" x2="918.9302" y1="517.7891" y2="517.7891"/><text fill="#000000" font-family="sans-serif" font-size="13" lengthAdjust="spacing" textLength="33.9727" x="560.1665" y="512.9326">Vente</text></g><g class="message" data-participant-1="Controller" data-participant-2="Vue"><polygon fill="#181818" points="320.6431,544.1406,310.6431,548.1406,320.6431,552.1406,316.6431,548.1406" style="stroke:#181818;stroke-width:1;"/><line style="stroke:#181818;stroke-width:1;" x1="314.6431" x2="542.1665" y1="548.1406" y2="548.1406"/><text fill="#000000" font-family="sans-serif" font-size="13" lengthAdjust="spacing" textLength="175.6079" x="326.6431" y="543.2842">affiche les produits de la vente</text></g><rect fill="#EEEEEE" height="3" style="stroke:#EEEEEE;stroke-width:1;" width="1360.5903" x="0" y="577.3164"/><line style="stroke:#000000;stroke-width:1;" x1="0" x2="1360.5903" y1="577.3164" y2="577.3164"/><line style="stroke:#000000;stroke-width:1;" x1="0" x2="1360.5903" y1="580.3164" y2="580.3164"/><rect fill="#EEEEEE" height="24.3516" style="stroke:#000000;stroke-width:2;" width="287.0635" x="536.7634" y="566.1406"/><text fill="#000000" font-family="sans-serif" font-size="13" font-weight="bold" lengthAdjust="spacing" textLength="269.4517" x="542.7634" y="583.6357">&#201;tape 3 : S&#233;lection des produits &#224; retourner</text><g class="message" data-participant-1="Employe" data-participant-2="Vue"><polygon fill="#181818" points="297.6431,618.8438,307.6431,622.8438,297.6431,626.8438,301.6431,622.8438" style="stroke:#181818;stroke-width:1;"/><line style="stroke:#181818;stroke-width:1;" x1="35.2344" x2="303.6431" y1="622.8438" y2="622.8438"/><text fill="#000000" font-family="sans-serif" font-size="13" lengthAdjust="spacing" textLength="250.4087" x="42.2344" y="617.9873">s&#233;lectionne produits + quantit&#233;s &#224; retourner</text></g><g class="message" data-participant-1="Vue" data-participant-2="Controller"><polygon fill="#181818" points="531.1665,649.1953,541.1665,653.1953,531.1665,657.1953,535.1665,653.1953" style="stroke:#181818;stroke-width:1;"/><line style="stroke:#181818;stroke-width:1;" x1="309.6431" x2="537.1665" y1="653.1953" y2="653.1953"/><text fill="#000000" font-family="sans-serif" font-size="13" lengthAdjust="spacing" textLength="156.0381" x="316.6431" y="648.3389">HTTP POST /retour/valider</text></g><g class="message" data-participant-1="Controller" data-participant-2="Service"><polygon fill="#181818" points="787.8271,679.5469,797.8271,683.5469,787.8271,687.5469,791.8271,683.5469" style="stroke:#181818;stroke-width:1;"/><line style="stroke:#181818;stroke-width:1;" x1="543.1665" x2="793.8271" y1="683.5469" y2="683.5469"/><text fill="#000000" font-family="sans-serif" font-size="13" lengthAdjust="spacing" textLength="232.6606" x="550.1665" y="678.6904">enregistrerRetour(venteId, mapProduits)</text></g><g class="message" data-participant-1="Service" data-participant-2="ProduitRepo"><polygon fill="#181818" points="1172.2568,709.8984,1182.2568,713.8984,1172.2568,717.8984,1176.2568,713.8984" style="stroke:#181818;stroke-width:1;"/><line style="stroke:#181818;stroke-width:1;" x1="799.8271" x2="1178.2568" y1="713.8984" y2="713.8984"/><text fill="#000000" font-family="sans-serif" font-size="13" lengthAdjust="spacing" textLength="197.2344" x="806.8271" y="709.042">mise &#224; jour des stocks (x produits)</text></g><g class="message" data-participant-1="ProduitRepo" data-participant-2="PostgreSQL"><polygon fill="#181818" points="1302.4595,756.6016,1312.4595,760.6016,1302.4595,764.6016,1306.4595,760.6016" style="stroke:#181818;stroke-width:1;"/><line style="stroke:#181818;stroke-width:1;" x1="1184.2568" x2="1308.4595" y1="760.6016" y2="760.6016"/><text fill="#000000" font-family="sans-serif" font-size="13" lengthAdjust="spacing" textLength="102.5908" x="1191.2568" y="739.3936">UPDATE produits</text><text fill="#000000" font-family="sans-serif" font-size="13" lengthAdjust="spacing" textLength="100.8071" x="1194.8687" y="755.7451">SET quantite = ...</text></g><g class="message" data-participant-1="Service" data-participant-2="RetourRepo"><polygon fill="#181818" points="1038.1504,786.9531,1048.1504,790.9531,1038.1504,794.9531,1042.1504,790.9531" style="stroke:#181818;stroke-width:1;"/><line style="stroke:#181818;stroke-width:1;" x1="799.8271" x2="1044.1504" y1="790.9531" y2="790.9531"/><text fill="#000000" font-family="sans-serif" font-size="13" lengthAdjust="spacing" textLength="157.8789" x="806.8271" y="786.0967">save(retour + lignesRetour)</text></g><g class="message" data-participant-1="RetourRepo" data-participant-2="PostgreSQL"><polygon fill="#181818" points="1302.4595,817.3047,1312.4595,821.3047,1302.4595,825.3047,1306.4595,821.3047" style="stroke:#181818;stroke-width:1;"/><line style="stroke:#181818;stroke-width:1;" x1="1050.1504" x2="1308.4595" y1="821.3047" y2="821.3047"/><text fill="#000000" font-family="sans-serif" font-size="13" lengthAdjust="spacing" textLength="215.6616" x="1057.1504" y="816.4482">INSERT INTO retour + retour_produit</text></g><g class="message" data-participant-1="PostgreSQL" data-participant-2="RetourRepo"><polygon fill="#181818" points="1061.1504,847.6563,1051.1504,851.6563,1061.1504,855.6563,1057.1504,851.6563" style="stroke:#181818;stroke-width:1;"/><line style="stroke:#181818;stroke-width:1;stroke-dasharray:2.0,2.0;" x1="1055.1504" x2="1313.4595" y1="851.6563" y2="851.6563"/><text fill="#000000" font-family="sans-serif" font-size="13" lengthAdjust="spacing" textLength="18.7827" x="1067.1504" y="846.7998">OK</text></g><g class="message" data-participant-1="RetourRepo" data-participant-2="Service"><polygon fill="#181818" points="810.8271,878.0078,800.8271,882.0078,810.8271,886.0078,806.8271,882.0078" style="stroke:#181818;stroke-width:1;"/><line style="stroke:#181818;stroke-width:1;stroke-dasharray:2.0,2.0;" x1="804.8271" x2="1049.1504" y1="882.0078" y2="882.0078"/><text fill="#000000" font-family="sans-serif" font-size="13" lengthAdjust="spacing" textLength="70.8081" x="816.8271" y="877.1514">confirmation</text></g><rect fill="#EEEEEE" height="3" style="stroke:#EEEEEE;stroke-width:1;" width="1360.5903" x="0" y="911.1836"/><line style="stroke:#000000;stroke-width:1;" x1="0" x2="1360.5903" y1="911.1836" y2="911.1836"/><line style="stroke:#000000;stroke-width:1;" x1="0" x2="1360.5903" y1="914.1836" y2="914.1836"/><rect fill="#EEEEEE" height="24.3516" style="stroke:#000000;stroke-width:2;" width="156.2891" x="602.1506" y="900.0078"/><text fill="#000000" font-family="sans-serif" font-size="13" font-weight="bold" lengthAdjust="spacing" textLength="138.6772" x="608.1506" y="917.5029">&#201;tape 4 : Confirmation</text><g class="message" data-participant-1="Service" data-participant-2="Controller"><polygon fill="#181818" points="554.1665,952.7109,544.1665,956.7109,554.1665,960.7109,550.1665,956.7109" style="stroke:#181818;stroke-width:1;"/><line style="stroke:#181818;stroke-width:1;stroke-dasharray:2.0,2.0;" x1="548.1665" x2="798.8271" y1="956.7109" y2="956.7109"/><text fill="#000000" font-family="sans-serif" font-size="13" lengthAdjust="spacing" textLength="95.3799" x="560.1665" y="951.8545">retour enregistr&#233;</text></g><g class="message" data-participant-1="Controller" data-participant-2="Vue"><polygon fill="#181818" points="320.6431,983.0625,310.6431,987.0625,320.6431,991.0625,316.6431,987.0625" style="stroke:#181818;stroke-width:1;"/><line style="stroke:#181818;stroke-width:1;stroke-dasharray:2.0,2.0;" x1="314.6431" x2="542.1665" y1="987.0625" y2="987.0625"/><text fill="#000000" font-family="sans-serif" font-size="13" lengthAdjust="spacing" textLength="164.0425" x="326.6431" y="982.2061">redirection ou affichage re&#231;u</text></g><g class="message" data-participant-1="Vue" data-participant-2="Employe"><polygon fill="#181818" points="46.2344,1013.4141,36.2344,1017.4141,46.2344,1021.4141,42.2344,1017.4141" style="stroke:#181818;stroke-width:1;"/><line style="stroke:#181818;stroke-width:1;stroke-dasharray:2.0,2.0;" x1="40.2344" x2="308.6431" y1="1017.4141" y2="1017.4141"/><text fill="#000000" font-family="sans-serif" font-size="13" lengthAdjust="spacing" textLength="104.7744" x="52.2344" y="1012.5576">affiche re&#231;u retour</text></g><!--SRC=[ZLPBSkH44Dth51dUJ9l1TW2p8i8G7hiP6pnZqzruDaJWibGjro2fvAfIntZ7bYEmOuURDJVGJJW9Bqk_ajmGB1nMIrcPBz_BJpdbCabdooKTq9jwQwIXgY0ZdQuCpPQbKKLAhxLsz5xUxKVH2pe-FgQJs4byvw-nAaN6BoCHEsredfUPVfITvQdEIsr5uImb5Tb7w-gdN7hxKXYd-7ZXQE-TsAXKUAy8HBFL_MCkCodM-tiaBDrKSco_y0XFTU6CpZ9flDNmSvVnKfgDYgMtR9_7PZUoS78XWLSXayScSFTkbyU9xV1oR7njT58fDx4EtaQ9SE9EM0bRRLrgvFBxoxqe0d_rhqwKaZwZBq5wN3zPgd-dJ50fKac9x9G2dItnTF0LimLxmVOmmO6ZJj0tyzK-bBdy-vVVfBUljnHdwW47BBwZ538b2z8LFzxfokcYItQF4b5Ood1KWHEp5k0lub28E32FmEUhrJKXKXUM0qeg1eLbiT5Aej0O_qDL_-cajnSLnUoe_YlpvSMGutjXKkcXhRN9gqmeWxX1m3xX9beH6hRl3kzTdZKmmW3z0H2wWOlprTjBRo0B5cuKiY4xlfS6V_nZmvKHQlGv82n22_RAHZlLiKAX63oT5sUXTIjFvLIcRCUN0m3FV89djLOCBum0qB4qHRsLhKgIYSjBj6YztLJ_eTFrrR8NwgXFyAP3Cg90MaTMLxcoKwasIepbPBVFLEfw2R7NgaXUFruaCu__8jb_heueIvbnHRBRhdMQeW1SewiDbyN0W37Ibhf0_gpB40oHXwv2wENySdwwea_enuA-MLozRHtWr_lp-M9EAg5Z-XfuvX_hRGmTq0C9AnBcnwuQA6nJDfEp1oF1ayJ4gxTEgCn6KG3WOC94H_MYtjegSyBX7Kkjxpx0ZVzAOYDZxx5iXWRujrR72aUyA6qXrzjHtbEz0r43Gfr1mUJIFGywadXtoudrMd6rPo6sIJ6FLIs1lB7ls1aLSZFTk1azkur_pBgmqRvW4Ujj9kD6cp0spdTTlNigsluWvEoFlQI72dMZ73CQ-jZHZR5-bl4eAWXi6nOcWzl_suCRaQ7BpRFc6uPzq8QU97z2U2uG6teg9tD0c4hMBZr4bOMHgR80QPhXthNXfvIBijrCTaTFGhEiVaehhrYcKxyvSWYf48A7uWYA5UZHL9Z45vDjTsxKuU3679OWO24ZNm4VE2kMrJeT_snfzh6dkiNK-YAks-x0c6vA54y3TSUliTAygtwbCEpMPTWy8PpfsFZX-knaDHyqnxnOOcUr4J7awV3mS38r4BgR6DQF330nId87dX4_mvN2huoDdBKry1ABEYsaRGmch0Iy3qrzsvZUiZ3CINE-7oHudFMvzPI0xoZ0CENaujrolbZXt-gAUc3DmqzTEY_eeW2mXf1cDrd2TOV_tPe1q-tutAtVATzUdnoTgpkiDi53VJ96H-nSVOTGAFYrChbewVSt9MaiIbrWGN8Ty3LhdDEeC-B00G_b9Yc-kc8oLtxf_ajL3_Ff5VoCW60EzPfE1q3Nqrr7eWn7MhQ09769PFqC48IcuyiRhxsuwVUHar7l1rUaH9bsRkAIruzNVAZ_g7RTa62lqgQEmY68msczBUedqzpZXlie-sb67Q9sutVO5Dw0XejXU9qCrabdXruIfNAOWRZsi0vj_hmdWajiz0y0]--></g></svg>