<svg xmlns="http://www.w3.org/2000/svg" xmlns:xlink="http://www.w3.org/1999/xlink" contentStyleType="text/css" data-diagram-type="DESCRIPTION" height="276px" preserveAspectRatio="none" style="width:1651px;height:276px;background:#FFFFFF;" version="1.1" viewBox="0 0 1651 276" width="1651px" zoomAndPan="magnify"><title>Diagramme de cas d'utilisation - Syst&#232;me de gestion multi-magasins (Web)</title><defs/><g><text fill="#000000" font-family="sans-serif" font-size="14" font-weight="bold" lengthAdjust="spacing" textLength="498.8867" x="569.0566" y="24.5332">Diagramme de cas d'utilisation - Syst&#232;me de gestion multi-magasins (Web)</text><!--cluster Application Web Spring Boot\n(Interface Thymeleaf + Services + BD PostgreSQL)--><g class="cluster" data-entity="Application Web Spring Boot\n(Interface Thymeleaf + Services + BD PostgreSQL)" data-source-line="5" data-uid="ent0003" id="cluster_Application Web Spring Boot\n(Interface Thymeleaf + Services + BD PostgreSQL)"><rect fill="none" height="132" rx="2.5" ry="2.5" style="stroke:#181818;stroke-width:1;" width="1638" x="7" y="138.1094"/><text fill="#000000" font-family="sans-serif" font-size="14" font-weight="bold" lengthAdjust="spacing" textLength="193.6484" x="729.1758" y="154.6426">Application Web Spring Boot</text><text fill="#000000" font-family="sans-serif" font-size="14" font-weight="bold" lengthAdjust="spacing" textLength="335.3506" x="658.3247" y="172.252">(Interface Thymeleaf + Services + BD PostgreSQL)</text></g><g class="entity" data-entity="UC1" data-source-line="8" data-uid="ent0004" id="entity_UC1"><ellipse cx="1539.1917" cy="223.0477" fill="#F1F1F1" rx="90.1917" ry="20.4383" style="stroke:#181818;stroke-width:0.5;"/><text fill="#000000" font-family="sans-serif" font-size="14" lengthAdjust="spacing" textLength="138.5234" x="1469.93" y="226.7762">Rechercher un produit</text></g><g class="entity" data-entity="UC2" data-source-line="9" data-uid="ent0005" id="entity_UC2"><ellipse cx="1314.8594" cy="223.1813" fill="#F1F1F1" rx="98.3594" ry="22.0719" style="stroke:#181818;stroke-width:0.5;"/><text fill="#000000" font-family="sans-serif" font-size="14" lengthAdjust="spacing" textLength="157.1787" x="1236.2701" y="226.9098">Consulter le stock central</text></g><g class="entity" data-entity="UC3" data-source-line="12" data-uid="ent0006" id="entity_UC3"><ellipse cx="1075.8448" cy="223.0783" fill="#F1F1F1" rx="105.3448" ry="23.469" style="stroke:#181818;stroke-width:0.5;"/><text fill="#000000" font-family="sans-serif" font-size="14" lengthAdjust="spacing" textLength="172.7852" x="989.4522" y="226.8068">Ajouter un produit au panier</text></g><g class="entity" data-entity="UC4" data-source-line="13" data-uid="ent0007" id="entity_UC4"><ellipse cx="856.8823" cy="223.0858" fill="#F1F1F1" rx="77.8823" ry="17.9765" style="stroke:#181818;stroke-width:0.5;"/><text fill="#000000" font-family="sans-serif" font-size="14" lengthAdjust="spacing" textLength="108.9648" x="800.4327" y="227.3549">Valider une vente</text></g><g class="entity" data-entity="UC5" data-source-line="16" data-uid="ent0008" id="entity_UC5"><ellipse cx="670.843" cy="222.978" fill="#F1F1F1" rx="72.343" ry="16.8686" style="stroke:#181818;stroke-width:0.5;"/><text fill="#000000" font-family="sans-serif" font-size="14" lengthAdjust="spacing" textLength="94.1582" x="620.7639" y="227.4946">Initier un retour</text></g><g class="entity" data-entity="UC6" data-source-line="17" data-uid="ent0009" id="entity_UC6"><ellipse cx="454.0662" cy="222.9226" fill="#F1F1F1" rx="109.5662" ry="24.3132" style="stroke:#181818;stroke-width:0.5;"/><text fill="#000000" font-family="sans-serif" font-size="14" lengthAdjust="spacing" textLength="182.0957" x="363.0183" y="226.6511">Valider les produits retourn&#233;s</text></g><g class="entity" data-entity="UC7" data-source-line="20" data-uid="ent0010" id="entity_UC7"><ellipse cx="165.9585" cy="223.1011" fill="#F1F1F1" rx="142.9585" ry="30.9917" style="stroke:#181818;stroke-width:0.5;"/><text fill="#000000" font-family="sans-serif" font-size="14" lengthAdjust="spacing" textLength="253.709" x="39.104" y="226.8296">G&#233;n&#233;rer un rapport consolid&#233; des ventes</text></g><!--entity Employe--><g class="entity" data-entity="Employe" data-source-line="3" data-uid="ent0002" id="entity_Employe"><ellipse cx="857.2344" cy="52.6094" fill="#F1F1F1" rx="8" ry="8" style="stroke:#181818;stroke-width:0.5;"/><path d="M857.2344,60.6094 L857.2344,87.6094 M844.2344,68.6094 L870.2344,68.6094 M857.2344,87.6094 L844.2344,102.6094 M857.2344,87.6094 L870.2344,102.6094" fill="none" style="stroke:#181818;stroke-width:0.5;"/><text fill="#000000" font-family="sans-serif" font-size="14" lengthAdjust="spacing" textLength="54.4688" x="830" y="118.6426">Employe</text></g><!--link Employe to UC1--><g class="link" data-entity-1="Employe" data-entity-2="UC1" data-source-line="23" data-uid="lnk11" id="link_Employe_UC1"><path d="M884.19,84.0894 C984.08,84.3594 1330.21,88.3494 1431,130.1094 C1469.23,145.9494 1499.8359,176.1066 1519.0859,198.0766" fill="none" id="Employe-to-UC1" style="stroke:#181818;stroke-width:1;"/><polygon fill="#181818" points="1523.04,202.5894,1520.1174,193.1841,1519.7449,198.8287,1514.1004,198.4562,1523.04,202.5894" style="stroke:#181818;stroke-width:1;"/></g><!--link Employe to UC2--><g class="link" data-entity-1="Employe" data-entity-2="UC2" data-source-line="24" data-uid="lnk12" id="link_Employe_UC2"><path d="M884.03,85.8894 C954.46,90.8194 1142.08,105.8994 1199,130.1094 C1237.79,146.6094 1270.279,175.4453 1291.639,197.1253" fill="none" id="Employe-to-UC2" style="stroke:#181818;stroke-width:1;"/><polygon fill="#181818" points="1295.85,201.3994,1292.3829,192.181,1292.3408,197.8377,1286.6842,197.7956,1295.85,201.3994" style="stroke:#181818;stroke-width:1;"/></g><!--link Employe to UC3--><g class="link" data-entity-1="Employe" data-entity-2="UC3" data-source-line="25" data-uid="lnk13" id="link_Employe_UC3"><path d="M884.22,95.4494 C903.85,104.0294 930.71,116.6094 953,130.1094 C988.13,151.3794 1020.847,176.5613 1045.057,196.2713" fill="none" id="Employe-to-UC3" style="stroke:#181818;stroke-width:1;"/><polygon fill="#181818" points="1049.71,200.0594,1045.2559,191.2752,1045.8325,196.9026,1040.2051,197.4792,1049.71,200.0594" style="stroke:#181818;stroke-width:1;"/></g><!--link Employe to UC4--><g class="link" data-entity-1="Employe" data-entity-2="UC4" data-source-line="26" data-uid="lnk14" id="link_Employe_UC4"><path d="M857,122.1794 C857,149.3094 857,178.4694 857,199.0394" fill="none" id="Employe-to-UC4" style="stroke:#181818;stroke-width:1;"/><polygon fill="#181818" points="857,205.0394,861,196.0394,857,200.0394,853,196.0394,857,205.0394" style="stroke:#181818;stroke-width:1;"/></g><!--link Employe to UC5--><g class="link" data-entity-1="Employe" data-entity-2="UC5" data-source-line="27" data-uid="lnk15" id="link_Employe_UC5"><path d="M829.85,94.3494 C810.08,102.4694 783.16,114.9694 762,130.1094 C730.57,152.5894 704.1432,181.7818 687.6532,201.5518" fill="none" id="Employe-to-UC5" style="stroke:#181818;stroke-width:1;"/><polygon fill="#181818" points="683.81,206.1594,692.6465,201.8101,687.0126,202.3197,686.503,196.6859,683.81,206.1594" style="stroke:#181818;stroke-width:1;"/></g><!--link Employe to UC6--><g class="link" data-entity-1="Employe" data-entity-2="UC6" data-source-line="28" data-uid="lnk16" id="link_Employe_UC6"><path d="M829.61,84.5594 C778.69,86.2894 666.83,94.2194 581,130.1094 C541.56,146.5994 507.219,173.4883 483.089,194.8883" fill="none" id="Employe-to-UC6" style="stroke:#181818;stroke-width:1;"/><polygon fill="#181818" points="478.6,198.8694,487.9875,195.8904,482.3408,195.5518,482.6794,189.9051,478.6,198.8694" style="stroke:#181818;stroke-width:1;"/></g><!--link Employe to UC7--><g class="link" data-entity-1="Employe" data-entity-2="UC7" data-source-line="29" data-uid="lnk17" id="link_Employe_UC7"><path d="M829.86,84.9294 C735.51,88.0094 422.43,100.2894 327,130.1094 C282.44,144.0294 241.6642,168.3147 210.3842,189.6847" fill="none" id="Employe-to-UC7" style="stroke:#181818;stroke-width:1;"/><polygon fill="#181818" points="205.43,193.0694,215.1177,191.2952,209.5585,190.2488,210.6049,184.6896,205.43,193.0694" style="stroke:#181818;stroke-width:1;"/></g><!--SRC=[bPBBIWCn58RtUOf3DssHBkmLX0gzY1HSgEDbuoQcfzFKJ38aPuf5V1_x77qnCpDHsgcWBWRo9t_-yvsJ8KaAOIfvR7cI8CmH17SmhsSabNISfD7GWcZZQFTHdiVeYjqaKoHR2O-vazf1un6VcunnGSR2HP8giq76B0hYElOrQgCqLLAKYTuBKMgbZc5i33tfnamJsWKN27VBJO8A-G9E84AxbWATNuwdS6qSnHQZcwjc3TuO0wZ3S3Y4oH7n7gPVfjRCCqakD_jBcKFVeoUwHR54ct-GwIzN3NpQ_UHqtpWnslbklSytuiY85n2eoN8LtEq_mpXO-vjun39QcOmEG81da78jqOOYdNt_0rToNlYnJ0ocxZz8B9B9x17AJ4kI9Khf2D6zd-ehd_CztzAkTriNhlH_eR4yJOqbQE0hdELJppV953DO8S52QgwQLS3BtTRNi04nH0Z_HiOpxRPxKmuO0_REMFWdeTKwBzxtKBShkbFHtOhkLNI_eWVi4m00]--></g></svg>