<svg xmlns="http://www.w3.org/2000/svg" xmlns:xlink="http://www.w3.org/1999/xlink" contentStyleType="text/css" data-diagram-type="SEQUENCE" height="1040px" preserveAspectRatio="none" style="width:1440px;height:1040px;background:#FFFFFF;" version="1.1" viewBox="0 0 1440 1040" width="1440px" zoomAndPan="magnify"><title>DSS - G&#233;n&#233;rer un rapport consolid&#233; des ventes (Spring Boot Web)</title><defs/><g><text fill="#000000" font-family="sans-serif" font-size="14" font-weight="bold" lengthAdjust="spacing" textLength="441.0547" x="495.8198" y="29.5332">DSS - G&#233;n&#233;rer un rapport consolid&#233; des ventes (Spring Boot Web)</text><g><title>Gestionnaire</title><rect fill="#000000" fill-opacity="0.00000" height="837.1406" width="8" x="43.6895" y="121.2188"/><line style="stroke:#181818;stroke-width:0.5;stroke-dasharray:5.0,5.0;" x1="47" x2="47" y1="121.2188" y2="958.3594"/></g><g><title>Navigateur Web (Thymeleaf)</title><rect fill="#000000" fill-opacity="0.00000" height="837.1406" width="8" x="275.8164" y="121.2188"/><line style="stroke:#181818;stroke-width:0.5;stroke-dasharray:5.0,5.0;" x1="279.3408" x2="279.3408" y1="121.2188" y2="958.3594"/></g><g><title>RapportController</title><rect fill="#000000" fill-opacity="0.00000" height="837.1406" width="8" x="505.7725" y="121.2188"/><line style="stroke:#181818;stroke-width:0.5;stroke-dasharray:5.0,5.0;" x1="509.5244" x2="509.5244" y1="121.2188" y2="958.3594"/></g><g><title>RapportService</title><rect fill="#000000" fill-opacity="0.00000" height="837.1406" width="8" x="660.5532" y="121.2188"/><line style="stroke:#181818;stroke-width:0.5;stroke-dasharray:5.0,5.0;" x1="664.3086" x2="664.3086" y1="121.2188" y2="958.3594"/></g><g><title>VenteRepository</title><rect fill="#000000" fill-opacity="0.00000" height="837.1406" width="8" x="879.6675" y="121.2188"/><line style="stroke:#181818;stroke-width:0.5;stroke-dasharray:5.0,5.0;" x1="882.916" x2="882.916" y1="121.2188" y2="958.3594"/></g><g><title>ProduitRepository</title><rect fill="#000000" fill-opacity="0.00000" height="837.1406" width="8" x="1011.0566" y="121.2188"/><line style="stroke:#181818;stroke-width:0.5;stroke-dasharray:5.0,5.0;" x1="1014.4189" x2="1014.4189" y1="121.2188" y2="958.3594"/></g><g><title>StockMagasinRepository</title><rect fill="#000000" fill-opacity="0.00000" height="837.1406" width="8" x="1168.1182" y="121.2188"/><line style="stroke:#181818;stroke-width:0.5;stroke-dasharray:5.0,5.0;" x1="1171.6943" x2="1171.6943" y1="121.2188" y2="958.3594"/></g><g><title>PostgreSQL</title><rect fill="#000000" fill-opacity="0.00000" height="837.1406" width="8" x="1383.5635" y="121.2188"/><line style="stroke:#181818;stroke-width:0.5;stroke-dasharray:5.0,5.0;" x1="1387.4326" x2="1387.4326" y1="121.2188" y2="958.3594"/></g><g class="participant participant-head" data-participant="Gestionnaire"><text fill="#000000" font-family="sans-serif" font-size="14" lengthAdjust="spacing" textLength="79.3789" x="5" y="118.1426">Gestionnaire</text><ellipse cx="47.6895" cy="52.1094" fill="#E2E2F0" rx="8" ry="8" style="stroke:#181818;stroke-width:0.5;"/><path d="M47.6895,60.1094 L47.6895,87.1094 M34.6895,68.1094 L60.6895,68.1094 M47.6895,87.1094 L34.6895,102.1094 M47.6895,87.1094 L60.6895,102.1094" fill="none" style="stroke:#181818;stroke-width:0.5;"/></g><g class="participant participant-tail" data-participant="Gestionnaire"><text fill="#000000" font-family="sans-serif" font-size="14" lengthAdjust="spacing" textLength="79.3789" x="5" y="971.8926">Gestionnaire</text><ellipse cx="47.6895" cy="983.4688" fill="#E2E2F0" rx="8" ry="8" style="stroke:#181818;stroke-width:0.5;"/><path d="M47.6895,991.4688 L47.6895,1018.4688 M34.6895,999.4688 L60.6895,999.4688 M47.6895,1018.4688 L34.6895,1033.4688 M47.6895,1018.4688 L60.6895,1033.4688" fill="none" style="stroke:#181818;stroke-width:0.5;"/></g><g class="participant participant-head" data-participant="Vue"><rect fill="#E2E2F0" height="31.6094" rx="2.5" ry="2.5" style="stroke:#181818;stroke-width:0.5;" width="192.9512" x="183.3408" y="88.6094"/><text fill="#000000" font-family="sans-serif" font-size="14" lengthAdjust="spacing" textLength="178.9512" x="190.3408" y="110.1426">Navigateur Web (Thymeleaf)</text></g><g class="participant participant-tail" data-participant="Vue"><rect fill="#E2E2F0" height="31.6094" rx="2.5" ry="2.5" style="stroke:#181818;stroke-width:0.5;" width="192.9512" x="183.3408" y="957.3594"/><text fill="#000000" font-family="sans-serif" font-size="14" lengthAdjust="spacing" textLength="178.9512" x="190.3408" y="978.8926">Navigateur Web (Thymeleaf)</text></g><g class="participant participant-head" data-participant="Controller"><rect fill="#E2E2F0" height="31.6094" rx="2.5" ry="2.5" style="stroke:#181818;stroke-width:0.5;" width="124.4961" x="447.5244" y="88.6094"/><text fill="#000000" font-family="sans-serif" font-size="14" lengthAdjust="spacing" textLength="110.4961" x="454.5244" y="110.1426">RapportController</text></g><g class="participant participant-tail" data-participant="Controller"><rect fill="#E2E2F0" height="31.6094" rx="2.5" ry="2.5" style="stroke:#181818;stroke-width:0.5;" width="124.4961" x="447.5244" y="957.3594"/><text fill="#000000" font-family="sans-serif" font-size="14" lengthAdjust="spacing" textLength="110.4961" x="454.5244" y="978.8926">RapportController</text></g><g class="participant participant-head" data-participant="Service"><rect fill="#E2E2F0" height="31.6094" rx="2.5" ry="2.5" style="stroke:#181818;stroke-width:0.5;" width="110.4893" x="609.3086" y="88.6094"/><text fill="#000000" font-family="sans-serif" font-size="14" lengthAdjust="spacing" textLength="96.4893" x="616.3086" y="110.1426">RapportService</text></g><g class="participant participant-tail" data-participant="Service"><rect fill="#E2E2F0" height="31.6094" rx="2.5" ry="2.5" style="stroke:#181818;stroke-width:0.5;" width="110.4893" x="609.3086" y="957.3594"/><text fill="#000000" font-family="sans-serif" font-size="14" lengthAdjust="spacing" textLength="96.4893" x="616.3086" y="978.8926">RapportService</text></g><g class="participant participant-head" data-participant="VenteRepo"><rect fill="#E2E2F0" height="31.6094" rx="2.5" ry="2.5" style="stroke:#181818;stroke-width:0.5;" width="117.5029" x="824.916" y="88.6094"/><text fill="#000000" font-family="sans-serif" font-size="14" lengthAdjust="spacing" textLength="103.5029" x="831.916" y="110.1426">VenteRepository</text></g><g class="participant participant-tail" data-participant="VenteRepo"><rect fill="#E2E2F0" height="31.6094" rx="2.5" ry="2.5" style="stroke:#181818;stroke-width:0.5;" width="117.5029" x="824.916" y="957.3594"/><text fill="#000000" font-family="sans-serif" font-size="14" lengthAdjust="spacing" textLength="103.5029" x="831.916" y="978.8926">VenteRepository</text></g><g class="participant participant-head" data-participant="ProduitRepo"><rect fill="#E2E2F0" height="31.6094" rx="2.5" ry="2.5" style="stroke:#181818;stroke-width:0.5;" width="125.2754" x="952.4189" y="88.6094"/><text fill="#000000" font-family="sans-serif" font-size="14" lengthAdjust="spacing" textLength="111.2754" x="959.4189" y="110.1426">ProduitRepository</text></g><g class="participant participant-tail" data-participant="ProduitRepo"><rect fill="#E2E2F0" height="31.6094" rx="2.5" ry="2.5" style="stroke:#181818;stroke-width:0.5;" width="125.2754" x="952.4189" y="957.3594"/><text fill="#000000" font-family="sans-serif" font-size="14" lengthAdjust="spacing" textLength="111.2754" x="959.4189" y="978.8926">ProduitRepository</text></g><g class="participant participant-head" data-participant="StockRepo"><rect fill="#E2E2F0" height="31.6094" rx="2.5" ry="2.5" style="stroke:#181818;stroke-width:0.5;" width="168.8477" x="1087.6943" y="88.6094"/><text fill="#000000" font-family="sans-serif" font-size="14" lengthAdjust="spacing" textLength="154.8477" x="1094.6943" y="110.1426">StockMagasinRepository</text></g><g class="participant participant-tail" data-participant="StockRepo"><rect fill="#E2E2F0" height="31.6094" rx="2.5" ry="2.5" style="stroke:#181818;stroke-width:0.5;" width="168.8477" x="1087.6943" y="957.3594"/><text fill="#000000" font-family="sans-serif" font-size="14" lengthAdjust="spacing" textLength="154.8477" x="1094.6943" y="978.8926">StockMagasinRepository</text></g><g class="participant participant-head" data-participant="PostgreSQL"><text fill="#000000" font-family="sans-serif" font-size="14" lengthAdjust="spacing" textLength="76.2617" x="1346.4326" y="118.1426">PostgreSQL</text><path d="M1369.5635,67.6094 C1369.5635,57.6094 1387.5635,57.6094 1387.5635,57.6094 C1387.5635,57.6094 1405.5635,57.6094 1405.5635,67.6094 L1405.5635,93.6094 C1405.5635,103.6094 1387.5635,103.6094 1387.5635,103.6094 C1387.5635,103.6094 1369.5635,103.6094 1369.5635,93.6094 L1369.5635,67.6094" fill="#E2E2F0" style="stroke:#181818;stroke-width:1.5;"/><path d="M1369.5635,67.6094 C1369.5635,77.6094 1387.5635,77.6094 1387.5635,77.6094 C1387.5635,77.6094 1405.5635,77.6094 1405.5635,67.6094" fill="none" style="stroke:#181818;stroke-width:1.5;"/></g><g class="participant participant-tail" data-participant="PostgreSQL"><text fill="#000000" font-family="sans-serif" font-size="14" lengthAdjust="spacing" textLength="76.2617" x="1346.4326" y="971.8926">PostgreSQL</text><path d="M1369.5635,984.9688 C1369.5635,974.9688 1387.5635,974.9688 1387.5635,974.9688 C1387.5635,974.9688 1405.5635,974.9688 1405.5635,984.9688 L1405.5635,1010.9688 C1405.5635,1020.9688 1387.5635,1020.9688 1387.5635,1020.9688 C1387.5635,1020.9688 1369.5635,1020.9688 1369.5635,1010.9688 L1369.5635,984.9688" fill="#E2E2F0" style="stroke:#181818;stroke-width:1.5;"/><path d="M1369.5635,984.9688 C1369.5635,994.9688 1387.5635,994.9688 1387.5635,994.9688 C1387.5635,994.9688 1405.5635,994.9688 1405.5635,984.9688" fill="none" style="stroke:#181818;stroke-width:1.5;"/></g><rect fill="#EEEEEE" height="3" style="stroke:#EEEEEE;stroke-width:1;" width="1433.6943" x="0" y="152.3945"/><line style="stroke:#000000;stroke-width:1;" x1="0" x2="1433.6943" y1="152.3945" y2="152.3945"/><line style="stroke:#000000;stroke-width:1;" x1="0" x2="1433.6943" y1="155.3945" y2="155.3945"/><rect fill="#EEEEEE" height="24.3516" style="stroke:#000000;stroke-width:2;" width="189.5825" x="622.0559" y="141.2188"/><text fill="#000000" font-family="sans-serif" font-size="13" font-weight="bold" lengthAdjust="spacing" textLength="171.9707" x="628.0559" y="158.7139">&#201;tape 1 : Acc&#232;s &#224; l&#8217;interface</text><g class="message" data-participant-1="Gestionnaire" data-participant-2="Vue"><polygon fill="#181818" points="267.8164,193.9219,277.8164,197.9219,267.8164,201.9219,271.8164,197.9219" style="stroke:#181818;stroke-width:1;"/><line style="stroke:#181818;stroke-width:1;" x1="47.6895" x2="273.8164" y1="197.9219" y2="197.9219"/><text fill="#000000" font-family="sans-serif" font-size="13" lengthAdjust="spacing" textLength="140.1689" x="54.6895" y="193.0654">acc&#232;de &#224; /rapport (GET)</text></g><g class="message" data-participant-1="Vue" data-participant-2="Controller"><polygon fill="#181818" points="497.7725,224.2734,507.7725,228.2734,497.7725,232.2734,501.7725,228.2734" style="stroke:#181818;stroke-width:1;"/><line style="stroke:#181818;stroke-width:1;" x1="279.8164" x2="503.7725" y1="228.2734" y2="228.2734"/><text fill="#000000" font-family="sans-serif" font-size="13" lengthAdjust="spacing" textLength="112.6899" x="286.8164" y="223.417">HTTP GET /rapport</text></g><rect fill="#EEEEEE" height="3" style="stroke:#EEEEEE;stroke-width:1;" width="1433.6943" x="0" y="257.4492"/><line style="stroke:#000000;stroke-width:1;" x1="0" x2="1433.6943" y1="257.4492" y2="257.4492"/><line style="stroke:#000000;stroke-width:1;" x1="0" x2="1433.6943" y1="260.4492" y2="260.4492"/><rect fill="#EEEEEE" height="24.3516" style="stroke:#000000;stroke-width:2;" width="229.2935" x="602.2004" y="246.2734"/><text fill="#000000" font-family="sans-serif" font-size="13" font-weight="bold" lengthAdjust="spacing" textLength="211.6816" x="608.2004" y="263.7686">&#201;tape 2 : R&#233;cup&#233;ration des ventes</text><g class="message" data-participant-1="Controller" data-participant-2="Service"><polygon fill="#181818" points="652.5532,298.9766,662.5532,302.9766,652.5532,306.9766,656.5532,302.9766" style="stroke:#181818;stroke-width:1;"/><line style="stroke:#181818;stroke-width:1;" x1="509.7725" x2="658.5532" y1="302.9766" y2="302.9766"/><text fill="#000000" font-family="sans-serif" font-size="13" lengthAdjust="spacing" textLength="99.7153" x="516.7725" y="298.1201">genererRapport()</text></g><g class="message" data-participant-1="Service" data-participant-2="VenteRepo"><polygon fill="#181818" points="871.6675,329.3281,881.6675,333.3281,871.6675,337.3281,875.6675,333.3281" style="stroke:#181818;stroke-width:1;"/><line style="stroke:#181818;stroke-width:1;" x1="664.5532" x2="877.6675" y1="333.3281" y2="333.3281"/><text fill="#000000" font-family="sans-serif" font-size="13" lengthAdjust="spacing" textLength="44.0654" x="671.5532" y="328.4717">findAll()</text></g><g class="message" data-participant-1="VenteRepo" data-participant-2="PostgreSQL"><polygon fill="#181818" points="1375.5635,359.6797,1385.5635,363.6797,1375.5635,367.6797,1379.5635,363.6797" style="stroke:#181818;stroke-width:1;"/><line style="stroke:#181818;stroke-width:1;" x1="883.6675" x2="1381.5635" y1="363.6797" y2="363.6797"/><text fill="#000000" font-family="sans-serif" font-size="13" lengthAdjust="spacing" textLength="143.0381" x="890.6675" y="358.8232">SELECT * FROM ventes</text></g><g class="message" data-participant-1="PostgreSQL" data-participant-2="VenteRepo"><polygon fill="#181818" points="894.6675,390.0313,884.6675,394.0313,894.6675,398.0313,890.6675,394.0313" style="stroke:#181818;stroke-width:1;"/><line style="stroke:#181818;stroke-width:1;stroke-dasharray:2.0,2.0;" x1="888.6675" x2="1386.5635" y1="394.0313" y2="394.0313"/><text fill="#000000" font-family="sans-serif" font-size="13" lengthAdjust="spacing" textLength="69.3862" x="900.6675" y="389.1748">List&lt;Vente&gt;</text></g><g class="message" data-participant-1="VenteRepo" data-participant-2="Service"><polygon fill="#181818" points="675.5532,420.3828,665.5532,424.3828,675.5532,428.3828,671.5532,424.3828" style="stroke:#181818;stroke-width:1;"/><line style="stroke:#181818;stroke-width:1;stroke-dasharray:2.0,2.0;" x1="669.5532" x2="882.6675" y1="424.3828" y2="424.3828"/><text fill="#000000" font-family="sans-serif" font-size="13" lengthAdjust="spacing" textLength="150.3062" x="681.5532" y="419.5264">Liste compl&#232;te des ventes</text></g><rect fill="#EEEEEE" height="3" style="stroke:#EEEEEE;stroke-width:1;" width="1433.6943" x="0" y="453.5586"/><line style="stroke:#000000;stroke-width:1;" x1="0" x2="1433.6943" y1="453.5586" y2="453.5586"/><line style="stroke:#000000;stroke-width:1;" x1="0" x2="1433.6943" y1="456.5586" y2="456.5586"/><rect fill="#EEEEEE" height="24.3516" style="stroke:#000000;stroke-width:2;" width="307.2617" x="563.2163" y="442.3828"/><text fill="#000000" font-family="sans-serif" font-size="13" font-weight="bold" lengthAdjust="spacing" textLength="289.6499" x="569.2163" y="459.8779">&#201;tape 3 : Identification des produits populaires</text><g class="message" data-participant-1="Service" data-participant-2="VenteRepo"><polygon fill="#181818" points="871.6675,495.0859,881.6675,499.0859,871.6675,503.0859,875.6675,499.0859" style="stroke:#181818;stroke-width:1;"/><line style="stroke:#181818;stroke-width:1;" x1="664.5532" x2="877.6675" y1="499.0859" y2="499.0859"/><text fill="#000000" font-family="sans-serif" font-size="13" lengthAdjust="spacing" textLength="167.6479" x="671.5532" y="494.2295">findProduitsLesPlusVendus()</text></g><g class="message" data-participant-1="VenteRepo" data-participant-2="PostgreSQL"><polygon fill="#181818" points="1375.5635,574.4922,1385.5635,578.4922,1375.5635,582.4922,1379.5635,578.4922" style="stroke:#181818;stroke-width:1;"/><line style="stroke:#181818;stroke-width:1;" x1="883.6675" x2="1381.5635" y1="578.4922" y2="578.4922"/><text fill="#000000" font-family="sans-serif" font-size="13" lengthAdjust="spacing" textLength="178.439" x="890.6675" y="524.5811">SELECT produit_id, COUNT(*)</text><text fill="#000000" font-family="sans-serif" font-size="13" lengthAdjust="spacing" textLength="120.6626" x="894.2793" y="540.9326">FROM vente_produit</text><text fill="#000000" font-family="sans-serif" font-size="13" lengthAdjust="spacing" textLength="129.3335" x="894.2793" y="557.2842">GROUP BY produit_id</text><text fill="#000000" font-family="sans-serif" font-size="13" lengthAdjust="spacing" textLength="157.46" x="894.2793" y="573.6357">ORDER BY COUNT DESC</text></g><g class="message" data-participant-1="PostgreSQL" data-participant-2="VenteRepo"><polygon fill="#181818" points="894.6675,604.8438,884.6675,608.8438,894.6675,612.8438,890.6675,608.8438" style="stroke:#181818;stroke-width:1;"/><line style="stroke:#181818;stroke-width:1;stroke-dasharray:2.0,2.0;" x1="888.6675" x2="1386.5635" y1="608.8438" y2="608.8438"/><text fill="#000000" font-family="sans-serif" font-size="13" lengthAdjust="spacing" textLength="72.2617" x="900.6675" y="603.9873">Top produits</text></g><g class="message" data-participant-1="VenteRepo" data-participant-2="Service"><polygon fill="#181818" points="675.5532,635.1953,665.5532,639.1953,675.5532,643.1953,671.5532,639.1953" style="stroke:#181818;stroke-width:1;"/><line style="stroke:#181818;stroke-width:1;stroke-dasharray:2.0,2.0;" x1="669.5532" x2="882.6675" y1="639.1953" y2="639.1953"/><text fill="#000000" font-family="sans-serif" font-size="13" lengthAdjust="spacing" textLength="195.1143" x="681.5532" y="634.3389">Liste des produits les plus vendus</text></g><rect fill="#EEEEEE" height="3" style="stroke:#EEEEEE;stroke-width:1;" width="1433.6943" x="0" y="668.3711"/><line style="stroke:#000000;stroke-width:1;" x1="0" x2="1433.6943" y1="668.3711" y2="668.3711"/><line style="stroke:#000000;stroke-width:1;" x1="0" x2="1433.6943" y1="671.3711" y2="671.3711"/><rect fill="#EEEEEE" height="24.3516" style="stroke:#000000;stroke-width:2;" width="211.9644" x="610.865" y="657.1953"/><text fill="#000000" font-family="sans-serif" font-size="13" font-weight="bold" lengthAdjust="spacing" textLength="194.3525" x="616.865" y="674.6904">&#201;tape 4 : &#201;tat actuel des stocks</text><g class="message" data-participant-1="Service" data-participant-2="StockRepo"><polygon fill="#181818" points="1160.1182,709.8984,1170.1182,713.8984,1160.1182,717.8984,1164.1182,713.8984" style="stroke:#181818;stroke-width:1;"/><line style="stroke:#181818;stroke-width:1;" x1="664.5532" x2="1166.1182" y1="713.8984" y2="713.8984"/><text fill="#000000" font-family="sans-serif" font-size="13" lengthAdjust="spacing" textLength="44.0654" x="671.5532" y="709.042">findAll()</text></g><g class="message" data-participant-1="StockRepo" data-participant-2="PostgreSQL"><polygon fill="#181818" points="1375.5635,740.25,1385.5635,744.25,1375.5635,748.25,1379.5635,744.25" style="stroke:#181818;stroke-width:1;"/><line style="stroke:#181818;stroke-width:1;" x1="1172.1182" x2="1381.5635" y1="744.25" y2="744.25"/><text fill="#000000" font-family="sans-serif" font-size="13" lengthAdjust="spacing" textLength="191.4453" x="1179.1182" y="739.3936">SELECT * FROM stock_magasin</text></g><g class="message" data-participant-1="PostgreSQL" data-participant-2="StockRepo"><polygon fill="#181818" points="1183.1182,770.6016,1173.1182,774.6016,1183.1182,778.6016,1179.1182,774.6016" style="stroke:#181818;stroke-width:1;"/><line style="stroke:#181818;stroke-width:1;stroke-dasharray:2.0,2.0;" x1="1177.1182" x2="1386.5635" y1="774.6016" y2="774.6016"/><text fill="#000000" font-family="sans-serif" font-size="13" lengthAdjust="spacing" textLength="117.0635" x="1189.1182" y="769.7451">List&lt;StockMagasin&gt;</text></g><g class="message" data-participant-1="StockRepo" data-participant-2="Service"><polygon fill="#181818" points="675.5532,800.9531,665.5532,804.9531,675.5532,808.9531,671.5532,804.9531" style="stroke:#181818;stroke-width:1;"/><line style="stroke:#181818;stroke-width:1;stroke-dasharray:2.0,2.0;" x1="669.5532" x2="1171.1182" y1="804.9531" y2="804.9531"/><text fill="#000000" font-family="sans-serif" font-size="13" lengthAdjust="spacing" textLength="107.6626" x="681.5532" y="800.0967">Stock par magasin</text></g><rect fill="#EEEEEE" height="3" style="stroke:#EEEEEE;stroke-width:1;" width="1433.6943" x="0" y="834.1289"/><line style="stroke:#000000;stroke-width:1;" x1="0" x2="1433.6943" y1="834.1289" y2="834.1289"/><line style="stroke:#000000;stroke-width:1;" x1="0" x2="1433.6943" y1="837.1289" y2="837.1289"/><rect fill="#EEEEEE" height="24.3516" style="stroke:#000000;stroke-width:2;" width="304.4307" x="564.6318" y="822.9531"/><text fill="#000000" font-family="sans-serif" font-size="13" font-weight="bold" lengthAdjust="spacing" textLength="286.8188" x="570.6318" y="840.4482">&#201;tape 5 : Assemblage des donn&#233;es et r&#233;ponse</text><g class="message" data-participant-1="Service" data-participant-2="Controller"><polygon fill="#181818" points="520.7725,875.6563,510.7725,879.6563,520.7725,883.6563,516.7725,879.6563" style="stroke:#181818;stroke-width:1;"/><line style="stroke:#181818;stroke-width:1;stroke-dasharray:2.0,2.0;" x1="514.7725" x2="663.5532" y1="879.6563" y2="879.6563"/><text fill="#000000" font-family="sans-serif" font-size="13" lengthAdjust="spacing" textLength="130.7808" x="526.7725" y="874.7998">DTO rapport consolid&#233;</text></g><g class="message" data-participant-1="Controller" data-participant-2="Vue"><polygon fill="#181818" points="290.8164,906.0078,280.8164,910.0078,290.8164,914.0078,286.8164,910.0078" style="stroke:#181818;stroke-width:1;"/><line style="stroke:#181818;stroke-width:1;stroke-dasharray:2.0,2.0;" x1="284.8164" x2="508.7725" y1="910.0078" y2="910.0078"/><text fill="#000000" font-family="sans-serif" font-size="13" lengthAdjust="spacing" textLength="205.9561" x="296.8164" y="905.1514">retourne rapport.html avec donn&#233;es</text></g><g class="message" data-participant-1="Vue" data-participant-2="Gestionnaire"><polygon fill="#181818" points="58.6895,936.3594,48.6895,940.3594,58.6895,944.3594,54.6895,940.3594" style="stroke:#181818;stroke-width:1;"/><line style="stroke:#181818;stroke-width:1;stroke-dasharray:2.0,2.0;" x1="52.6895" x2="278.8164" y1="940.3594" y2="940.3594"/><text fill="#000000" font-family="sans-serif" font-size="13" lengthAdjust="spacing" textLength="208.127" x="64.6895" y="935.5029">affiche rapport des ventes consolid&#233;</text></g><!--SRC=[ZLVDSXj54BxdAQPymQBiKFnTN2HLZcqCb1CRIGb55LNHQBOb3Spkh6TcXNtZoYDmusXnuCGRx9lm97mzEwlTbUAGarRpq_rrzzS_4tGm9Cud4t4iBkjDKMySEL4Lmicoj2u8PGjlZSxgZSZ8YpKL0J-7azBfOYbUM1l43pGVFNdoaNZsx9auLO4g9tXNwL8QNdmYLR1EN98FsXQ5r8vm-eh4ihSY79MktdYMp_ghe8tsCahBI1WfSgczBKHUF-2ql9T5m3aIwmg2Z9rBsE5ns02UBM67PDa-eixqOi6M5S53p59wNVYdBUGpcvVMIzw39U9GEhNIWLIeeEVbcpFHitKKxIcb2vhD0uI3LtAjbmtEU7swki_9a5oC3eJquaqLZVttjpyqB7CBgG0NpbtfMm2_hRGeoUKKsCYrzfM4rTHOaK80-19sm2V5LXN03q2CcwDdjWZE6aCkwkx-0aByK_zZ66Yoo94luI8vX-ioZe2YjTL9ETrMzLySws-cqnjXTBt1jwnQL8yWc91RQqLHVVg6xlI5s6s2XdLijhBMPGX-ZEsoeLuCcSYsIiI9a4kmOXatZaHm-aWeQLHb_2w0DyoSCI6K6coxRvpVhW53joM-kpaLfOKVf5Br9WCWMTsrrAR5WcFFvkwgk74sgtJOKT9R7QhPLr4sHv4_9LL1mB-WMCDqv5SyJuNJu5yA0XAYCa46Fzh5CWbM_VAouV8EeBZr8N0AlIR-HUmzty5kgCWamZ60Nh9aCiYvz0GtM1-MZYRVNnr0mmjUWmIEPUI8WX-TZ2ObkGmus8gzoqAnhmCiO-PxxKEyXQ3xUtm_v0HbIClwzo1B4f-20wS0_U15_QSmWpn2AlQBYZX-pkd6fE4Bm8GRdxHKEhoyc8xUKNUKYPdOb0xmd8ejcNl5xm0cbfLc0qHEHILinRmjvHAM0nGqLgGDe3C20Ebo3tXY2a7_5Wrml2vecsHn3w3WchMzPxyXqMPxIJqRUEOp21xN6rMLNUPq5Hg-wK40e3O7Js1-GQZoIVnXSehgrGVia65lm2yxgHjPP6IXk4WzchW0skhZeBHf2EKBNMIdnhHQM_4PvR9ewZoO4nXENfhw8L3VA2G7BR7j6ieqBEtpfjC4jHrFeNToSNLnDXKVYw_7ro-JlDqey4cEGZAAun3DTQsNOVEGnmb8n1rY7PqreZbKFVt7ErwuWX5VnONdVSo3C5qzweV6TTlY44C7teQ8gZbo9EIQ55mKltCSu0Pt90ZIc66yc78RYq4DcFKvj7-RSPekjEgOjQrUfIqhmyaJQVQUGAVIwA_8tvZAOpkh_6xewOxT6xj-BnPBPzdbAJ67tdsRaCoQy20zkLsdhZb718yzqzVv3s54alLMPqVYxFhrg-dXnoFnKz7ZIQkELo_7rwzln8iVUzTu-NfyVZ7cvIX1d5zCpc3aQTUx8hUKaTx7QdFIV5FEKHlu5iXnEcRX0hTnk51jYLd9y7vQJMsvbVG_l1eePR-L213RYmWDuvFOprCNdvjrbi-wYprAO9Q9tOqAZsEKKYLrjRMMOhRNHuU5xGk0vC-G-b746Xl9Bj-sdUxnmXAxXRFBMCnSrmstFIzII74tgFyEoSRRIhOzAjCy8scGZzdKANn_VOcYtwOCYsquqRhfyNTeaDnxK4pQKf8AMsI4xz31-R7jmyFIjIcxJuA-8s9jwOy7p_km1rIOD1xe9FESo0MjxUNiHQOe6gbSe1YiKfBjJGxAwS3CHZLPoEWjxf1q5wSD51zcnY38Nt9VvmoOczX3-rh18BORpPS60Tzjg-VJwtUyKuRnv_NWE7inGDlvpv3DrmxFCSw8gKCBMK3MDJOKfdi-oeC_fh5OFqyWx1ZYkeTFN4Qmk3mrwTjptsXxV3-rkWn9XmOp5oR2JanCeKO07bRzDhwTS1o1EuuBPcgugv2RLFEJ6_VRkYxOofW9x8EsV-Osgn_mosvlnQBYyiDg-vY17DSy5t0hK3ld0CzW0ZjfQRADIwzx3qCqcEH-nSkfU_wPxhhd35bOl92OQqquBjldK-HOfl54a7dEmQ6xfwsolQXCkO4mP_rz4LOypR249XPS4MFIlQF5nHDDEUhLeNxE_0S0]--></g></svg>