<svg xmlns="http://www.w3.org/2000/svg" xmlns:xlink="http://www.w3.org/1999/xlink" contentStyleType="text/css" data-diagram-type="SEQUENCE" height="1160px" preserveAspectRatio="none" style="width:1582px;height:1160px;background:#FFFFFF;" version="1.1" viewBox="0 0 1582 1160" width="1582px" zoomAndPan="magnify"><title>DSS - Visualiser les performances des magasins (Spring Boot Web)</title><defs/><g><text fill="#000000" font-family="sans-serif" font-size="14" font-weight="bold" lengthAdjust="spacing" textLength="450.4541" x="561.9282" y="29.5332">DSS - Visualiser les performances des magasins (Spring Boot Web)</text><g><title>Gestionnaire</title><rect fill="#000000" fill-opacity="0.00000" height="957.5469" width="8" x="43.6895" y="121.2188"/><line style="stroke:#181818;stroke-width:0.5;stroke-dasharray:5.0,5.0;" x1="47" x2="47" y1="121.2188" y2="1078.7656"/></g><g><title>Navigateur Web (Thymeleaf)</title><rect fill="#000000" fill-opacity="0.00000" height="957.5469" width="8" x="241.1138" y="121.2188"/><line style="stroke:#181818;stroke-width:0.5;stroke-dasharray:5.0,5.0;" x1="244.6382" x2="244.6382" y1="121.2188" y2="1078.7656"/></g><g><title>RapportController</title><rect fill="#000000" fill-opacity="0.00000" height="957.5469" width="8" x="504.3062" y="121.2188"/><line style="stroke:#181818;stroke-width:0.5;stroke-dasharray:5.0,5.0;" x1="508.0581" x2="508.0581" y1="121.2188" y2="1078.7656"/></g><g><title>RapportService</title><rect fill="#000000" fill-opacity="0.00000" height="957.5469" width="8" x="815.9375" y="121.2188"/><line style="stroke:#181818;stroke-width:0.5;stroke-dasharray:5.0,5.0;" x1="819.6929" x2="819.6929" y1="121.2188" y2="1078.7656"/></g><g><title>VenteRepository</title><rect fill="#000000" fill-opacity="0.00000" height="957.5469" width="8" x="1021.2837" y="121.2188"/><line style="stroke:#181818;stroke-width:0.5;stroke-dasharray:5.0,5.0;" x1="1024.5322" x2="1024.5322" y1="121.2188" y2="1078.7656"/></g><g><title>ProduitRepository</title><rect fill="#000000" fill-opacity="0.00000" height="957.5469" width="8" x="1152.6729" y="121.2188"/><line style="stroke:#181818;stroke-width:0.5;stroke-dasharray:5.0,5.0;" x1="1156.0352" x2="1156.0352" y1="121.2188" y2="1078.7656"/></g><g><title>StockMagasinRepository</title><rect fill="#000000" fill-opacity="0.00000" height="957.5469" width="8" x="1309.7344" y="121.2188"/><line style="stroke:#181818;stroke-width:0.5;stroke-dasharray:5.0,5.0;" x1="1313.3105" x2="1313.3105" y1="121.2188" y2="1078.7656"/></g><g><title>PostgreSQL</title><rect fill="#000000" fill-opacity="0.00000" height="957.5469" width="8" x="1525.1797" y="121.2188"/><line style="stroke:#181818;stroke-width:0.5;stroke-dasharray:5.0,5.0;" x1="1529.0488" x2="1529.0488" y1="121.2188" y2="1078.7656"/></g><g class="participant participant-head" data-participant="Gestionnaire"><text fill="#000000" font-family="sans-serif" font-size="14" lengthAdjust="spacing" textLength="79.3789" x="5" y="118.1426">Gestionnaire</text><ellipse cx="47.6895" cy="52.1094" fill="#E2E2F0" rx="8" ry="8" style="stroke:#181818;stroke-width:0.5;"/><path d="M47.6895,60.1094 L47.6895,87.1094 M34.6895,68.1094 L60.6895,68.1094 M47.6895,87.1094 L34.6895,102.1094 M47.6895,87.1094 L60.6895,102.1094" fill="none" style="stroke:#181818;stroke-width:0.5;"/></g><g class="participant participant-tail" data-participant="Gestionnaire"><text fill="#000000" font-family="sans-serif" font-size="14" lengthAdjust="spacing" textLength="79.3789" x="5" y="1092.2988">Gestionnaire</text><ellipse cx="47.6895" cy="1103.875" fill="#E2E2F0" rx="8" ry="8" style="stroke:#181818;stroke-width:0.5;"/><path d="M47.6895,1111.875 L47.6895,1138.875 M34.6895,1119.875 L60.6895,1119.875 M47.6895,1138.875 L34.6895,1153.875 M47.6895,1138.875 L60.6895,1153.875" fill="none" style="stroke:#181818;stroke-width:0.5;"/></g><g class="participant participant-head" data-participant="Vue"><rect fill="#E2E2F0" height="31.6094" rx="2.5" ry="2.5" style="stroke:#181818;stroke-width:0.5;" width="192.9512" x="148.6382" y="88.6094"/><text fill="#000000" font-family="sans-serif" font-size="14" lengthAdjust="spacing" textLength="178.9512" x="155.6382" y="110.1426">Navigateur Web (Thymeleaf)</text></g><g class="participant participant-tail" data-participant="Vue"><rect fill="#E2E2F0" height="31.6094" rx="2.5" ry="2.5" style="stroke:#181818;stroke-width:0.5;" width="192.9512" x="148.6382" y="1077.7656"/><text fill="#000000" font-family="sans-serif" font-size="14" lengthAdjust="spacing" textLength="178.9512" x="155.6382" y="1099.2988">Navigateur Web (Thymeleaf)</text></g><g class="participant participant-head" data-participant="Controller"><rect fill="#E2E2F0" height="31.6094" rx="2.5" ry="2.5" style="stroke:#181818;stroke-width:0.5;" width="124.4961" x="446.0581" y="88.6094"/><text fill="#000000" font-family="sans-serif" font-size="14" lengthAdjust="spacing" textLength="110.4961" x="453.0581" y="110.1426">RapportController</text></g><g class="participant participant-tail" data-participant="Controller"><rect fill="#E2E2F0" height="31.6094" rx="2.5" ry="2.5" style="stroke:#181818;stroke-width:0.5;" width="124.4961" x="446.0581" y="1077.7656"/><text fill="#000000" font-family="sans-serif" font-size="14" lengthAdjust="spacing" textLength="110.4961" x="453.0581" y="1099.2988">RapportController</text></g><g class="participant participant-head" data-participant="Service"><rect fill="#E2E2F0" height="31.6094" rx="2.5" ry="2.5" style="stroke:#181818;stroke-width:0.5;" width="110.4893" x="764.6929" y="88.6094"/><text fill="#000000" font-family="sans-serif" font-size="14" lengthAdjust="spacing" textLength="96.4893" x="771.6929" y="110.1426">RapportService</text></g><g class="participant participant-tail" data-participant="Service"><rect fill="#E2E2F0" height="31.6094" rx="2.5" ry="2.5" style="stroke:#181818;stroke-width:0.5;" width="110.4893" x="764.6929" y="1077.7656"/><text fill="#000000" font-family="sans-serif" font-size="14" lengthAdjust="spacing" textLength="96.4893" x="771.6929" y="1099.2988">RapportService</text></g><g class="participant participant-head" data-participant="VenteRepo"><rect fill="#E2E2F0" height="31.6094" rx="2.5" ry="2.5" style="stroke:#181818;stroke-width:0.5;" width="117.5029" x="966.5322" y="88.6094"/><text fill="#000000" font-family="sans-serif" font-size="14" lengthAdjust="spacing" textLength="103.5029" x="973.5322" y="110.1426">VenteRepository</text></g><g class="participant participant-tail" data-participant="VenteRepo"><rect fill="#E2E2F0" height="31.6094" rx="2.5" ry="2.5" style="stroke:#181818;stroke-width:0.5;" width="117.5029" x="966.5322" y="1077.7656"/><text fill="#000000" font-family="sans-serif" font-size="14" lengthAdjust="spacing" textLength="103.5029" x="973.5322" y="1099.2988">VenteRepository</text></g><g class="participant participant-head" data-participant="ProduitRepo"><rect fill="#E2E2F0" height="31.6094" rx="2.5" ry="2.5" style="stroke:#181818;stroke-width:0.5;" width="125.2754" x="1094.0352" y="88.6094"/><text fill="#000000" font-family="sans-serif" font-size="14" lengthAdjust="spacing" textLength="111.2754" x="1101.0352" y="110.1426">ProduitRepository</text></g><g class="participant participant-tail" data-participant="ProduitRepo"><rect fill="#E2E2F0" height="31.6094" rx="2.5" ry="2.5" style="stroke:#181818;stroke-width:0.5;" width="125.2754" x="1094.0352" y="1077.7656"/><text fill="#000000" font-family="sans-serif" font-size="14" lengthAdjust="spacing" textLength="111.2754" x="1101.0352" y="1099.2988">ProduitRepository</text></g><g class="participant participant-head" data-participant="StockRepo"><rect fill="#E2E2F0" height="31.6094" rx="2.5" ry="2.5" style="stroke:#181818;stroke-width:0.5;" width="168.8477" x="1229.3105" y="88.6094"/><text fill="#000000" font-family="sans-serif" font-size="14" lengthAdjust="spacing" textLength="154.8477" x="1236.3105" y="110.1426">StockMagasinRepository</text></g><g class="participant participant-tail" data-participant="StockRepo"><rect fill="#E2E2F0" height="31.6094" rx="2.5" ry="2.5" style="stroke:#181818;stroke-width:0.5;" width="168.8477" x="1229.3105" y="1077.7656"/><text fill="#000000" font-family="sans-serif" font-size="14" lengthAdjust="spacing" textLength="154.8477" x="1236.3105" y="1099.2988">StockMagasinRepository</text></g><g class="participant participant-head" data-participant="PostgreSQL"><text fill="#000000" font-family="sans-serif" font-size="14" lengthAdjust="spacing" textLength="76.2617" x="1488.0488" y="118.1426">PostgreSQL</text><path d="M1511.1797,67.6094 C1511.1797,57.6094 1529.1797,57.6094 1529.1797,57.6094 C1529.1797,57.6094 1547.1797,57.6094 1547.1797,67.6094 L1547.1797,93.6094 C1547.1797,103.6094 1529.1797,103.6094 1529.1797,103.6094 C1529.1797,103.6094 1511.1797,103.6094 1511.1797,93.6094 L1511.1797,67.6094" fill="#E2E2F0" style="stroke:#181818;stroke-width:1.5;"/><path d="M1511.1797,67.6094 C1511.1797,77.6094 1529.1797,77.6094 1529.1797,77.6094 C1529.1797,77.6094 1547.1797,77.6094 1547.1797,67.6094" fill="none" style="stroke:#181818;stroke-width:1.5;"/></g><g class="participant participant-tail" data-participant="PostgreSQL"><text fill="#000000" font-family="sans-serif" font-size="14" lengthAdjust="spacing" textLength="76.2617" x="1488.0488" y="1092.2988">PostgreSQL</text><path d="M1511.1797,1105.375 C1511.1797,1095.375 1529.1797,1095.375 1529.1797,1095.375 C1529.1797,1095.375 1547.1797,1095.375 1547.1797,1105.375 L1547.1797,1131.375 C1547.1797,1141.375 1529.1797,1141.375 1529.1797,1141.375 C1529.1797,1141.375 1511.1797,1141.375 1511.1797,1131.375 L1511.1797,1105.375" fill="#E2E2F0" style="stroke:#181818;stroke-width:1.5;"/><path d="M1511.1797,1105.375 C1511.1797,1115.375 1529.1797,1115.375 1529.1797,1115.375 C1529.1797,1115.375 1547.1797,1115.375 1547.1797,1105.375" fill="none" style="stroke:#181818;stroke-width:1.5;"/></g><rect fill="#EEEEEE" height="3" style="stroke:#EEEEEE;stroke-width:1;" width="1575.3105" x="0" y="152.3945"/><line style="stroke:#000000;stroke-width:1;" x1="0" x2="1575.3105" y1="152.3945" y2="152.3945"/><line style="stroke:#000000;stroke-width:1;" x1="0" x2="1575.3105" y1="155.3945" y2="155.3945"/><rect fill="#EEEEEE" height="24.3516" style="stroke:#000000;stroke-width:2;" width="232.8989" x="671.2058" y="141.2188"/><text fill="#000000" font-family="sans-serif" font-size="13" font-weight="bold" lengthAdjust="spacing" textLength="215.2871" x="677.2058" y="158.7139">&#201;tape 1 : Acc&#232;s au tableau de bord</text><g class="message" data-participant-1="Gestionnaire" data-participant-2="Vue"><polygon fill="#181818" points="233.1138,193.9219,243.1138,197.9219,233.1138,201.9219,237.1138,197.9219" style="stroke:#181818;stroke-width:1;"/><line style="stroke:#181818;stroke-width:1;" x1="47.6895" x2="239.1138" y1="197.9219" y2="197.9219"/><text fill="#000000" font-family="sans-serif" font-size="13" lengthAdjust="spacing" textLength="160.418" x="54.6895" y="193.0654">acc&#232;de &#224; /dashboard (GET)</text></g><g class="message" data-participant-1="Vue" data-participant-2="Controller"><polygon fill="#181818" points="496.3062,224.2734,506.3062,228.2734,496.3062,232.2734,500.3062,228.2734" style="stroke:#181818;stroke-width:1;"/><line style="stroke:#181818;stroke-width:1;" x1="245.1138" x2="502.3062" y1="228.2734" y2="228.2734"/><text fill="#000000" font-family="sans-serif" font-size="13" lengthAdjust="spacing" textLength="132.939" x="252.1138" y="223.417">HTTP GET /dashboard</text></g><rect fill="#EEEEEE" height="3" style="stroke:#EEEEEE;stroke-width:1;" width="1575.3105" x="0" y="257.4492"/><line style="stroke:#000000;stroke-width:1;" x1="0" x2="1575.3105" y1="257.4492" y2="257.4492"/><line style="stroke:#000000;stroke-width:1;" x1="0" x2="1575.3105" y1="260.4492" y2="260.4492"/><rect fill="#EEEEEE" height="24.3516" style="stroke:#000000;stroke-width:2;" width="362.4038" x="606.4534" y="246.2734"/><text fill="#000000" font-family="sans-serif" font-size="13" font-weight="bold" lengthAdjust="spacing" textLength="344.792" x="612.4534" y="263.7686">&#201;tape 2 : R&#233;cup&#233;ration du chiffre d'affaires par magasin</text><g class="message" data-participant-1="Controller" data-participant-2="Service"><polygon fill="#181818" points="807.9375,298.9766,817.9375,302.9766,807.9375,306.9766,811.9375,302.9766" style="stroke:#181818;stroke-width:1;"/><line style="stroke:#181818;stroke-width:1;" x1="508.3062" x2="813.9375" y1="302.9766" y2="302.9766"/><text fill="#000000" font-family="sans-serif" font-size="13" lengthAdjust="spacing" textLength="178.458" x="515.3062" y="298.1201">getChiffreAffairesParMagasin()</text></g><g class="message" data-participant-1="Service" data-participant-2="VenteRepo"><polygon fill="#181818" points="1013.2837,329.3281,1023.2837,333.3281,1013.2837,337.3281,1017.2837,333.3281" style="stroke:#181818;stroke-width:1;"/><line style="stroke:#181818;stroke-width:1;" x1="819.9375" x2="1019.2837" y1="333.3281" y2="333.3281"/><text fill="#000000" font-family="sans-serif" font-size="13" lengthAdjust="spacing" textLength="181.3462" x="826.9375" y="328.4717">findChiffreAffairesParMagasin()</text></g><g class="message" data-participant-1="VenteRepo" data-participant-2="PostgreSQL"><polygon fill="#181818" points="1517.1797,392.3828,1527.1797,396.3828,1517.1797,400.3828,1521.1797,396.3828" style="stroke:#181818;stroke-width:1;"/><line style="stroke:#181818;stroke-width:1;" x1="1025.2837" x2="1523.1797" y1="396.3828" y2="396.3828"/><text fill="#000000" font-family="sans-serif" font-size="13" lengthAdjust="spacing" textLength="244.2134" x="1032.2837" y="358.8232">SELECT magasin_id, SUM(montant_total)</text><text fill="#000000" font-family="sans-serif" font-size="13" lengthAdjust="spacing" textLength="80.1836" x="1035.8955" y="375.1748">FROM ventes</text><text fill="#000000" font-family="sans-serif" font-size="13" lengthAdjust="spacing" textLength="138.7217" x="1035.8955" y="391.5264">GROUP BY magasin_id</text></g><g class="message" data-participant-1="PostgreSQL" data-participant-2="VenteRepo"><polygon fill="#181818" points="1036.2837,422.7344,1026.2837,426.7344,1036.2837,430.7344,1032.2837,426.7344" style="stroke:#181818;stroke-width:1;"/><line style="stroke:#181818;stroke-width:1;stroke-dasharray:2.0,2.0;" x1="1030.2837" x2="1528.1797" y1="426.7344" y2="426.7344"/><text fill="#000000" font-family="sans-serif" font-size="13" lengthAdjust="spacing" textLength="125.0298" x="1042.2837" y="421.8779">List&lt;{magasin, total}&gt;</text></g><g class="message" data-participant-1="VenteRepo" data-participant-2="Service"><polygon fill="#181818" points="830.9375,453.0859,820.9375,457.0859,830.9375,461.0859,826.9375,457.0859" style="stroke:#181818;stroke-width:1;"/><line style="stroke:#181818;stroke-width:1;stroke-dasharray:2.0,2.0;" x1="824.9375" x2="1024.2837" y1="457.0859" y2="457.0859"/><text fill="#000000" font-family="sans-serif" font-size="13" lengthAdjust="spacing" textLength="104.7808" x="836.9375" y="452.2295">R&#233;sultats agr&#233;g&#233;s</text></g><rect fill="#EEEEEE" height="3" style="stroke:#EEEEEE;stroke-width:1;" width="1575.3105" x="0" y="486.2617"/><line style="stroke:#000000;stroke-width:1;" x1="0" x2="1575.3105" y1="486.2617" y2="486.2617"/><line style="stroke:#000000;stroke-width:1;" x1="0" x2="1575.3105" y1="489.2617" y2="489.2617"/><rect fill="#EEEEEE" height="24.3516" style="stroke:#000000;stroke-width:2;" width="286.3779" x="644.4663" y="475.0859"/><text fill="#000000" font-family="sans-serif" font-size="13" font-weight="bold" lengthAdjust="spacing" textLength="268.7661" x="650.4663" y="492.5811">&#201;tape 3 : R&#233;cup&#233;ration des alertes de stock</text><g class="message" data-participant-1="Controller" data-participant-2="Service"><polygon fill="#181818" points="807.9375,527.7891,817.9375,531.7891,807.9375,535.7891,811.9375,531.7891" style="stroke:#181818;stroke-width:1;"/><line style="stroke:#181818;stroke-width:1;" x1="508.3062" x2="813.9375" y1="531.7891" y2="531.7891"/><text fill="#000000" font-family="sans-serif" font-size="13" lengthAdjust="spacing" textLength="204.4834" x="515.3062" y="526.9326">getProduitsEnRuptureOuSurstock()</text></g><g class="message" data-participant-1="Service" data-participant-2="StockRepo"><polygon fill="#181818" points="1301.7344,558.1406,1311.7344,562.1406,1301.7344,566.1406,1305.7344,562.1406" style="stroke:#181818;stroke-width:1;"/><line style="stroke:#181818;stroke-width:1;" x1="819.9375" x2="1307.7344" y1="562.1406" y2="562.1406"/><text fill="#000000" font-family="sans-serif" font-size="13" lengthAdjust="spacing" textLength="44.0654" x="826.9375" y="557.2842">findAll()</text></g><g class="message" data-participant-1="StockRepo" data-participant-2="PostgreSQL"><polygon fill="#181818" points="1517.1797,588.4922,1527.1797,592.4922,1517.1797,596.4922,1521.1797,592.4922" style="stroke:#181818;stroke-width:1;"/><line style="stroke:#181818;stroke-width:1;" x1="1313.7344" x2="1523.1797" y1="592.4922" y2="592.4922"/><text fill="#000000" font-family="sans-serif" font-size="13" lengthAdjust="spacing" textLength="191.4453" x="1320.7344" y="587.6357">SELECT * FROM stock_magasin</text></g><g class="message" data-participant-1="PostgreSQL" data-participant-2="StockRepo"><polygon fill="#181818" points="1324.7344,618.8438,1314.7344,622.8438,1324.7344,626.8438,1320.7344,622.8438" style="stroke:#181818;stroke-width:1;"/><line style="stroke:#181818;stroke-width:1;stroke-dasharray:2.0,2.0;" x1="1318.7344" x2="1528.1797" y1="622.8438" y2="622.8438"/><text fill="#000000" font-family="sans-serif" font-size="13" lengthAdjust="spacing" textLength="117.0635" x="1330.7344" y="617.9873">List&lt;StockMagasin&gt;</text></g><g class="message" data-participant-1="StockRepo" data-participant-2="Service"><polygon fill="#181818" points="830.9375,649.1953,820.9375,653.1953,830.9375,657.1953,826.9375,653.1953" style="stroke:#181818;stroke-width:1;"/><line style="stroke:#181818;stroke-width:1;stroke-dasharray:2.0,2.0;" x1="824.9375" x2="1312.7344" y1="653.1953" y2="653.1953"/><text fill="#000000" font-family="sans-serif" font-size="13" lengthAdjust="spacing" textLength="81.6436" x="836.9375" y="648.3389">Stock complet</text></g><g class="message" data-participant-1="Service" data-participant-2="Service"><line style="stroke:#181818;stroke-width:1;" x1="819.9375" x2="861.9375" y1="683.5469" y2="683.5469"/><line style="stroke:#181818;stroke-width:1;" x1="861.9375" x2="861.9375" y1="683.5469" y2="696.5469"/><line style="stroke:#181818;stroke-width:1;" x1="820.9375" x2="861.9375" y1="696.5469" y2="696.5469"/><polygon fill="#181818" points="830.9375,692.5469,820.9375,696.5469,830.9375,700.5469,826.9375,696.5469" style="stroke:#181818;stroke-width:1;"/><text fill="#000000" font-family="sans-serif" font-size="13" lengthAdjust="spacing" textLength="153.1563" x="826.9375" y="678.6904">filtrer ruptures et surstocks</text></g><rect fill="#EEEEEE" height="3" style="stroke:#EEEEEE;stroke-width:1;" width="1575.3105" x="0" y="725.7227"/><line style="stroke:#000000;stroke-width:1;" x1="0" x2="1575.3105" y1="725.7227" y2="725.7227"/><line style="stroke:#000000;stroke-width:1;" x1="0" x2="1575.3105" y1="728.7227" y2="728.7227"/><rect fill="#EEEEEE" height="24.3516" style="stroke:#000000;stroke-width:2;" width="318.8906" x="628.21" y="714.5469"/><text fill="#000000" font-family="sans-serif" font-size="13" font-weight="bold" lengthAdjust="spacing" textLength="301.2788" x="634.21" y="732.042">&#201;tape 4 : Analyse des tendances hebdomadaires</text><g class="message" data-participant-1="Controller" data-participant-2="Service"><polygon fill="#181818" points="807.9375,767.25,817.9375,771.25,807.9375,775.25,811.9375,771.25" style="stroke:#181818;stroke-width:1;"/><line style="stroke:#181818;stroke-width:1;" x1="508.3062" x2="813.9375" y1="771.25" y2="771.25"/><text fill="#000000" font-family="sans-serif" font-size="13" lengthAdjust="spacing" textLength="129.3589" x="515.3062" y="766.3936">getTendancesHebdo()</text></g><g class="message" data-participant-1="Service" data-participant-2="VenteRepo"><polygon fill="#181818" points="1013.2837,797.6016,1023.2837,801.6016,1013.2837,805.6016,1017.2837,801.6016" style="stroke:#181818;stroke-width:1;"/><line style="stroke:#181818;stroke-width:1;" x1="819.9375" x2="1019.2837" y1="801.6016" y2="801.6016"/><text fill="#000000" font-family="sans-serif" font-size="13" lengthAdjust="spacing" textLength="141.6289" x="826.9375" y="796.7451">findVentesParSemaine()</text></g><g class="message" data-participant-1="VenteRepo" data-participant-2="PostgreSQL"><polygon fill="#181818" points="1517.1797,860.6563,1527.1797,864.6563,1517.1797,868.6563,1521.1797,864.6563" style="stroke:#181818;stroke-width:1;"/><line style="stroke:#181818;stroke-width:1;" x1="1025.2837" x2="1523.1797" y1="864.6563" y2="864.6563"/><text fill="#000000" font-family="sans-serif" font-size="13" lengthAdjust="spacing" textLength="289.0024" x="1032.2837" y="827.0967">SELECT WEEK(date_vente), SUM(montant_total)</text><text fill="#000000" font-family="sans-serif" font-size="13" lengthAdjust="spacing" textLength="80.1836" x="1035.8955" y="843.4482">FROM ventes</text><text fill="#000000" font-family="sans-serif" font-size="13" lengthAdjust="spacing" textLength="183.5107" x="1035.8955" y="859.7998">GROUP BY WEEK(date_vente)</text></g><g class="message" data-participant-1="PostgreSQL" data-participant-2="VenteRepo"><polygon fill="#181818" points="1036.2837,891.0078,1026.2837,895.0078,1036.2837,899.0078,1032.2837,895.0078" style="stroke:#181818;stroke-width:1;"/><line style="stroke:#181818;stroke-width:1;stroke-dasharray:2.0,2.0;" x1="1030.2837" x2="1528.1797" y1="895.0078" y2="895.0078"/><text fill="#000000" font-family="sans-serif" font-size="13" lengthAdjust="spacing" textLength="147.4307" x="1042.2837" y="890.1514">List&lt;{semaine, montant}&gt;</text></g><g class="message" data-participant-1="VenteRepo" data-participant-2="Service"><polygon fill="#181818" points="830.9375,921.3594,820.9375,925.3594,830.9375,929.3594,826.9375,925.3594" style="stroke:#181818;stroke-width:1;"/><line style="stroke:#181818;stroke-width:1;stroke-dasharray:2.0,2.0;" x1="824.9375" x2="1024.2837" y1="925.3594" y2="925.3594"/><text fill="#000000" font-family="sans-serif" font-size="13" lengthAdjust="spacing" textLength="113.4771" x="836.9375" y="920.5029">tendances de vente</text></g><rect fill="#EEEEEE" height="3" style="stroke:#EEEEEE;stroke-width:1;" width="1575.3105" x="0" y="954.5352"/><line style="stroke:#000000;stroke-width:1;" x1="0" x2="1575.3105" y1="954.5352" y2="954.5352"/><line style="stroke:#000000;stroke-width:1;" x1="0" x2="1575.3105" y1="957.5352" y2="957.5352"/><rect fill="#EEEEEE" height="24.3516" style="stroke:#000000;stroke-width:2;" width="156.3145" x="709.498" y="943.3594"/><text fill="#000000" font-family="sans-serif" font-size="13" font-weight="bold" lengthAdjust="spacing" textLength="138.7026" x="715.498" y="960.8545">&#201;tape 5 : Rendu visuel</text><g class="message" data-participant-1="Service" data-participant-2="Controller"><polygon fill="#181818" points="519.3062,996.0625,509.3062,1000.0625,519.3062,1004.0625,515.3062,1000.0625" style="stroke:#181818;stroke-width:1;"/><line style="stroke:#181818;stroke-width:1;stroke-dasharray:2.0,2.0;" x1="513.3062" x2="818.9375" y1="1000.0625" y2="1000.0625"/><text fill="#000000" font-family="sans-serif" font-size="13" lengthAdjust="spacing" textLength="287.6313" x="525.3062" y="995.2061">donn&#233;es tableau de bord (CA, alertes, tendances)</text></g><g class="message" data-participant-1="Controller" data-participant-2="Vue"><polygon fill="#181818" points="256.1138,1026.4141,246.1138,1030.4141,256.1138,1034.4141,252.1138,1030.4141" style="stroke:#181818;stroke-width:1;"/><line style="stroke:#181818;stroke-width:1;stroke-dasharray:2.0,2.0;" x1="250.1138" x2="507.3062" y1="1030.4141" y2="1030.4141"/><text fill="#000000" font-family="sans-serif" font-size="13" lengthAdjust="spacing" textLength="239.1924" x="262.1138" y="1025.5576">retourne dashboard.html avec indicateurs</text></g><g class="message" data-participant-1="Vue" data-participant-2="Gestionnaire"><polygon fill="#181818" points="58.6895,1056.7656,48.6895,1060.7656,58.6895,1064.7656,54.6895,1060.7656" style="stroke:#181818;stroke-width:1;"/><line style="stroke:#181818;stroke-width:1;stroke-dasharray:2.0,2.0;" x1="52.6895" x2="244.1138" y1="1060.7656" y2="1060.7656"/><text fill="#000000" font-family="sans-serif" font-size="13" lengthAdjust="spacing" textLength="173.4243" x="64.6895" y="1055.9092">affiche KPI, alertes et courbes</text></g><!--SRC=[bLVDRXit4BxxAGQ-H2hazFzY90OSnqtQsBKhAGuA572eNKeYkdyXkMgCea2lVOJUUhHxxXleJVea_ORaxd9NZf4U16XtISutCzzyCxJAPfAUpsPqG5VAr29JHchAfA5AwcMfSr4aU4ZnoyLA65KO6iqghOeLFIjBIs_aOhotzuYUFdrAnucLjIR-cgXAPFnoJoIsrFH26glAeX1AIwm-axIAtf2MbTxU6LbOINL1jLK08jnfuaOK5YybRMf9wR-__oaB8_C5S9lQGoshxPqMV5eVwUC6s4cPLwN1EORnqaZePAsiJ6mDs-TN9nHvD7QeAw6jOYTWU_zxiL4hZyPjdwzlSfb9iHplap1qLRDBtmAxNef4qYzOuptOtacgIdPYkLJ9EaHM5QbAt766DWYwp11JA-2HgDzFQAL5jLRlQcac93AfhJHZUD93D1LLLMfxKXPMbnaMEI3T8_2uX-q_6QCExgquJDZE8BHyLs__njdqSZw_f4m1go5HKm22GDAYrEa7BC-atgX4EhFXFso6VvHlxwo2jyWfCyhR9Ai5WfuZoHFAa4UnmlULonj9wryL8hinqcKn1JaOr1315RDaAf5G1MRT-1Gqxm2Y-zHc8IGXIRPtAM0XpBJX7OPaeULA6KIAtH-15ikbzZH3pfYRo8ALHUhgO0ASoUETR5pgCgsL7M2AtWBLwA9oT9SPOTyuHebAowMrV1I2dkZIrM0S0fIKEykGKOGtW68Osn38p9R9p-UU_GCqxjDkX08pV6Zu38vDeJPCHKPZU9k3jHQWP5DQC9mAC4KWL_kNfR4hBMS_dEtZy6V2vQ_3hcKcWkiWGOAuQn5g8weIeScMjN7SJBfotIZHO7mEW_JTvJ5iewItVrXHIVgS3Y4xoVRsFkwYalTYuQ638ovMR65_Rx5g-nTzcWgpNfG2oqSlJkVZUzGfoRWSdTpip_iczWbHCuwxgYS0Zd7b0jHHcYMDvQr6NT0gAnSYWnEC182weWKkLuj04Q5YFA8jLxy2uBYQ2fE3Ad3SbZb238nSN1o892h-jpjYyRONmYzWTmfErQsAKeeJcafurDI1or78FqSs0Wutcj8_HEZiYTzy77PU2Xr8EGhXZV41dMC62teuf1SyLexIefjmHVYodI0UArqouXWLt6fWSAORJG2c9JJtOL3J9i18hBr1M5vCBrvVqhCVIRxduDXMotSgeJC4grqnmEpizEpqPDuilLRfX6QlpqSvl0UxhvrRO_gfe6-c5-UD9E6njTtjZ27ouOC64-8HEammO0R1YR0T309q1WryycjOEl41_-t8SyzLkPOeJrr8rubXsKUgyimOzJT6cHhtuzCZofHB8hC2E7qhmBEZX_7LuZyP-D9OnrllRjTAgAn3TnKhsUFrb_VmcbkSRwcTk3rCvQ3YvhIOrXNF2nVr38sRTzv7vbHYOagboq9ZQTIgDxwzgrrYW5eMh2Zkf76VkQrM1-OUPrbZgwaG9pQwNCbEDNTKspUzgdBgfNtYofMJCgnPgWnHT37hx7s0m9zuWhfZhqEk7Hu_GR5UPzjRw_ls3WuukXWqXLqonZuxCiQzx2Y6sCkGU-y1IClZthnZHZE57AA4uMhIKg3D1v1fdrLEI9EDNYfQIovUFDFu3OP7bcQ7wIUdYVamv4RM2hFU8M7v0GK-SKjtf52G692HFcCiJ_nYobsW3wZXN7_rKRDAl8-P_nKtnMYIQkSNMij5YbwH-h9zcFdpPjTBtlGGsTdDU78BGiRYWqbTg2A8rAP_msXXFQpRxfdbUkRF6fP2N7B1SjiT-YW-HglVd9w-6c6saTVkhF7_LUpX_aX2-qDHAwVTQ11dnrza6Xt7MMbjFaR2WwkJPYz4_4Fwsz42o1nQlZRqnavPRzn4aIckA2SYtVq4RG3B7DXH0cyMldc6KySzCVwQnPYT23SUvbwRy-4KrDeVpdEZa-FsJXIDvHpaULbpAh8OVZGfXpxIz1bVlbeMc_AckVX4p0Rqk33QiR7DMZkTFLxRF2EnaKbyhVD9hw2kcDVEpzoyfjbxwPSERu7GhnoVhDLgKIFT25DUfjjRZ3xjNREP606cDzCUDfTBUdNvRHiTTi_dn87fZQVC3CrZOt_AFNH2moL-poKedYJ2kaX74wtS-8bUv-rxvH-tAtUfDf2YKNVh7U_z1m00]--></g></svg>