<svg xmlns="http://www.w3.org/2000/svg" xmlns:xlink="http://www.w3.org/1999/xlink" contentStyleType="text/css" data-diagram-type="CLASS" height="603px" preserveAspectRatio="none" style="width:1937px;height:603px;background:#FFFFFF;" version="1.1" viewBox="0 0 1937 603" width="1937px" zoomAndPan="magnify"><title>Vue d&#8217;impl&#233;mentation - Organisation des modules (MVC + Service + Repository)</title><defs/><g><text fill="#000000" font-family="sans-serif" font-size="14" font-weight="bold" lengthAdjust="spacing" textLength="532.8955" x="695.0522" y="24.5332">Vue d&#8217;impl&#233;mentation - Organisation des modules (MVC + Service + Repository)</text><!--cluster com--><g class="cluster" data-entity="com" data-source-line="5" data-uid="ent0004" id="cluster_com"><path d="M8.5,44.6094 L38.2861,44.6094 A3.75,3.75 0 0 1 40.7861,47.1094 L47.7861,68.2188 L1927.5,68.2188 A2.5,2.5 0 0 1 1930,70.7188 L1930,594.1094 A2.5,2.5 0 0 1 1927.5,596.6094 L8.5,596.6094 A2.5,2.5 0 0 1 6,594.1094 L6,47.1094 A2.5,2.5 0 0 1 8.5,44.6094" fill="none" style="stroke:#000000;stroke-width:1.5;"/><line style="stroke:#000000;stroke-width:1.5;" x1="6" x2="47.7861" y1="68.2188" y2="68.2188"/><text fill="#000000" font-family="sans-serif" font-size="14" font-weight="bold" lengthAdjust="spacing" textLength="28.7861" x="10" y="61.1426">com</text></g><!--cluster log430--><g class="cluster" data-entity="log430" data-source-line="5" data-uid="ent0005" id="cluster_log430"><path d="M32.5,88.6094 L77.8516,88.6094 A3.75,3.75 0 0 1 80.3516,91.1094 L87.3516,112.2188 L1903.5,112.2188 A2.5,2.5 0 0 1 1906,114.7188 L1906,570.1094 A2.5,2.5 0 0 1 1903.5,572.6094 L32.5,572.6094 A2.5,2.5 0 0 1 30,570.1094 L30,91.1094 A2.5,2.5 0 0 1 32.5,88.6094" fill="none" style="stroke:#000000;stroke-width:1.5;"/><line style="stroke:#000000;stroke-width:1.5;" x1="30" x2="87.3516" y1="112.2188" y2="112.2188"/><text fill="#000000" font-family="sans-serif" font-size="14" font-weight="bold" lengthAdjust="spacing" textLength="44.3516" x="34" y="105.1426">log430</text></g><!--cluster tp2--><g class="cluster" data-entity="tp2" data-source-line="5" data-uid="ent0006" id="cluster_tp2"><path d="M56.5,132.6094 L78.5,132.6094 A3.75,3.75 0 0 1 81,135.1094 L88,156.2188 L1879.5,156.2188 A2.5,2.5 0 0 1 1882,158.7188 L1882,546.1094 A2.5,2.5 0 0 1 1879.5,548.6094 L56.5,548.6094 A2.5,2.5 0 0 1 54,546.1094 L54,135.1094 A2.5,2.5 0 0 1 56.5,132.6094" fill="none" style="stroke:#000000;stroke-width:1.5;"/><line style="stroke:#000000;stroke-width:1.5;" x1="54" x2="88" y1="156.2188" y2="156.2188"/><text fill="#000000" font-family="sans-serif" font-size="14" font-weight="bold" lengthAdjust="spacing" textLength="21" x="58" y="149.1426">tp2</text></g><!--cluster controller--><g class="cluster" data-entity="controller" data-source-line="4" data-uid="ent0002" id="cluster_controller"><path d="M658.5,176.6094 L724.0654,176.6094 A3.75,3.75 0 0 1 726.5654,179.1094 L733.5654,200.2188 L1739.5,200.2188 A2.5,2.5 0 0 1 1742,202.7188 L1742,274.1094 A2.5,2.5 0 0 1 1739.5,276.6094 L658.5,276.6094 A2.5,2.5 0 0 1 656,274.1094 L656,179.1094 A2.5,2.5 0 0 1 658.5,176.6094" fill="none" style="stroke:#000000;stroke-width:1.5;"/><line style="stroke:#000000;stroke-width:1.5;" x1="656" x2="733.5654" y1="200.2188" y2="200.2188"/><text fill="#000000" font-family="sans-serif" font-size="14" font-weight="bold" lengthAdjust="spacing" textLength="64.5654" x="660" y="193.1426">controller</text></g><!--cluster service--><g class="cluster" data-entity="service" data-source-line="13" data-uid="ent0012" id="cluster_service"><path d="M1114.5,300.6094 L1163.7686,300.6094 A3.75,3.75 0 0 1 1166.2686,303.1094 L1173.2686,324.2188 L1464.5,324.2188 A2.5,2.5 0 0 1 1467,326.7188 L1467,398.1094 A2.5,2.5 0 0 1 1464.5,400.6094 L1114.5,400.6094 A2.5,2.5 0 0 1 1112,398.1094 L1112,303.1094 A2.5,2.5 0 0 1 1114.5,300.6094" fill="none" style="stroke:#000000;stroke-width:1.5;"/><line style="stroke:#000000;stroke-width:1.5;" x1="1112" x2="1173.2686" y1="324.2188" y2="324.2188"/><text fill="#000000" font-family="sans-serif" font-size="14" font-weight="bold" lengthAdjust="spacing" textLength="48.2686" x="1116" y="317.1426">service</text></g><!--cluster repository--><g class="cluster" data-entity="repository" data-source-line="18" data-uid="ent0015" id="cluster_repository"><path d="M524.5,424.6094 L593.9619,424.6094 A3.75,3.75 0 0 1 596.4619,427.1094 L603.4619,448.2188 L1855.5,448.2188 A2.5,2.5 0 0 1 1858,450.7188 L1858,522.1094 A2.5,2.5 0 0 1 1855.5,524.6094 L524.5,524.6094 A2.5,2.5 0 0 1 522,522.1094 L522,427.1094 A2.5,2.5 0 0 1 524.5,424.6094" fill="none" style="stroke:#000000;stroke-width:1.5;"/><line style="stroke:#000000;stroke-width:1.5;" x1="522" x2="603.4619" y1="448.2188" y2="448.2188"/><text fill="#000000" font-family="sans-serif" font-size="14" font-weight="bold" lengthAdjust="spacing" textLength="68.4619" x="526" y="441.1426">repository</text></g><!--cluster model--><g class="cluster" data-entity="model" data-source-line="28" data-uid="ent0023" id="cluster_model"><path d="M80.5,176.6094 L122.7275,176.6094 A3.75,3.75 0 0 1 125.2275,179.1094 L132.2275,200.2188 L495.5,200.2188 A2.5,2.5 0 0 1 498,202.7188 L498,522.1094 A2.5,2.5 0 0 1 495.5,524.6094 L80.5,524.6094 A2.5,2.5 0 0 1 78,522.1094 L78,179.1094 A2.5,2.5 0 0 1 80.5,176.6094" fill="none" style="stroke:#000000;stroke-width:1.5;"/><line style="stroke:#000000;stroke-width:1.5;" x1="78" x2="132.2275" y1="200.2188" y2="200.2188"/><text fill="#000000" font-family="sans-serif" font-size="14" font-weight="bold" lengthAdjust="spacing" textLength="41.2275" x="82" y="193.1426">model</text></g><!--class ProduitController--><g class="entity" data-entity="ProduitController" data-source-line="5" data-uid="ent0003" id="entity_ProduitController"><rect fill="#F1F1F1" height="48" rx="2.5" ry="2.5" style="stroke:#181818;stroke-width:0.5;" width="137.0479" x="1006.5" y="212.6094"/><ellipse cx="1021.5" cy="228.6094" fill="#ADD1B2" rx="11" ry="11" style="stroke:#181818;stroke-width:1;"/><path d="M1024.2656,224.4844 Q1024.4219,224.2656 1024.6094,224.1563 Q1024.7969,224.0469 1025.0156,224.0469 Q1025.3906,224.0469 1025.625,224.3125 Q1025.8594,224.5625 1025.8594,225.1719 L1025.8594,226.625 Q1025.8594,227.2344 1025.625,227.5 Q1025.3906,227.7656 1025.0156,227.7656 Q1024.6719,227.7656 1024.4688,227.5625 Q1024.2656,227.375 1024.1563,226.8594 Q1024.1094,226.5 1023.9219,226.3125 Q1023.5938,225.9375 1022.9844,225.7188 Q1022.375,225.5 1021.75,225.5 Q1020.9844,225.5 1020.3438,225.8281 Q1019.7188,226.1563 1019.2188,226.9063 Q1018.7344,227.6563 1018.7344,228.6875 L1018.7344,229.7813 Q1018.7344,231.0156 1019.625,231.8438 Q1020.5156,232.6563 1022.1094,232.6563 Q1023.0469,232.6563 1023.7031,232.4063 Q1024.0938,232.25 1024.5156,231.8125 Q1024.7813,231.5469 1024.9219,231.4688 Q1025.0781,231.3906 1025.2813,231.3906 Q1025.6094,231.3906 1025.8594,231.6563 Q1026.125,231.9063 1026.125,232.25 Q1026.125,232.5938 1025.7813,233 Q1025.2813,233.5781 1024.4844,233.9063 Q1023.4063,234.3594 1022.1094,234.3594 Q1020.5938,234.3594 1019.3906,233.7344 Q1018.4063,233.2344 1017.7188,232.1719 Q1017.0313,231.0938 1017.0313,229.8125 L1017.0313,228.6563 Q1017.0313,227.3281 1017.6406,226.1875 Q1018.2656,225.0313 1019.3594,224.4219 Q1020.4531,223.7969 1021.6875,223.7969 Q1022.4219,223.7969 1023.0625,223.9688 Q1023.7188,224.125 1024.2656,224.4844 Z " fill="#000000"/><text fill="#000000" font-family="sans-serif" font-size="14" lengthAdjust="spacing" textLength="105.0479" x="1035.5" y="234.3379">ProduitController</text><line style="stroke:#181818;stroke-width:0.5;" x1="1007.5" x2="1142.5479" y1="244.6094" y2="244.6094"/><line style="stroke:#181818;stroke-width:0.5;" x1="1007.5" x2="1142.5479" y1="252.6094" y2="252.6094"/></g><!--class VenteController--><g class="entity" data-entity="VenteController" data-source-line="6" data-uid="ent0007" id="entity_VenteController"><rect fill="#F1F1F1" height="48" rx="2.5" ry="2.5" style="stroke:#181818;stroke-width:0.5;" width="129.2754" x="842.5" y="212.6094"/><ellipse cx="857.5" cy="228.6094" fill="#ADD1B2" rx="11" ry="11" style="stroke:#181818;stroke-width:1;"/><path d="M860.2656,224.4844 Q860.4219,224.2656 860.6094,224.1563 Q860.7969,224.0469 861.0156,224.0469 Q861.3906,224.0469 861.625,224.3125 Q861.8594,224.5625 861.8594,225.1719 L861.8594,226.625 Q861.8594,227.2344 861.625,227.5 Q861.3906,227.7656 861.0156,227.7656 Q860.6719,227.7656 860.4688,227.5625 Q860.2656,227.375 860.1563,226.8594 Q860.1094,226.5 859.9219,226.3125 Q859.5938,225.9375 858.9844,225.7188 Q858.375,225.5 857.75,225.5 Q856.9844,225.5 856.3438,225.8281 Q855.7188,226.1563 855.2188,226.9063 Q854.7344,227.6563 854.7344,228.6875 L854.7344,229.7813 Q854.7344,231.0156 855.625,231.8438 Q856.5156,232.6563 858.1094,232.6563 Q859.0469,232.6563 859.7031,232.4063 Q860.0938,232.25 860.5156,231.8125 Q860.7813,231.5469 860.9219,231.4688 Q861.0781,231.3906 861.2813,231.3906 Q861.6094,231.3906 861.8594,231.6563 Q862.125,231.9063 862.125,232.25 Q862.125,232.5938 861.7813,233 Q861.2813,233.5781 860.4844,233.9063 Q859.4063,234.3594 858.1094,234.3594 Q856.5938,234.3594 855.3906,233.7344 Q854.4063,233.2344 853.7188,232.1719 Q853.0313,231.0938 853.0313,229.8125 L853.0313,228.6563 Q853.0313,227.3281 853.6406,226.1875 Q854.2656,225.0313 855.3594,224.4219 Q856.4531,223.7969 857.6875,223.7969 Q858.4219,223.7969 859.0625,223.9688 Q859.7188,224.125 860.2656,224.4844 Z " fill="#000000"/><text fill="#000000" font-family="sans-serif" font-size="14" lengthAdjust="spacing" textLength="97.2754" x="871.5" y="234.3379">VenteController</text><line style="stroke:#181818;stroke-width:0.5;" x1="843.5" x2="970.7754" y1="244.6094" y2="244.6094"/><line style="stroke:#181818;stroke-width:0.5;" x1="843.5" x2="970.7754" y1="252.6094" y2="252.6094"/></g><!--class RetourController--><g class="entity" data-entity="RetourController" data-source-line="7" data-uid="ent0008" id="entity_RetourController"><rect fill="#F1F1F1" height="48" rx="2.5" ry="2.5" style="stroke:#181818;stroke-width:0.5;" width="134.71" x="672.5" y="212.6094"/><ellipse cx="687.5" cy="228.6094" fill="#ADD1B2" rx="11" ry="11" style="stroke:#181818;stroke-width:1;"/><path d="M690.2656,224.4844 Q690.4219,224.2656 690.6094,224.1563 Q690.7969,224.0469 691.0156,224.0469 Q691.3906,224.0469 691.625,224.3125 Q691.8594,224.5625 691.8594,225.1719 L691.8594,226.625 Q691.8594,227.2344 691.625,227.5 Q691.3906,227.7656 691.0156,227.7656 Q690.6719,227.7656 690.4688,227.5625 Q690.2656,227.375 690.1563,226.8594 Q690.1094,226.5 689.9219,226.3125 Q689.5938,225.9375 688.9844,225.7188 Q688.375,225.5 687.75,225.5 Q686.9844,225.5 686.3438,225.8281 Q685.7188,226.1563 685.2188,226.9063 Q684.7344,227.6563 684.7344,228.6875 L684.7344,229.7813 Q684.7344,231.0156 685.625,231.8438 Q686.5156,232.6563 688.1094,232.6563 Q689.0469,232.6563 689.7031,232.4063 Q690.0938,232.25 690.5156,231.8125 Q690.7813,231.5469 690.9219,231.4688 Q691.0781,231.3906 691.2813,231.3906 Q691.6094,231.3906 691.8594,231.6563 Q692.125,231.9063 692.125,232.25 Q692.125,232.5938 691.7813,233 Q691.2813,233.5781 690.4844,233.9063 Q689.4063,234.3594 688.1094,234.3594 Q686.5938,234.3594 685.3906,233.7344 Q684.4063,233.2344 683.7188,232.1719 Q683.0313,231.0938 683.0313,229.8125 L683.0313,228.6563 Q683.0313,227.3281 683.6406,226.1875 Q684.2656,225.0313 685.3594,224.4219 Q686.4531,223.7969 687.6875,223.7969 Q688.4219,223.7969 689.0625,223.9688 Q689.7188,224.125 690.2656,224.4844 Z " fill="#000000"/><text fill="#000000" font-family="sans-serif" font-size="14" lengthAdjust="spacing" textLength="102.71" x="701.5" y="234.3379">RetourController</text><line style="stroke:#181818;stroke-width:0.5;" x1="673.5" x2="806.21" y1="244.6094" y2="244.6094"/><line style="stroke:#181818;stroke-width:0.5;" x1="673.5" x2="806.21" y1="252.6094" y2="252.6094"/></g><!--class StockCentralController--><g class="entity" data-entity="StockCentralController" data-source-line="8" data-uid="ent0009" id="entity_StockCentralController"><rect fill="#F1F1F1" height="48" rx="2.5" ry="2.5" style="stroke:#181818;stroke-width:0.5;" width="172.834" x="1356.5" y="212.6094"/><ellipse cx="1371.5" cy="228.6094" fill="#ADD1B2" rx="11" ry="11" style="stroke:#181818;stroke-width:1;"/><path d="M1374.2656,224.4844 Q1374.4219,224.2656 1374.6094,224.1563 Q1374.7969,224.0469 1375.0156,224.0469 Q1375.3906,224.0469 1375.625,224.3125 Q1375.8594,224.5625 1375.8594,225.1719 L1375.8594,226.625 Q1375.8594,227.2344 1375.625,227.5 Q1375.3906,227.7656 1375.0156,227.7656 Q1374.6719,227.7656 1374.4688,227.5625 Q1374.2656,227.375 1374.1563,226.8594 Q1374.1094,226.5 1373.9219,226.3125 Q1373.5938,225.9375 1372.9844,225.7188 Q1372.375,225.5 1371.75,225.5 Q1370.9844,225.5 1370.3438,225.8281 Q1369.7188,226.1563 1369.2188,226.9063 Q1368.7344,227.6563 1368.7344,228.6875 L1368.7344,229.7813 Q1368.7344,231.0156 1369.625,231.8438 Q1370.5156,232.6563 1372.1094,232.6563 Q1373.0469,232.6563 1373.7031,232.4063 Q1374.0938,232.25 1374.5156,231.8125 Q1374.7813,231.5469 1374.9219,231.4688 Q1375.0781,231.3906 1375.2813,231.3906 Q1375.6094,231.3906 1375.8594,231.6563 Q1376.125,231.9063 1376.125,232.25 Q1376.125,232.5938 1375.7813,233 Q1375.2813,233.5781 1374.4844,233.9063 Q1373.4063,234.3594 1372.1094,234.3594 Q1370.5938,234.3594 1369.3906,233.7344 Q1368.4063,233.2344 1367.7188,232.1719 Q1367.0313,231.0938 1367.0313,229.8125 L1367.0313,228.6563 Q1367.0313,227.3281 1367.6406,226.1875 Q1368.2656,225.0313 1369.3594,224.4219 Q1370.4531,223.7969 1371.6875,223.7969 Q1372.4219,223.7969 1373.0625,223.9688 Q1373.7188,224.125 1374.2656,224.4844 Z " fill="#000000"/><text fill="#000000" font-family="sans-serif" font-size="14" lengthAdjust="spacing" textLength="140.834" x="1385.5" y="234.3379">StockCentralController</text><line style="stroke:#181818;stroke-width:0.5;" x1="1357.5" x2="1528.334" y1="244.6094" y2="244.6094"/><line style="stroke:#181818;stroke-width:0.5;" x1="1357.5" x2="1528.334" y1="252.6094" y2="252.6094"/></g><!--class RapportController--><g class="entity" data-entity="RapportController" data-source-line="9" data-uid="ent0010" id="entity_RapportController"><rect fill="#F1F1F1" height="48" rx="2.5" ry="2.5" style="stroke:#181818;stroke-width:0.5;" width="142.4961" x="1179" y="212.6094"/><ellipse cx="1194" cy="228.6094" fill="#ADD1B2" rx="11" ry="11" style="stroke:#181818;stroke-width:1;"/><path d="M1196.7656,224.4844 Q1196.9219,224.2656 1197.1094,224.1563 Q1197.2969,224.0469 1197.5156,224.0469 Q1197.8906,224.0469 1198.125,224.3125 Q1198.3594,224.5625 1198.3594,225.1719 L1198.3594,226.625 Q1198.3594,227.2344 1198.125,227.5 Q1197.8906,227.7656 1197.5156,227.7656 Q1197.1719,227.7656 1196.9688,227.5625 Q1196.7656,227.375 1196.6563,226.8594 Q1196.6094,226.5 1196.4219,226.3125 Q1196.0938,225.9375 1195.4844,225.7188 Q1194.875,225.5 1194.25,225.5 Q1193.4844,225.5 1192.8438,225.8281 Q1192.2188,226.1563 1191.7188,226.9063 Q1191.2344,227.6563 1191.2344,228.6875 L1191.2344,229.7813 Q1191.2344,231.0156 1192.125,231.8438 Q1193.0156,232.6563 1194.6094,232.6563 Q1195.5469,232.6563 1196.2031,232.4063 Q1196.5938,232.25 1197.0156,231.8125 Q1197.2813,231.5469 1197.4219,231.4688 Q1197.5781,231.3906 1197.7813,231.3906 Q1198.1094,231.3906 1198.3594,231.6563 Q1198.625,231.9063 1198.625,232.25 Q1198.625,232.5938 1198.2813,233 Q1197.7813,233.5781 1196.9844,233.9063 Q1195.9063,234.3594 1194.6094,234.3594 Q1193.0938,234.3594 1191.8906,233.7344 Q1190.9063,233.2344 1190.2188,232.1719 Q1189.5313,231.0938 1189.5313,229.8125 L1189.5313,228.6563 Q1189.5313,227.3281 1190.1406,226.1875 Q1190.7656,225.0313 1191.8594,224.4219 Q1192.9531,223.7969 1194.1875,223.7969 Q1194.9219,223.7969 1195.5625,223.9688 Q1196.2188,224.125 1196.7656,224.4844 Z " fill="#000000"/><text fill="#000000" font-family="sans-serif" font-size="14" lengthAdjust="spacing" textLength="110.4961" x="1208" y="234.3379">RapportController</text><line style="stroke:#181818;stroke-width:0.5;" x1="1180" x2="1320.4961" y1="244.6094" y2="244.6094"/><line style="stroke:#181818;stroke-width:0.5;" x1="1180" x2="1320.4961" y1="252.6094" y2="252.6094"/></g><!--class DashboardController--><g class="entity" data-entity="DashboardController" data-source-line="10" data-uid="ent0011" id="entity_DashboardController"><rect fill="#F1F1F1" height="48" rx="2.5" ry="2.5" style="stroke:#181818;stroke-width:0.5;" width="161.1787" x="1564.5" y="212.6094"/><ellipse cx="1579.5" cy="228.6094" fill="#ADD1B2" rx="11" ry="11" style="stroke:#181818;stroke-width:1;"/><path d="M1582.2656,224.4844 Q1582.4219,224.2656 1582.6094,224.1563 Q1582.7969,224.0469 1583.0156,224.0469 Q1583.3906,224.0469 1583.625,224.3125 Q1583.8594,224.5625 1583.8594,225.1719 L1583.8594,226.625 Q1583.8594,227.2344 1583.625,227.5 Q1583.3906,227.7656 1583.0156,227.7656 Q1582.6719,227.7656 1582.4688,227.5625 Q1582.2656,227.375 1582.1563,226.8594 Q1582.1094,226.5 1581.9219,226.3125 Q1581.5938,225.9375 1580.9844,225.7188 Q1580.375,225.5 1579.75,225.5 Q1578.9844,225.5 1578.3438,225.8281 Q1577.7188,226.1563 1577.2188,226.9063 Q1576.7344,227.6563 1576.7344,228.6875 L1576.7344,229.7813 Q1576.7344,231.0156 1577.625,231.8438 Q1578.5156,232.6563 1580.1094,232.6563 Q1581.0469,232.6563 1581.7031,232.4063 Q1582.0938,232.25 1582.5156,231.8125 Q1582.7813,231.5469 1582.9219,231.4688 Q1583.0781,231.3906 1583.2813,231.3906 Q1583.6094,231.3906 1583.8594,231.6563 Q1584.125,231.9063 1584.125,232.25 Q1584.125,232.5938 1583.7813,233 Q1583.2813,233.5781 1582.4844,233.9063 Q1581.4063,234.3594 1580.1094,234.3594 Q1578.5938,234.3594 1577.3906,233.7344 Q1576.4063,233.2344 1575.7188,232.1719 Q1575.0313,231.0938 1575.0313,229.8125 L1575.0313,228.6563 Q1575.0313,227.3281 1575.6406,226.1875 Q1576.2656,225.0313 1577.3594,224.4219 Q1578.4531,223.7969 1579.6875,223.7969 Q1580.4219,223.7969 1581.0625,223.9688 Q1581.7188,224.125 1582.2656,224.4844 Z " fill="#000000"/><text fill="#000000" font-family="sans-serif" font-size="14" lengthAdjust="spacing" textLength="129.1787" x="1593.5" y="234.3379">DashboardController</text><line style="stroke:#181818;stroke-width:0.5;" x1="1565.5" x2="1724.6787" y1="244.6094" y2="244.6094"/><line style="stroke:#181818;stroke-width:0.5;" x1="1565.5" x2="1724.6787" y1="252.6094" y2="252.6094"/></g><!--class RapportService--><g class="entity" data-entity="RapportService" data-source-line="14" data-uid="ent0013" id="entity_RapportService"><rect fill="#F1F1F1" height="48" rx="2.5" ry="2.5" style="stroke:#181818;stroke-width:0.5;" width="128.4893" x="1128" y="336.6094"/><ellipse cx="1143" cy="352.6094" fill="#ADD1B2" rx="11" ry="11" style="stroke:#181818;stroke-width:1;"/><path d="M1145.7656,348.4844 Q1145.9219,348.2656 1146.1094,348.1563 Q1146.2969,348.0469 1146.5156,348.0469 Q1146.8906,348.0469 1147.125,348.3125 Q1147.3594,348.5625 1147.3594,349.1719 L1147.3594,350.625 Q1147.3594,351.2344 1147.125,351.5 Q1146.8906,351.7656 1146.5156,351.7656 Q1146.1719,351.7656 1145.9688,351.5625 Q1145.7656,351.375 1145.6563,350.8594 Q1145.6094,350.5 1145.4219,350.3125 Q1145.0938,349.9375 1144.4844,349.7188 Q1143.875,349.5 1143.25,349.5 Q1142.4844,349.5 1141.8438,349.8281 Q1141.2188,350.1563 1140.7188,350.9063 Q1140.2344,351.6563 1140.2344,352.6875 L1140.2344,353.7813 Q1140.2344,355.0156 1141.125,355.8438 Q1142.0156,356.6563 1143.6094,356.6563 Q1144.5469,356.6563 1145.2031,356.4063 Q1145.5938,356.25 1146.0156,355.8125 Q1146.2813,355.5469 1146.4219,355.4688 Q1146.5781,355.3906 1146.7813,355.3906 Q1147.1094,355.3906 1147.3594,355.6563 Q1147.625,355.9063 1147.625,356.25 Q1147.625,356.5938 1147.2813,357 Q1146.7813,357.5781 1145.9844,357.9063 Q1144.9063,358.3594 1143.6094,358.3594 Q1142.0938,358.3594 1140.8906,357.7344 Q1139.9063,357.2344 1139.2188,356.1719 Q1138.5313,355.0938 1138.5313,353.8125 L1138.5313,352.6563 Q1138.5313,351.3281 1139.1406,350.1875 Q1139.7656,349.0313 1140.8594,348.4219 Q1141.9531,347.7969 1143.1875,347.7969 Q1143.9219,347.7969 1144.5625,347.9688 Q1145.2188,348.125 1145.7656,348.4844 Z " fill="#000000"/><text fill="#000000" font-family="sans-serif" font-size="14" lengthAdjust="spacing" textLength="96.4893" x="1157" y="358.3379">RapportService</text><line style="stroke:#181818;stroke-width:0.5;" x1="1129" x2="1255.4893" y1="368.6094" y2="368.6094"/><line style="stroke:#181818;stroke-width:0.5;" x1="1129" x2="1255.4893" y1="376.6094" y2="376.6094"/></g><!--class StockCentralService--><g class="entity" data-entity="StockCentralService" data-source-line="15" data-uid="ent0014" id="entity_StockCentralService"><rect fill="#F1F1F1" height="48" rx="2.5" ry="2.5" style="stroke:#181818;stroke-width:0.5;" width="158.8271" x="1291.5" y="336.6094"/><ellipse cx="1306.5" cy="352.6094" fill="#ADD1B2" rx="11" ry="11" style="stroke:#181818;stroke-width:1;"/><path d="M1309.2656,348.4844 Q1309.4219,348.2656 1309.6094,348.1563 Q1309.7969,348.0469 1310.0156,348.0469 Q1310.3906,348.0469 1310.625,348.3125 Q1310.8594,348.5625 1310.8594,349.1719 L1310.8594,350.625 Q1310.8594,351.2344 1310.625,351.5 Q1310.3906,351.7656 1310.0156,351.7656 Q1309.6719,351.7656 1309.4688,351.5625 Q1309.2656,351.375 1309.1563,350.8594 Q1309.1094,350.5 1308.9219,350.3125 Q1308.5938,349.9375 1307.9844,349.7188 Q1307.375,349.5 1306.75,349.5 Q1305.9844,349.5 1305.3438,349.8281 Q1304.7188,350.1563 1304.2188,350.9063 Q1303.7344,351.6563 1303.7344,352.6875 L1303.7344,353.7813 Q1303.7344,355.0156 1304.625,355.8438 Q1305.5156,356.6563 1307.1094,356.6563 Q1308.0469,356.6563 1308.7031,356.4063 Q1309.0938,356.25 1309.5156,355.8125 Q1309.7813,355.5469 1309.9219,355.4688 Q1310.0781,355.3906 1310.2813,355.3906 Q1310.6094,355.3906 1310.8594,355.6563 Q1311.125,355.9063 1311.125,356.25 Q1311.125,356.5938 1310.7813,357 Q1310.2813,357.5781 1309.4844,357.9063 Q1308.4063,358.3594 1307.1094,358.3594 Q1305.5938,358.3594 1304.3906,357.7344 Q1303.4063,357.2344 1302.7188,356.1719 Q1302.0313,355.0938 1302.0313,353.8125 L1302.0313,352.6563 Q1302.0313,351.3281 1302.6406,350.1875 Q1303.2656,349.0313 1304.3594,348.4219 Q1305.4531,347.7969 1306.6875,347.7969 Q1307.4219,347.7969 1308.0625,347.9688 Q1308.7188,348.125 1309.2656,348.4844 Z " fill="#000000"/><text fill="#000000" font-family="sans-serif" font-size="14" lengthAdjust="spacing" textLength="126.8271" x="1320.5" y="358.3379">StockCentralService</text><line style="stroke:#181818;stroke-width:0.5;" x1="1292.5" x2="1449.3271" y1="368.6094" y2="368.6094"/><line style="stroke:#181818;stroke-width:0.5;" x1="1292.5" x2="1449.3271" y1="376.6094" y2="376.6094"/></g><!--class ProduitRepository--><g class="entity" data-entity="ProduitRepository" data-source-line="19" data-uid="ent0016" id="entity_ProduitRepository"><rect fill="#F1F1F1" height="48" rx="2.5" ry="2.5" style="stroke:#181818;stroke-width:0.5;" width="143.2754" x="1074.5" y="460.6094"/><ellipse cx="1089.5" cy="476.6094" fill="#ADD1B2" rx="11" ry="11" style="stroke:#181818;stroke-width:1;"/><path d="M1092.2656,472.4844 Q1092.4219,472.2656 1092.6094,472.1563 Q1092.7969,472.0469 1093.0156,472.0469 Q1093.3906,472.0469 1093.625,472.3125 Q1093.8594,472.5625 1093.8594,473.1719 L1093.8594,474.625 Q1093.8594,475.2344 1093.625,475.5 Q1093.3906,475.7656 1093.0156,475.7656 Q1092.6719,475.7656 1092.4688,475.5625 Q1092.2656,475.375 1092.1563,474.8594 Q1092.1094,474.5 1091.9219,474.3125 Q1091.5938,473.9375 1090.9844,473.7188 Q1090.375,473.5 1089.75,473.5 Q1088.9844,473.5 1088.3438,473.8281 Q1087.7188,474.1563 1087.2188,474.9063 Q1086.7344,475.6563 1086.7344,476.6875 L1086.7344,477.7813 Q1086.7344,479.0156 1087.625,479.8438 Q1088.5156,480.6563 1090.1094,480.6563 Q1091.0469,480.6563 1091.7031,480.4063 Q1092.0938,480.25 1092.5156,479.8125 Q1092.7813,479.5469 1092.9219,479.4688 Q1093.0781,479.3906 1093.2813,479.3906 Q1093.6094,479.3906 1093.8594,479.6563 Q1094.125,479.9063 1094.125,480.25 Q1094.125,480.5938 1093.7813,481 Q1093.2813,481.5781 1092.4844,481.9063 Q1091.4063,482.3594 1090.1094,482.3594 Q1088.5938,482.3594 1087.3906,481.7344 Q1086.4063,481.2344 1085.7188,480.1719 Q1085.0313,479.0938 1085.0313,477.8125 L1085.0313,476.6563 Q1085.0313,475.3281 1085.6406,474.1875 Q1086.2656,473.0313 1087.3594,472.4219 Q1088.4531,471.7969 1089.6875,471.7969 Q1090.4219,471.7969 1091.0625,471.9688 Q1091.7188,472.125 1092.2656,472.4844 Z " fill="#000000"/><text fill="#000000" font-family="sans-serif" font-size="14" lengthAdjust="spacing" textLength="111.2754" x="1103.5" y="482.3379">ProduitRepository</text><line style="stroke:#181818;stroke-width:0.5;" x1="1075.5" x2="1216.7754" y1="492.6094" y2="492.6094"/><line style="stroke:#181818;stroke-width:0.5;" x1="1075.5" x2="1216.7754" y1="500.6094" y2="500.6094"/></g><!--class VenteRepository--><g class="entity" data-entity="VenteRepository" data-source-line="20" data-uid="ent0017" id="entity_VenteRepository"><rect fill="#F1F1F1" height="48" rx="2.5" ry="2.5" style="stroke:#181818;stroke-width:0.5;" width="135.5029" x="903" y="460.6094"/><ellipse cx="918" cy="476.6094" fill="#ADD1B2" rx="11" ry="11" style="stroke:#181818;stroke-width:1;"/><path d="M920.7656,472.4844 Q920.9219,472.2656 921.1094,472.1563 Q921.2969,472.0469 921.5156,472.0469 Q921.8906,472.0469 922.125,472.3125 Q922.3594,472.5625 922.3594,473.1719 L922.3594,474.625 Q922.3594,475.2344 922.125,475.5 Q921.8906,475.7656 921.5156,475.7656 Q921.1719,475.7656 920.9688,475.5625 Q920.7656,475.375 920.6563,474.8594 Q920.6094,474.5 920.4219,474.3125 Q920.0938,473.9375 919.4844,473.7188 Q918.875,473.5 918.25,473.5 Q917.4844,473.5 916.8438,473.8281 Q916.2188,474.1563 915.7188,474.9063 Q915.2344,475.6563 915.2344,476.6875 L915.2344,477.7813 Q915.2344,479.0156 916.125,479.8438 Q917.0156,480.6563 918.6094,480.6563 Q919.5469,480.6563 920.2031,480.4063 Q920.5938,480.25 921.0156,479.8125 Q921.2813,479.5469 921.4219,479.4688 Q921.5781,479.3906 921.7813,479.3906 Q922.1094,479.3906 922.3594,479.6563 Q922.625,479.9063 922.625,480.25 Q922.625,480.5938 922.2813,481 Q921.7813,481.5781 920.9844,481.9063 Q919.9063,482.3594 918.6094,482.3594 Q917.0938,482.3594 915.8906,481.7344 Q914.9063,481.2344 914.2188,480.1719 Q913.5313,479.0938 913.5313,477.8125 L913.5313,476.6563 Q913.5313,475.3281 914.1406,474.1875 Q914.7656,473.0313 915.8594,472.4219 Q916.9531,471.7969 918.1875,471.7969 Q918.9219,471.7969 919.5625,471.9688 Q920.2188,472.125 920.7656,472.4844 Z " fill="#000000"/><text fill="#000000" font-family="sans-serif" font-size="14" lengthAdjust="spacing" textLength="103.5029" x="932" y="482.3379">VenteRepository</text><line style="stroke:#181818;stroke-width:0.5;" x1="904" x2="1037.5029" y1="492.6094" y2="492.6094"/><line style="stroke:#181818;stroke-width:0.5;" x1="904" x2="1037.5029" y1="500.6094" y2="500.6094"/></g><!--class RetourRepository--><g class="entity" data-entity="RetourRepository" data-source-line="21" data-uid="ent0018" id="entity_RetourRepository"><rect fill="#F1F1F1" height="48" rx="2.5" ry="2.5" style="stroke:#181818;stroke-width:0.5;" width="140.9375" x="538.5" y="460.6094"/><ellipse cx="553.5" cy="476.6094" fill="#ADD1B2" rx="11" ry="11" style="stroke:#181818;stroke-width:1;"/><path d="M556.2656,472.4844 Q556.4219,472.2656 556.6094,472.1563 Q556.7969,472.0469 557.0156,472.0469 Q557.3906,472.0469 557.625,472.3125 Q557.8594,472.5625 557.8594,473.1719 L557.8594,474.625 Q557.8594,475.2344 557.625,475.5 Q557.3906,475.7656 557.0156,475.7656 Q556.6719,475.7656 556.4688,475.5625 Q556.2656,475.375 556.1563,474.8594 Q556.1094,474.5 555.9219,474.3125 Q555.5938,473.9375 554.9844,473.7188 Q554.375,473.5 553.75,473.5 Q552.9844,473.5 552.3438,473.8281 Q551.7188,474.1563 551.2188,474.9063 Q550.7344,475.6563 550.7344,476.6875 L550.7344,477.7813 Q550.7344,479.0156 551.625,479.8438 Q552.5156,480.6563 554.1094,480.6563 Q555.0469,480.6563 555.7031,480.4063 Q556.0938,480.25 556.5156,479.8125 Q556.7813,479.5469 556.9219,479.4688 Q557.0781,479.3906 557.2813,479.3906 Q557.6094,479.3906 557.8594,479.6563 Q558.125,479.9063 558.125,480.25 Q558.125,480.5938 557.7813,481 Q557.2813,481.5781 556.4844,481.9063 Q555.4063,482.3594 554.1094,482.3594 Q552.5938,482.3594 551.3906,481.7344 Q550.4063,481.2344 549.7188,480.1719 Q549.0313,479.0938 549.0313,477.8125 L549.0313,476.6563 Q549.0313,475.3281 549.6406,474.1875 Q550.2656,473.0313 551.3594,472.4219 Q552.4531,471.7969 553.6875,471.7969 Q554.4219,471.7969 555.0625,471.9688 Q555.7188,472.125 556.2656,472.4844 Z " fill="#000000"/><text fill="#000000" font-family="sans-serif" font-size="14" lengthAdjust="spacing" textLength="108.9375" x="567.5" y="482.3379">RetourRepository</text><line style="stroke:#181818;stroke-width:0.5;" x1="539.5" x2="678.4375" y1="492.6094" y2="492.6094"/><line style="stroke:#181818;stroke-width:0.5;" x1="539.5" x2="678.4375" y1="500.6094" y2="500.6094"/></g><!--class EmployeRepository--><g class="entity" data-entity="EmployeRepository" data-source-line="22" data-uid="ent0019" id="entity_EmployeRepository"><rect fill="#F1F1F1" height="48" rx="2.5" ry="2.5" style="stroke:#181818;stroke-width:0.5;" width="153.3857" x="714.5" y="460.6094"/><ellipse cx="729.5" cy="476.6094" fill="#ADD1B2" rx="11" ry="11" style="stroke:#181818;stroke-width:1;"/><path d="M732.2656,472.4844 Q732.4219,472.2656 732.6094,472.1563 Q732.7969,472.0469 733.0156,472.0469 Q733.3906,472.0469 733.625,472.3125 Q733.8594,472.5625 733.8594,473.1719 L733.8594,474.625 Q733.8594,475.2344 733.625,475.5 Q733.3906,475.7656 733.0156,475.7656 Q732.6719,475.7656 732.4688,475.5625 Q732.2656,475.375 732.1563,474.8594 Q732.1094,474.5 731.9219,474.3125 Q731.5938,473.9375 730.9844,473.7188 Q730.375,473.5 729.75,473.5 Q728.9844,473.5 728.3438,473.8281 Q727.7188,474.1563 727.2188,474.9063 Q726.7344,475.6563 726.7344,476.6875 L726.7344,477.7813 Q726.7344,479.0156 727.625,479.8438 Q728.5156,480.6563 730.1094,480.6563 Q731.0469,480.6563 731.7031,480.4063 Q732.0938,480.25 732.5156,479.8125 Q732.7813,479.5469 732.9219,479.4688 Q733.0781,479.3906 733.2813,479.3906 Q733.6094,479.3906 733.8594,479.6563 Q734.125,479.9063 734.125,480.25 Q734.125,480.5938 733.7813,481 Q733.2813,481.5781 732.4844,481.9063 Q731.4063,482.3594 730.1094,482.3594 Q728.5938,482.3594 727.3906,481.7344 Q726.4063,481.2344 725.7188,480.1719 Q725.0313,479.0938 725.0313,477.8125 L725.0313,476.6563 Q725.0313,475.3281 725.6406,474.1875 Q726.2656,473.0313 727.3594,472.4219 Q728.4531,471.7969 729.6875,471.7969 Q730.4219,471.7969 731.0625,471.9688 Q731.7188,472.125 732.2656,472.4844 Z " fill="#000000"/><text fill="#000000" font-family="sans-serif" font-size="14" lengthAdjust="spacing" textLength="121.3857" x="743.5" y="482.3379">EmployeRepository</text><line style="stroke:#181818;stroke-width:0.5;" x1="715.5" x2="866.8857" y1="492.6094" y2="492.6094"/><line style="stroke:#181818;stroke-width:0.5;" x1="715.5" x2="866.8857" y1="500.6094" y2="500.6094"/></g><!--class MagasinRepository--><g class="entity" data-entity="MagasinRepository" data-source-line="23" data-uid="ent0020" id="entity_MagasinRepository"><rect fill="#F1F1F1" height="48" rx="2.5" ry="2.5" style="stroke:#181818;stroke-width:0.5;" width="151.834" x="1253" y="460.6094"/><ellipse cx="1268" cy="476.6094" fill="#ADD1B2" rx="11" ry="11" style="stroke:#181818;stroke-width:1;"/><path d="M1270.7656,472.4844 Q1270.9219,472.2656 1271.1094,472.1563 Q1271.2969,472.0469 1271.5156,472.0469 Q1271.8906,472.0469 1272.125,472.3125 Q1272.3594,472.5625 1272.3594,473.1719 L1272.3594,474.625 Q1272.3594,475.2344 1272.125,475.5 Q1271.8906,475.7656 1271.5156,475.7656 Q1271.1719,475.7656 1270.9688,475.5625 Q1270.7656,475.375 1270.6563,474.8594 Q1270.6094,474.5 1270.4219,474.3125 Q1270.0938,473.9375 1269.4844,473.7188 Q1268.875,473.5 1268.25,473.5 Q1267.4844,473.5 1266.8438,473.8281 Q1266.2188,474.1563 1265.7188,474.9063 Q1265.2344,475.6563 1265.2344,476.6875 L1265.2344,477.7813 Q1265.2344,479.0156 1266.125,479.8438 Q1267.0156,480.6563 1268.6094,480.6563 Q1269.5469,480.6563 1270.2031,480.4063 Q1270.5938,480.25 1271.0156,479.8125 Q1271.2813,479.5469 1271.4219,479.4688 Q1271.5781,479.3906 1271.7813,479.3906 Q1272.1094,479.3906 1272.3594,479.6563 Q1272.625,479.9063 1272.625,480.25 Q1272.625,480.5938 1272.2813,481 Q1271.7813,481.5781 1270.9844,481.9063 Q1269.9063,482.3594 1268.6094,482.3594 Q1267.0938,482.3594 1265.8906,481.7344 Q1264.9063,481.2344 1264.2188,480.1719 Q1263.5313,479.0938 1263.5313,477.8125 L1263.5313,476.6563 Q1263.5313,475.3281 1264.1406,474.1875 Q1264.7656,473.0313 1265.8594,472.4219 Q1266.9531,471.7969 1268.1875,471.7969 Q1268.9219,471.7969 1269.5625,471.9688 Q1270.2188,472.125 1270.7656,472.4844 Z " fill="#000000"/><text fill="#000000" font-family="sans-serif" font-size="14" lengthAdjust="spacing" textLength="119.834" x="1282" y="482.3379">MagasinRepository</text><line style="stroke:#181818;stroke-width:0.5;" x1="1254" x2="1403.834" y1="492.6094" y2="492.6094"/><line style="stroke:#181818;stroke-width:0.5;" x1="1254" x2="1403.834" y1="500.6094" y2="500.6094"/></g><!--class StockMagasinRepository--><g class="entity" data-entity="StockMagasinRepository" data-source-line="24" data-uid="ent0021" id="entity_StockMagasinRepository"><rect fill="#F1F1F1" height="48" rx="2.5" ry="2.5" style="stroke:#181818;stroke-width:0.5;" width="186.8477" x="1654.5" y="460.6094"/><ellipse cx="1669.5" cy="476.6094" fill="#ADD1B2" rx="11" ry="11" style="stroke:#181818;stroke-width:1;"/><path d="M1672.2656,472.4844 Q1672.4219,472.2656 1672.6094,472.1563 Q1672.7969,472.0469 1673.0156,472.0469 Q1673.3906,472.0469 1673.625,472.3125 Q1673.8594,472.5625 1673.8594,473.1719 L1673.8594,474.625 Q1673.8594,475.2344 1673.625,475.5 Q1673.3906,475.7656 1673.0156,475.7656 Q1672.6719,475.7656 1672.4688,475.5625 Q1672.2656,475.375 1672.1563,474.8594 Q1672.1094,474.5 1671.9219,474.3125 Q1671.5938,473.9375 1670.9844,473.7188 Q1670.375,473.5 1669.75,473.5 Q1668.9844,473.5 1668.3438,473.8281 Q1667.7188,474.1563 1667.2188,474.9063 Q1666.7344,475.6563 1666.7344,476.6875 L1666.7344,477.7813 Q1666.7344,479.0156 1667.625,479.8438 Q1668.5156,480.6563 1670.1094,480.6563 Q1671.0469,480.6563 1671.7031,480.4063 Q1672.0938,480.25 1672.5156,479.8125 Q1672.7813,479.5469 1672.9219,479.4688 Q1673.0781,479.3906 1673.2813,479.3906 Q1673.6094,479.3906 1673.8594,479.6563 Q1674.125,479.9063 1674.125,480.25 Q1674.125,480.5938 1673.7813,481 Q1673.2813,481.5781 1672.4844,481.9063 Q1671.4063,482.3594 1670.1094,482.3594 Q1668.5938,482.3594 1667.3906,481.7344 Q1666.4063,481.2344 1665.7188,480.1719 Q1665.0313,479.0938 1665.0313,477.8125 L1665.0313,476.6563 Q1665.0313,475.3281 1665.6406,474.1875 Q1666.2656,473.0313 1667.3594,472.4219 Q1668.4531,471.7969 1669.6875,471.7969 Q1670.4219,471.7969 1671.0625,471.9688 Q1671.7188,472.125 1672.2656,472.4844 Z " fill="#000000"/><text fill="#000000" font-family="sans-serif" font-size="14" lengthAdjust="spacing" textLength="154.8477" x="1683.5" y="482.3379">StockMagasinRepository</text><line style="stroke:#181818;stroke-width:0.5;" x1="1655.5" x2="1840.3477" y1="492.6094" y2="492.6094"/><line style="stroke:#181818;stroke-width:0.5;" x1="1655.5" x2="1840.3477" y1="500.6094" y2="500.6094"/></g><!--class StockCentralRepository--><g class="entity" data-entity="StockCentralRepository" data-source-line="25" data-uid="ent0022" id="entity_StockCentralRepository"><rect fill="#F1F1F1" height="48" rx="2.5" ry="2.5" style="stroke:#181818;stroke-width:0.5;" width="179.0615" x="1440.5" y="460.6094"/><ellipse cx="1455.5" cy="476.6094" fill="#ADD1B2" rx="11" ry="11" style="stroke:#181818;stroke-width:1;"/><path d="M1458.2656,472.4844 Q1458.4219,472.2656 1458.6094,472.1563 Q1458.7969,472.0469 1459.0156,472.0469 Q1459.3906,472.0469 1459.625,472.3125 Q1459.8594,472.5625 1459.8594,473.1719 L1459.8594,474.625 Q1459.8594,475.2344 1459.625,475.5 Q1459.3906,475.7656 1459.0156,475.7656 Q1458.6719,475.7656 1458.4688,475.5625 Q1458.2656,475.375 1458.1563,474.8594 Q1458.1094,474.5 1457.9219,474.3125 Q1457.5938,473.9375 1456.9844,473.7188 Q1456.375,473.5 1455.75,473.5 Q1454.9844,473.5 1454.3438,473.8281 Q1453.7188,474.1563 1453.2188,474.9063 Q1452.7344,475.6563 1452.7344,476.6875 L1452.7344,477.7813 Q1452.7344,479.0156 1453.625,479.8438 Q1454.5156,480.6563 1456.1094,480.6563 Q1457.0469,480.6563 1457.7031,480.4063 Q1458.0938,480.25 1458.5156,479.8125 Q1458.7813,479.5469 1458.9219,479.4688 Q1459.0781,479.3906 1459.2813,479.3906 Q1459.6094,479.3906 1459.8594,479.6563 Q1460.125,479.9063 1460.125,480.25 Q1460.125,480.5938 1459.7813,481 Q1459.2813,481.5781 1458.4844,481.9063 Q1457.4063,482.3594 1456.1094,482.3594 Q1454.5938,482.3594 1453.3906,481.7344 Q1452.4063,481.2344 1451.7188,480.1719 Q1451.0313,479.0938 1451.0313,477.8125 L1451.0313,476.6563 Q1451.0313,475.3281 1451.6406,474.1875 Q1452.2656,473.0313 1453.3594,472.4219 Q1454.4531,471.7969 1455.6875,471.7969 Q1456.4219,471.7969 1457.0625,471.9688 Q1457.7188,472.125 1458.2656,472.4844 Z " fill="#000000"/><text fill="#000000" font-family="sans-serif" font-size="14" lengthAdjust="spacing" textLength="147.0615" x="1469.5" y="482.3379">StockCentralRepository</text><line style="stroke:#181818;stroke-width:0.5;" x1="1441.5" x2="1618.5615" y1="492.6094" y2="492.6094"/><line style="stroke:#181818;stroke-width:0.5;" x1="1441.5" x2="1618.5615" y1="500.6094" y2="500.6094"/></g><!--class Produit--><g class="entity" data-entity="Produit" data-source-line="29" data-uid="ent0024" id="entity_Produit"><rect fill="#F1F1F1" height="48" rx="2.5" ry="2.5" style="stroke:#181818;stroke-width:0.5;" width="76.3584" x="99" y="212.6094"/><ellipse cx="114" cy="228.6094" fill="#ADD1B2" rx="11" ry="11" style="stroke:#181818;stroke-width:1;"/><path d="M116.7656,224.4844 Q116.9219,224.2656 117.1094,224.1563 Q117.2969,224.0469 117.5156,224.0469 Q117.8906,224.0469 118.125,224.3125 Q118.3594,224.5625 118.3594,225.1719 L118.3594,226.625 Q118.3594,227.2344 118.125,227.5 Q117.8906,227.7656 117.5156,227.7656 Q117.1719,227.7656 116.9688,227.5625 Q116.7656,227.375 116.6563,226.8594 Q116.6094,226.5 116.4219,226.3125 Q116.0938,225.9375 115.4844,225.7188 Q114.875,225.5 114.25,225.5 Q113.4844,225.5 112.8438,225.8281 Q112.2188,226.1563 111.7188,226.9063 Q111.2344,227.6563 111.2344,228.6875 L111.2344,229.7813 Q111.2344,231.0156 112.125,231.8438 Q113.0156,232.6563 114.6094,232.6563 Q115.5469,232.6563 116.2031,232.4063 Q116.5938,232.25 117.0156,231.8125 Q117.2813,231.5469 117.4219,231.4688 Q117.5781,231.3906 117.7813,231.3906 Q118.1094,231.3906 118.3594,231.6563 Q118.625,231.9063 118.625,232.25 Q118.625,232.5938 118.2813,233 Q117.7813,233.5781 116.9844,233.9063 Q115.9063,234.3594 114.6094,234.3594 Q113.0938,234.3594 111.8906,233.7344 Q110.9063,233.2344 110.2188,232.1719 Q109.5313,231.0938 109.5313,229.8125 L109.5313,228.6563 Q109.5313,227.3281 110.1406,226.1875 Q110.7656,225.0313 111.8594,224.4219 Q112.9531,223.7969 114.1875,223.7969 Q114.9219,223.7969 115.5625,223.9688 Q116.2188,224.125 116.7656,224.4844 Z " fill="#000000"/><text fill="#000000" font-family="sans-serif" font-size="14" lengthAdjust="spacing" textLength="44.3584" x="128" y="234.3379">Produit</text><line style="stroke:#181818;stroke-width:0.5;" x1="100" x2="174.3584" y1="244.6094" y2="244.6094"/><line style="stroke:#181818;stroke-width:0.5;" x1="100" x2="174.3584" y1="252.6094" y2="252.6094"/></g><!--class Vente--><g class="entity" data-entity="Vente" data-source-line="30" data-uid="ent0025" id="entity_Vente"><rect fill="#F1F1F1" height="48" rx="2.5" ry="2.5" style="stroke:#181818;stroke-width:0.5;" width="68.5859" x="210.5" y="212.6094"/><ellipse cx="225.5" cy="228.6094" fill="#ADD1B2" rx="11" ry="11" style="stroke:#181818;stroke-width:1;"/><path d="M228.2656,224.4844 Q228.4219,224.2656 228.6094,224.1563 Q228.7969,224.0469 229.0156,224.0469 Q229.3906,224.0469 229.625,224.3125 Q229.8594,224.5625 229.8594,225.1719 L229.8594,226.625 Q229.8594,227.2344 229.625,227.5 Q229.3906,227.7656 229.0156,227.7656 Q228.6719,227.7656 228.4688,227.5625 Q228.2656,227.375 228.1563,226.8594 Q228.1094,226.5 227.9219,226.3125 Q227.5938,225.9375 226.9844,225.7188 Q226.375,225.5 225.75,225.5 Q224.9844,225.5 224.3438,225.8281 Q223.7188,226.1563 223.2188,226.9063 Q222.7344,227.6563 222.7344,228.6875 L222.7344,229.7813 Q222.7344,231.0156 223.625,231.8438 Q224.5156,232.6563 226.1094,232.6563 Q227.0469,232.6563 227.7031,232.4063 Q228.0938,232.25 228.5156,231.8125 Q228.7813,231.5469 228.9219,231.4688 Q229.0781,231.3906 229.2813,231.3906 Q229.6094,231.3906 229.8594,231.6563 Q230.125,231.9063 230.125,232.25 Q230.125,232.5938 229.7813,233 Q229.2813,233.5781 228.4844,233.9063 Q227.4063,234.3594 226.1094,234.3594 Q224.5938,234.3594 223.3906,233.7344 Q222.4063,233.2344 221.7188,232.1719 Q221.0313,231.0938 221.0313,229.8125 L221.0313,228.6563 Q221.0313,227.3281 221.6406,226.1875 Q222.2656,225.0313 223.3594,224.4219 Q224.4531,223.7969 225.6875,223.7969 Q226.4219,223.7969 227.0625,223.9688 Q227.7188,224.125 228.2656,224.4844 Z " fill="#000000"/><text fill="#000000" font-family="sans-serif" font-size="14" lengthAdjust="spacing" textLength="36.5859" x="239.5" y="234.3379">Vente</text><line style="stroke:#181818;stroke-width:0.5;" x1="211.5" x2="278.0859" y1="244.6094" y2="244.6094"/><line style="stroke:#181818;stroke-width:0.5;" x1="211.5" x2="278.0859" y1="252.6094" y2="252.6094"/></g><!--class Retour--><g class="entity" data-entity="Retour" data-source-line="31" data-uid="ent0026" id="entity_Retour"><rect fill="#F1F1F1" height="48" rx="2.5" ry="2.5" style="stroke:#181818;stroke-width:0.5;" width="74.0205" x="315" y="212.6094"/><ellipse cx="330" cy="228.6094" fill="#ADD1B2" rx="11" ry="11" style="stroke:#181818;stroke-width:1;"/><path d="M332.7656,224.4844 Q332.9219,224.2656 333.1094,224.1563 Q333.2969,224.0469 333.5156,224.0469 Q333.8906,224.0469 334.125,224.3125 Q334.3594,224.5625 334.3594,225.1719 L334.3594,226.625 Q334.3594,227.2344 334.125,227.5 Q333.8906,227.7656 333.5156,227.7656 Q333.1719,227.7656 332.9688,227.5625 Q332.7656,227.375 332.6563,226.8594 Q332.6094,226.5 332.4219,226.3125 Q332.0938,225.9375 331.4844,225.7188 Q330.875,225.5 330.25,225.5 Q329.4844,225.5 328.8438,225.8281 Q328.2188,226.1563 327.7188,226.9063 Q327.2344,227.6563 327.2344,228.6875 L327.2344,229.7813 Q327.2344,231.0156 328.125,231.8438 Q329.0156,232.6563 330.6094,232.6563 Q331.5469,232.6563 332.2031,232.4063 Q332.5938,232.25 333.0156,231.8125 Q333.2813,231.5469 333.4219,231.4688 Q333.5781,231.3906 333.7813,231.3906 Q334.1094,231.3906 334.3594,231.6563 Q334.625,231.9063 334.625,232.25 Q334.625,232.5938 334.2813,233 Q333.7813,233.5781 332.9844,233.9063 Q331.9063,234.3594 330.6094,234.3594 Q329.0938,234.3594 327.8906,233.7344 Q326.9063,233.2344 326.2188,232.1719 Q325.5313,231.0938 325.5313,229.8125 L325.5313,228.6563 Q325.5313,227.3281 326.1406,226.1875 Q326.7656,225.0313 327.8594,224.4219 Q328.9531,223.7969 330.1875,223.7969 Q330.9219,223.7969 331.5625,223.9688 Q332.2188,224.125 332.7656,224.4844 Z " fill="#000000"/><text fill="#000000" font-family="sans-serif" font-size="14" lengthAdjust="spacing" textLength="42.0205" x="344" y="234.3379">Retour</text><line style="stroke:#181818;stroke-width:0.5;" x1="316" x2="388.0205" y1="244.6094" y2="244.6094"/><line style="stroke:#181818;stroke-width:0.5;" x1="316" x2="388.0205" y1="252.6094" y2="252.6094"/></g><!--class Employe--><g class="entity" data-entity="Employe" data-source-line="32" data-uid="ent0027" id="entity_Employe"><rect fill="#F1F1F1" height="48" rx="2.5" ry="2.5" style="stroke:#181818;stroke-width:0.5;" width="86.4688" x="94" y="336.6094"/><ellipse cx="109" cy="352.6094" fill="#ADD1B2" rx="11" ry="11" style="stroke:#181818;stroke-width:1;"/><path d="M111.7656,348.4844 Q111.9219,348.2656 112.1094,348.1563 Q112.2969,348.0469 112.5156,348.0469 Q112.8906,348.0469 113.125,348.3125 Q113.3594,348.5625 113.3594,349.1719 L113.3594,350.625 Q113.3594,351.2344 113.125,351.5 Q112.8906,351.7656 112.5156,351.7656 Q112.1719,351.7656 111.9688,351.5625 Q111.7656,351.375 111.6563,350.8594 Q111.6094,350.5 111.4219,350.3125 Q111.0938,349.9375 110.4844,349.7188 Q109.875,349.5 109.25,349.5 Q108.4844,349.5 107.8438,349.8281 Q107.2188,350.1563 106.7188,350.9063 Q106.2344,351.6563 106.2344,352.6875 L106.2344,353.7813 Q106.2344,355.0156 107.125,355.8438 Q108.0156,356.6563 109.6094,356.6563 Q110.5469,356.6563 111.2031,356.4063 Q111.5938,356.25 112.0156,355.8125 Q112.2813,355.5469 112.4219,355.4688 Q112.5781,355.3906 112.7813,355.3906 Q113.1094,355.3906 113.3594,355.6563 Q113.625,355.9063 113.625,356.25 Q113.625,356.5938 113.2813,357 Q112.7813,357.5781 111.9844,357.9063 Q110.9063,358.3594 109.6094,358.3594 Q108.0938,358.3594 106.8906,357.7344 Q105.9063,357.2344 105.2188,356.1719 Q104.5313,355.0938 104.5313,353.8125 L104.5313,352.6563 Q104.5313,351.3281 105.1406,350.1875 Q105.7656,349.0313 106.8594,348.4219 Q107.9531,347.7969 109.1875,347.7969 Q109.9219,347.7969 110.5625,347.9688 Q111.2188,348.125 111.7656,348.4844 Z " fill="#000000"/><text fill="#000000" font-family="sans-serif" font-size="14" lengthAdjust="spacing" textLength="54.4688" x="123" y="358.3379">Employe</text><line style="stroke:#181818;stroke-width:0.5;" x1="95" x2="179.4688" y1="368.6094" y2="368.6094"/><line style="stroke:#181818;stroke-width:0.5;" x1="95" x2="179.4688" y1="376.6094" y2="376.6094"/></g><!--class VenteProduit--><g class="entity" data-entity="VenteProduit" data-source-line="33" data-uid="ent0028" id="entity_VenteProduit"><rect fill="#F1F1F1" height="48" rx="2.5" ry="2.5" style="stroke:#181818;stroke-width:0.5;" width="112.9443" x="215.5" y="336.6094"/><ellipse cx="230.5" cy="352.6094" fill="#ADD1B2" rx="11" ry="11" style="stroke:#181818;stroke-width:1;"/><path d="M233.2656,348.4844 Q233.4219,348.2656 233.6094,348.1563 Q233.7969,348.0469 234.0156,348.0469 Q234.3906,348.0469 234.625,348.3125 Q234.8594,348.5625 234.8594,349.1719 L234.8594,350.625 Q234.8594,351.2344 234.625,351.5 Q234.3906,351.7656 234.0156,351.7656 Q233.6719,351.7656 233.4688,351.5625 Q233.2656,351.375 233.1563,350.8594 Q233.1094,350.5 232.9219,350.3125 Q232.5938,349.9375 231.9844,349.7188 Q231.375,349.5 230.75,349.5 Q229.9844,349.5 229.3438,349.8281 Q228.7188,350.1563 228.2188,350.9063 Q227.7344,351.6563 227.7344,352.6875 L227.7344,353.7813 Q227.7344,355.0156 228.625,355.8438 Q229.5156,356.6563 231.1094,356.6563 Q232.0469,356.6563 232.7031,356.4063 Q233.0938,356.25 233.5156,355.8125 Q233.7813,355.5469 233.9219,355.4688 Q234.0781,355.3906 234.2813,355.3906 Q234.6094,355.3906 234.8594,355.6563 Q235.125,355.9063 235.125,356.25 Q235.125,356.5938 234.7813,357 Q234.2813,357.5781 233.4844,357.9063 Q232.4063,358.3594 231.1094,358.3594 Q229.5938,358.3594 228.3906,357.7344 Q227.4063,357.2344 226.7188,356.1719 Q226.0313,355.0938 226.0313,353.8125 L226.0313,352.6563 Q226.0313,351.3281 226.6406,350.1875 Q227.2656,349.0313 228.3594,348.4219 Q229.4531,347.7969 230.6875,347.7969 Q231.4219,347.7969 232.0625,347.9688 Q232.7188,348.125 233.2656,348.4844 Z " fill="#000000"/><text fill="#000000" font-family="sans-serif" font-size="14" lengthAdjust="spacing" textLength="80.9443" x="244.5" y="358.3379">VenteProduit</text><line style="stroke:#181818;stroke-width:0.5;" x1="216.5" x2="327.4443" y1="368.6094" y2="368.6094"/><line style="stroke:#181818;stroke-width:0.5;" x1="216.5" x2="327.4443" y1="376.6094" y2="376.6094"/></g><!--class RetourProduit--><g class="entity" data-entity="RetourProduit" data-source-line="34" data-uid="ent0029" id="entity_RetourProduit"><rect fill="#F1F1F1" height="48" rx="2.5" ry="2.5" style="stroke:#181818;stroke-width:0.5;" width="118.3789" x="364" y="336.6094"/><ellipse cx="379" cy="352.6094" fill="#ADD1B2" rx="11" ry="11" style="stroke:#181818;stroke-width:1;"/><path d="M381.7656,348.4844 Q381.9219,348.2656 382.1094,348.1563 Q382.2969,348.0469 382.5156,348.0469 Q382.8906,348.0469 383.125,348.3125 Q383.3594,348.5625 383.3594,349.1719 L383.3594,350.625 Q383.3594,351.2344 383.125,351.5 Q382.8906,351.7656 382.5156,351.7656 Q382.1719,351.7656 381.9688,351.5625 Q381.7656,351.375 381.6563,350.8594 Q381.6094,350.5 381.4219,350.3125 Q381.0938,349.9375 380.4844,349.7188 Q379.875,349.5 379.25,349.5 Q378.4844,349.5 377.8438,349.8281 Q377.2188,350.1563 376.7188,350.9063 Q376.2344,351.6563 376.2344,352.6875 L376.2344,353.7813 Q376.2344,355.0156 377.125,355.8438 Q378.0156,356.6563 379.6094,356.6563 Q380.5469,356.6563 381.2031,356.4063 Q381.5938,356.25 382.0156,355.8125 Q382.2813,355.5469 382.4219,355.4688 Q382.5781,355.3906 382.7813,355.3906 Q383.1094,355.3906 383.3594,355.6563 Q383.625,355.9063 383.625,356.25 Q383.625,356.5938 383.2813,357 Q382.7813,357.5781 381.9844,357.9063 Q380.9063,358.3594 379.6094,358.3594 Q378.0938,358.3594 376.8906,357.7344 Q375.9063,357.2344 375.2188,356.1719 Q374.5313,355.0938 374.5313,353.8125 L374.5313,352.6563 Q374.5313,351.3281 375.1406,350.1875 Q375.7656,349.0313 376.8594,348.4219 Q377.9531,347.7969 379.1875,347.7969 Q379.9219,347.7969 380.5625,347.9688 Q381.2188,348.125 381.7656,348.4844 Z " fill="#000000"/><text fill="#000000" font-family="sans-serif" font-size="14" lengthAdjust="spacing" textLength="86.3789" x="393" y="358.3379">RetourProduit</text><line style="stroke:#181818;stroke-width:0.5;" x1="365" x2="481.3789" y1="368.6094" y2="368.6094"/><line style="stroke:#181818;stroke-width:0.5;" x1="365" x2="481.3789" y1="376.6094" y2="376.6094"/></g><!--class Magasin--><g class="entity" data-entity="Magasin" data-source-line="35" data-uid="ent0030" id="entity_Magasin"><rect fill="#F1F1F1" height="48" rx="2.5" ry="2.5" style="stroke:#181818;stroke-width:0.5;" width="84.917" x="94.5" y="460.6094"/><ellipse cx="109.5" cy="476.6094" fill="#ADD1B2" rx="11" ry="11" style="stroke:#181818;stroke-width:1;"/><path d="M112.2656,472.4844 Q112.4219,472.2656 112.6094,472.1563 Q112.7969,472.0469 113.0156,472.0469 Q113.3906,472.0469 113.625,472.3125 Q113.8594,472.5625 113.8594,473.1719 L113.8594,474.625 Q113.8594,475.2344 113.625,475.5 Q113.3906,475.7656 113.0156,475.7656 Q112.6719,475.7656 112.4688,475.5625 Q112.2656,475.375 112.1563,474.8594 Q112.1094,474.5 111.9219,474.3125 Q111.5938,473.9375 110.9844,473.7188 Q110.375,473.5 109.75,473.5 Q108.9844,473.5 108.3438,473.8281 Q107.7188,474.1563 107.2188,474.9063 Q106.7344,475.6563 106.7344,476.6875 L106.7344,477.7813 Q106.7344,479.0156 107.625,479.8438 Q108.5156,480.6563 110.1094,480.6563 Q111.0469,480.6563 111.7031,480.4063 Q112.0938,480.25 112.5156,479.8125 Q112.7813,479.5469 112.9219,479.4688 Q113.0781,479.3906 113.2813,479.3906 Q113.6094,479.3906 113.8594,479.6563 Q114.125,479.9063 114.125,480.25 Q114.125,480.5938 113.7813,481 Q113.2813,481.5781 112.4844,481.9063 Q111.4063,482.3594 110.1094,482.3594 Q108.5938,482.3594 107.3906,481.7344 Q106.4063,481.2344 105.7188,480.1719 Q105.0313,479.0938 105.0313,477.8125 L105.0313,476.6563 Q105.0313,475.3281 105.6406,474.1875 Q106.2656,473.0313 107.3594,472.4219 Q108.4531,471.7969 109.6875,471.7969 Q110.4219,471.7969 111.0625,471.9688 Q111.7188,472.125 112.2656,472.4844 Z " fill="#000000"/><text fill="#000000" font-family="sans-serif" font-size="14" lengthAdjust="spacing" textLength="52.917" x="123.5" y="482.3379">Magasin</text><line style="stroke:#181818;stroke-width:0.5;" x1="95.5" x2="178.417" y1="492.6094" y2="492.6094"/><line style="stroke:#181818;stroke-width:0.5;" x1="95.5" x2="178.417" y1="500.6094" y2="500.6094"/></g><!--class StockMagasin--><g class="entity" data-entity="StockMagasin" data-source-line="36" data-uid="ent0031" id="entity_StockMagasin"><rect fill="#F1F1F1" height="48" rx="2.5" ry="2.5" style="stroke:#181818;stroke-width:0.5;" width="119.9307" x="215" y="460.6094"/><ellipse cx="230" cy="476.6094" fill="#ADD1B2" rx="11" ry="11" style="stroke:#181818;stroke-width:1;"/><path d="M232.7656,472.4844 Q232.9219,472.2656 233.1094,472.1563 Q233.2969,472.0469 233.5156,472.0469 Q233.8906,472.0469 234.125,472.3125 Q234.3594,472.5625 234.3594,473.1719 L234.3594,474.625 Q234.3594,475.2344 234.125,475.5 Q233.8906,475.7656 233.5156,475.7656 Q233.1719,475.7656 232.9688,475.5625 Q232.7656,475.375 232.6563,474.8594 Q232.6094,474.5 232.4219,474.3125 Q232.0938,473.9375 231.4844,473.7188 Q230.875,473.5 230.25,473.5 Q229.4844,473.5 228.8438,473.8281 Q228.2188,474.1563 227.7188,474.9063 Q227.2344,475.6563 227.2344,476.6875 L227.2344,477.7813 Q227.2344,479.0156 228.125,479.8438 Q229.0156,480.6563 230.6094,480.6563 Q231.5469,480.6563 232.2031,480.4063 Q232.5938,480.25 233.0156,479.8125 Q233.2813,479.5469 233.4219,479.4688 Q233.5781,479.3906 233.7813,479.3906 Q234.1094,479.3906 234.3594,479.6563 Q234.625,479.9063 234.625,480.25 Q234.625,480.5938 234.2813,481 Q233.7813,481.5781 232.9844,481.9063 Q231.9063,482.3594 230.6094,482.3594 Q229.0938,482.3594 227.8906,481.7344 Q226.9063,481.2344 226.2188,480.1719 Q225.5313,479.0938 225.5313,477.8125 L225.5313,476.6563 Q225.5313,475.3281 226.1406,474.1875 Q226.7656,473.0313 227.8594,472.4219 Q228.9531,471.7969 230.1875,471.7969 Q230.9219,471.7969 231.5625,471.9688 Q232.2188,472.125 232.7656,472.4844 Z " fill="#000000"/><text fill="#000000" font-family="sans-serif" font-size="14" lengthAdjust="spacing" textLength="87.9307" x="244" y="482.3379">StockMagasin</text><line style="stroke:#181818;stroke-width:0.5;" x1="216" x2="333.9307" y1="492.6094" y2="492.6094"/><line style="stroke:#181818;stroke-width:0.5;" x1="216" x2="333.9307" y1="500.6094" y2="500.6094"/></g><!--class StockCentral--><g class="entity" data-entity="StockCentral" data-source-line="37" data-uid="ent0032" id="entity_StockCentral"><rect fill="#F1F1F1" height="48" rx="2.5" ry="2.5" style="stroke:#181818;stroke-width:0.5;" width="112.1445" x="370" y="460.6094"/><ellipse cx="385" cy="476.6094" fill="#ADD1B2" rx="11" ry="11" style="stroke:#181818;stroke-width:1;"/><path d="M387.7656,472.4844 Q387.9219,472.2656 388.1094,472.1563 Q388.2969,472.0469 388.5156,472.0469 Q388.8906,472.0469 389.125,472.3125 Q389.3594,472.5625 389.3594,473.1719 L389.3594,474.625 Q389.3594,475.2344 389.125,475.5 Q388.8906,475.7656 388.5156,475.7656 Q388.1719,475.7656 387.9688,475.5625 Q387.7656,475.375 387.6563,474.8594 Q387.6094,474.5 387.4219,474.3125 Q387.0938,473.9375 386.4844,473.7188 Q385.875,473.5 385.25,473.5 Q384.4844,473.5 383.8438,473.8281 Q383.2188,474.1563 382.7188,474.9063 Q382.2344,475.6563 382.2344,476.6875 L382.2344,477.7813 Q382.2344,479.0156 383.125,479.8438 Q384.0156,480.6563 385.6094,480.6563 Q386.5469,480.6563 387.2031,480.4063 Q387.5938,480.25 388.0156,479.8125 Q388.2813,479.5469 388.4219,479.4688 Q388.5781,479.3906 388.7813,479.3906 Q389.1094,479.3906 389.3594,479.6563 Q389.625,479.9063 389.625,480.25 Q389.625,480.5938 389.2813,481 Q388.7813,481.5781 387.9844,481.9063 Q386.9063,482.3594 385.6094,482.3594 Q384.0938,482.3594 382.8906,481.7344 Q381.9063,481.2344 381.2188,480.1719 Q380.5313,479.0938 380.5313,477.8125 L380.5313,476.6563 Q380.5313,475.3281 381.1406,474.1875 Q381.7656,473.0313 382.8594,472.4219 Q383.9531,471.7969 385.1875,471.7969 Q385.9219,471.7969 386.5625,471.9688 Q387.2188,472.125 387.7656,472.4844 Z " fill="#000000"/><text fill="#000000" font-family="sans-serif" font-size="14" lengthAdjust="spacing" textLength="80.1445" x="399" y="482.3379">StockCentral</text><line style="stroke:#181818;stroke-width:0.5;" x1="371" x2="481.1445" y1="492.6094" y2="492.6094"/><line style="stroke:#181818;stroke-width:0.5;" x1="371" x2="481.1445" y1="500.6094" y2="500.6094"/></g><!--link RapportController to RapportService--><g class="link" data-entity-1="RapportController" data-entity-2="RapportService" data-source-line="41" data-uid="lnk33" id="link_RapportController_RapportService"><path codeLine="41" d="M1238.95,260.8394 C1228.63,282.5494 1215.8868,309.3609 1205.5768,331.0409" fill="none" id="RapportController-to-RapportService" style="stroke:#181818;stroke-width:1;"/><polygon fill="#181818" points="1203,336.4594,1210.4775,330.0495,1205.1473,331.944,1203.2528,326.6138,1203,336.4594" style="stroke:#181818;stroke-width:1;"/></g><!--link StockCentralController to StockCentralService--><g class="link" data-entity-1="StockCentralController" data-entity-2="StockCentralService" data-source-line="42" data-uid="lnk34" id="link_StockCentralController_StockCentralService"><path codeLine="42" d="M1419.02,260.8394 C1402.89,282.5494 1386.2817,309.281 1376.8117,330.961" fill="none" id="StockCentralController-to-StockCentralService" style="stroke:#181818;stroke-width:1;"/><polygon fill="#181818" points="1374.41,336.4594,1381.6781,329.813,1376.4114,331.8774,1374.347,326.6107,1374.41,336.4594" style="stroke:#181818;stroke-width:1;"/></g><!--link StockCentralController to StockCentralService--><g class="link" data-entity-1="StockCentralController" data-entity-2="StockCentralService" data-source-line="61" data-uid="lnk48" id="link_StockCentralController_StockCentralService"><path codeLine="61" d="M1440.16,260.8394 C1430.86,282.5494 1415.4371,309.9847 1399.1271,331.6647" fill="none" id="StockCentralController-to-StockCentralService-1" style="stroke:#181818;stroke-width:1;"/><polygon fill="#181818" points="1395.52,336.4594,1404.1271,331.6721,1398.5259,332.4638,1397.7342,326.8626,1395.52,336.4594" style="stroke:#181818;stroke-width:1;"/></g><!--link ProduitController to ProduitRepository--><g class="link" data-entity-1="ProduitController" data-entity-2="ProduitRepository" data-source-line="45" data-uid="lnk35" id="link_ProduitController_ProduitRepository"><path codeLine="45" d="M1078.4,260.6994 C1083.64,293.9494 1094.93,356.9894 1112,408.6094 C1117.92,426.5294 1124.1248,440.5289 1131.3148,455.0989" fill="none" id="ProduitController-to-ProduitRepository" style="stroke:#181818;stroke-width:1;"/><polygon fill="#181818" points="1133.97,460.4794,1133.5742,450.6385,1131.7574,455.9956,1126.4002,454.1787,1133.97,460.4794" style="stroke:#181818;stroke-width:1;"/></g><!--link VenteController to ProduitRepository--><g class="link" data-entity-1="VenteController" data-entity-2="ProduitRepository" data-source-line="46" data-uid="lnk36" id="link_VenteController_ProduitRepository"><path codeLine="46" d="M942.97,260.6694 C956.17,269.8794 970.85,281.0394 983,292.6094 C1030.86,338.1694 1032.76,358.6394 1076,408.6094 C1091.38,426.3894 1105.365,441.4313 1119.325,456.0413" fill="none" id="VenteController-to-ProduitRepository" style="stroke:#181818;stroke-width:1;"/><polygon fill="#181818" points="1123.47,460.3794,1120.1445,451.1089,1120.0158,456.7643,1114.3604,456.6357,1123.47,460.3794" style="stroke:#181818;stroke-width:1;"/></g><!--link VenteController to VenteRepository--><g class="link" data-entity-1="VenteController" data-entity-2="VenteRepository" data-source-line="47" data-uid="lnk37" id="link_VenteController_VenteRepository"><path codeLine="47" d="M913.02,260.7494 C925.22,307.6394 951.2084,407.5629 963.4384,454.5429" fill="none" id="VenteController-to-VenteRepository" style="stroke:#181818;stroke-width:1;"/><polygon fill="#181818" points="964.95,460.3494,966.5536,450.632,963.6904,455.5106,958.8117,452.6474,964.95,460.3494" style="stroke:#181818;stroke-width:1;"/></g><!--link VenteController to EmployeRepository--><g class="link" data-entity-1="VenteController" data-entity-2="EmployeRepository" data-source-line="48" data-uid="lnk38" id="link_VenteController_EmployeRepository"><path codeLine="48" d="M896.09,260.7494 C873.98,307.6394 826.6787,407.9423 804.5287,454.9223" fill="none" id="VenteController-to-EmployeRepository" style="stroke:#181818;stroke-width:1;"/><polygon fill="#181818" points="801.97,460.3494,809.4261,453.9146,804.1023,455.8268,802.1901,450.503,801.97,460.3494" style="stroke:#181818;stroke-width:1;"/></g><!--link VenteController to MagasinRepository--><g class="link" data-entity-1="VenteController" data-entity-2="MagasinRepository" data-source-line="49" data-uid="lnk39" id="link_VenteController_MagasinRepository"><path codeLine="49" d="M940.79,260.6294 C955.1,269.3894 972.3,278.6794 989,284.6094 C1009.79,291.9894 1019.57,280.4694 1038,292.6094 C1089.07,326.2494 1059.36,377.4894 1112,408.6094 C1135.58,422.5494 1209.2,407.4194 1235,416.6094 C1261.43,426.0194 1282.535,441.2508 1300.335,456.6708" fill="none" id="VenteController-to-MagasinRepository" style="stroke:#181818;stroke-width:1;"/><polygon fill="#181818" points="1304.87,460.5994,1300.6866,451.6831,1301.0909,457.3255,1295.4485,457.7298,1304.87,460.5994" style="stroke:#181818;stroke-width:1;"/></g><!--link RetourController to RetourRepository--><g class="link" data-entity-1="RetourController" data-entity-2="RetourRepository" data-source-line="51" data-uid="lnk40" id="link_RetourController_RetourRepository"><path codeLine="51" d="M727.68,260.7494 C702.71,307.6394 649.2304,408.0736 624.2104,455.0536" fill="none" id="RetourController-to-RetourRepository" style="stroke:#181818;stroke-width:1;"/><polygon fill="#181818" points="621.39,460.3494,629.1511,454.2859,623.7403,455.9362,622.09,450.5254,621.39,460.3494" style="stroke:#181818;stroke-width:1;"/></g><!--link RetourController to VenteRepository--><g class="link" data-entity-1="RetourController" data-entity-2="VenteRepository" data-source-line="52" data-uid="lnk41" id="link_RetourController_VenteRepository"><path codeLine="52" d="M761.73,260.7494 C805.76,307.6394 900.9326,408.9957 945.0526,455.9757" fill="none" id="RetourController-to-VenteRepository" style="stroke:#181818;stroke-width:1;"/><polygon fill="#181818" points="949.16,460.3494,945.9147,451.0506,945.7371,456.7046,940.0831,456.5271,949.16,460.3494" style="stroke:#181818;stroke-width:1;"/></g><!--link RetourController to ProduitRepository--><g class="link" data-entity-1="RetourController" data-entity-2="ProduitRepository" data-source-line="53" data-uid="lnk42" id="link_RetourController_ProduitRepository"><path codeLine="53" d="M777.11,260.7094 C791.65,269.0694 808.73,278.0594 825,284.6094 C837.8,289.7594 842.93,285.9194 855,292.6094 C921,329.2094 910.31,377.3494 979,408.6094 C1010.72,423.0494 1024.56,403.8894 1057,416.6094 C1082.03,426.4294 1101.6661,441.2981 1118.4661,456.5381" fill="none" id="RetourController-to-ProduitRepository" style="stroke:#181818;stroke-width:1;"/><polygon fill="#181818" points="1122.91,460.5694,1118.9316,451.5598,1119.2067,457.21,1113.5565,457.4851,1122.91,460.5694" style="stroke:#181818;stroke-width:1;"/></g><!--link DashboardController to VenteRepository--><g class="link" data-entity-1="DashboardController" data-entity-2="VenteRepository" data-source-line="55" data-uid="lnk43" id="link_DashboardController_VenteRepository"><path codeLine="55" d="M1621.41,260.6994 C1574.13,306.9294 1471.86,406.5994 1467,408.6094 C1424.9,426.0394 1099.95,401.3894 1057,416.6094 C1031.85,425.5294 1012.6098,440.7647 996.5398,456.4047" fill="none" id="DashboardController-to-VenteRepository" style="stroke:#181818;stroke-width:1;"/><polygon fill="#181818" points="992.24,460.5894,1001.4795,457.1788,995.8231,457.1021,995.8998,451.4458,992.24,460.5894" style="stroke:#181818;stroke-width:1;"/></g><!--link DashboardController to StockMagasinRepository--><g class="link" data-entity-1="DashboardController" data-entity-2="StockMagasinRepository" data-source-line="56" data-uid="lnk44" id="link_DashboardController_StockMagasinRepository"><path codeLine="56" d="M1654.69,260.7494 C1674.32,307.6394 1716.2728,407.8349 1735.9428,454.8149" fill="none" id="DashboardController-to-StockMagasinRepository" style="stroke:#181818;stroke-width:1;"/><polygon fill="#181818" points="1738.26,460.3494,1738.4738,450.5028,1736.329,455.7373,1731.0945,453.5925,1738.26,460.3494" style="stroke:#181818;stroke-width:1;"/></g><!--link DashboardController to ProduitRepository--><g class="link" data-entity-1="DashboardController" data-entity-2="ProduitRepository" data-source-line="57" data-uid="lnk45" id="link_DashboardController_ProduitRepository"><path codeLine="57" d="M1645.78,260.8394 C1645.63,298.8594 1639.1,373.6294 1593,408.6094 C1577.2,420.5994 1254.76,410.1594 1236,416.6094 C1210.03,425.5394 1189.766,440.8867 1172.846,456.5267" fill="none" id="DashboardController-to-ProduitRepository" style="stroke:#181818;stroke-width:1;"/><polygon fill="#181818" points="1168.44,460.5994,1177.7642,457.4277,1172.1117,457.2055,1172.3339,451.553,1168.44,460.5994" style="stroke:#181818;stroke-width:1;"/></g><!--link StockCentralController to MagasinRepository--><g class="link" data-entity-1="StockCentralController" data-entity-2="MagasinRepository" data-source-line="59" data-uid="lnk46" id="link_StockCentralController_MagasinRepository"><path codeLine="59" d="M1456.17,260.8194 C1474.63,296.8294 1502.25,366.3794 1467,408.6094 C1454.26,423.8694 1441.31,408.8794 1423,416.6094 C1397.71,427.2894 1377.1803,441.9015 1359.2803,456.7315" fill="none" id="StockCentralController-to-MagasinRepository" style="stroke:#181818;stroke-width:1;"/><polygon fill="#181818" points="1354.66,460.5594,1364.1424,457.8977,1358.5103,457.3695,1359.0385,451.7373,1354.66,460.5594" style="stroke:#181818;stroke-width:1;"/></g><!--link StockCentralController to StockMagasinRepository--><g class="link" data-entity-1="StockCentralController" data-entity-2="StockMagasinRepository" data-source-line="60" data-uid="lnk47" id="link_StockCentralController_StockMagasinRepository"><path codeLine="60" d="M1471.69,260.7494 C1529.82,307.6394 1656.2397,409.6027 1714.4897,456.5827" fill="none" id="StockCentralController-to-StockMagasinRepository" style="stroke:#181818;stroke-width:1;"/><polygon fill="#181818" points="1719.16,460.3494,1714.6657,451.5858,1715.2681,457.2104,1709.6434,457.8128,1719.16,460.3494" style="stroke:#181818;stroke-width:1;"/></g><!--link RapportService to VenteRepository--><g class="link" data-entity-1="RapportService" data-entity-2="VenteRepository" data-source-line="64" data-uid="lnk49" id="link_RapportService_VenteRepository"><path codeLine="64" d="M1127.79,383.6094 C1104.81,392.5494 1079.13,403.8094 1057,416.6094 C1035.37,429.1194 1017.754,442.6562 1001.334,456.5962" fill="none" id="RapportService-to-VenteRepository" style="stroke:#181818;stroke-width:1;"/><polygon fill="#181818" points="996.76,460.4794,1006.2097,457.704,1000.5716,457.2434,1001.0322,451.6053,996.76,460.4794" style="stroke:#181818;stroke-width:1;"/></g><!--link RapportService to ProduitRepository--><g class="link" data-entity-1="RapportService" data-entity-2="ProduitRepository" data-source-line="65" data-uid="lnk50" id="link_RapportService_ProduitRepository"><path codeLine="65" d="M1183.24,384.8394 C1175.05,406.5494 1165.0158,433.1648 1156.8458,454.8448" fill="none" id="RapportService-to-ProduitRepository" style="stroke:#181818;stroke-width:1;"/><polygon fill="#181818" points="1154.73,460.4594,1161.6468,453.4481,1156.4932,455.7806,1154.1607,450.627,1154.73,460.4594" style="stroke:#181818;stroke-width:1;"/></g><!--link StockCentralService to ProduitRepository--><g class="link" data-entity-1="StockCentralService" data-entity-2="ProduitRepository" data-source-line="67" data-uid="lnk51" id="link_StockCentralService_ProduitRepository"><path codeLine="67" d="M1328.97,384.7394 C1312.25,393.2094 1292.59,402.2594 1274,408.6094 C1257.67,414.1894 1251.73,409.5094 1236,416.6094 C1211.85,427.4994 1192.5088,441.8167 1175.4188,456.5167" fill="none" id="StockCentralService-to-ProduitRepository" style="stroke:#181818;stroke-width:1;"/><polygon fill="#181818" points="1170.87,460.4294,1180.3016,457.5929,1174.6606,457.1688,1175.0847,451.5279,1170.87,460.4294" style="stroke:#181818;stroke-width:1;"/></g><!--link StockCentralService to MagasinRepository--><g class="link" data-entity-1="StockCentralService" data-entity-2="MagasinRepository" data-source-line="68" data-uid="lnk52" id="link_StockCentralService_MagasinRepository"><path codeLine="68" d="M1363,384.8394 C1355.53,406.5494 1346.3822,433.1059 1338.9222,454.7859" fill="none" id="StockCentralService-to-MagasinRepository" style="stroke:#181818;stroke-width:1;"/><polygon fill="#181818" points="1336.97,460.4594,1343.6807,453.2506,1338.5969,455.7314,1336.116,450.6476,1336.97,460.4594" style="stroke:#181818;stroke-width:1;"/></g><!--link StockCentralService to StockCentralRepository--><g class="link" data-entity-1="StockCentralService" data-entity-2="StockCentralRepository" data-source-line="69" data-uid="lnk53" id="link_StockCentralService_StockCentralRepository"><path codeLine="69" d="M1401.28,384.8394 C1429.57,406.5494 1466.8201,435.1265 1495.0701,456.8065" fill="none" id="StockCentralService-to-StockCentralRepository" style="stroke:#181818;stroke-width:1;"/><polygon fill="#181818" points="1499.83,460.4594,1495.1254,451.8068,1495.8634,457.4153,1490.2549,458.1533,1499.83,460.4594" style="stroke:#181818;stroke-width:1;"/></g><!--SRC=[bPInJiCm48PtFyM91H1gXO2rB8MneagbxYQnWbKdZcm7gK98J3m06u_0pXlqJVeak74Q4lkIg5DZtt-N-w_VnN0Z6AnB1id-uvjdXTZzP2mtr72PmmIUL4fphjqnOHeocPJ2_buirdEuWXLJhpnczYbYXTJSIBMz9EGSPhCPB6cyeQaLsmCft07EOfbDXKplRg-dfhYPnZ8tIWh1r1cy4O1OKArXgUnxk9atmIQojjqnv3vYHfOA2QoCZ3TpcwMemF9eKKY5lUc1wfTdILNIYhsJNYFQZQBjegvT3mdjw1WRAAoQoI8J-XzxTqB8lPiG4dYqVxlSOYaBcbBDSoHIUHW9rnPRuG6N5Ymc48DTMvuPtq9Nx5TmEVvjRG9rXlevk720HqnKcw6XedZtArYfDEm_lw2cmR4VC0QJoRrF1yvffSI06M-XuORNRGHBLHKFGV9Mx0ILZnwc2Md3L25QnDzmDqGVQbJbzuMAGei4-GIWzVfqFLlI9qSw6A0Yh3k6qEaPE7Ih8zm7p28VioxN-Fn3oOZtOMcVSjXmMzdpmVe3]--></g></svg>