<svg xmlns="http://www.w3.org/2000/svg" xmlns:xlink="http://www.w3.org/1999/xlink" contentStyleType="text/css" data-diagram-type="SEQUENCE" height="1287px" preserveAspectRatio="none" style="width:1426px;height:1287px;background:#FFFFFF;" version="1.1" viewBox="0 0 1426 1287" width="1426px" zoomAndPan="magnify"><title>DSS - Enregistrer une vente (Spring Boot Web)</title><defs/><g><text fill="#000000" font-family="sans-serif" font-size="14" font-weight="bold" lengthAdjust="spacing" textLength="311.917" x="553.0481" y="29.5332">DSS - Enregistrer une vente (Spring Boot Web)</text><rect fill="none" height="171.9453" style="stroke:#000000;stroke-width:1.5;" width="987.6167" x="421.3965" y="563.1406"/><g><title>Employe</title><rect fill="#000000" fill-opacity="0.00000" height="1083.7891" width="8" x="31.2344" y="121.2188"/><line style="stroke:#181818;stroke-width:0.5;stroke-dasharray:5.0,5.0;" x1="35" x2="35" y1="121.2188" y2="1205.0078"/></g><g><title>Navigateur Web (Thymeleaf)</title><rect fill="#000000" fill-opacity="0.00000" height="1083.7891" width="8" x="201.0527" y="121.2188"/><line style="stroke:#181818;stroke-width:0.5;stroke-dasharray:5.0,5.0;" x1="204.5771" x2="204.5771" y1="121.2188" y2="1205.0078"/></g><g><title>VenteController</title><rect fill="#000000" fill-opacity="0.00000" height="1083.7891" width="8" x="483.0342" y="121.2188"/><line style="stroke:#181818;stroke-width:0.5;stroke-dasharray:5.0,5.0;" x1="486.3965" x2="486.3965" y1="121.2188" y2="1205.0078"/></g><g><title>VenteService</title><rect fill="#000000" fill-opacity="0.00000" height="1083.7891" width="8" x="700.7075" y="121.2188"/><line style="stroke:#181818;stroke-width:0.5;stroke-dasharray:5.0,5.0;" x1="704.0732" x2="704.0732" y1="121.2188" y2="1205.0078"/></g><g><title>EmployeRepository</title><rect fill="#000000" fill-opacity="0.00000" height="1083.7891" width="8" x="840.3174" y="121.2188"/><line style="stroke:#181818;stroke-width:0.5;stroke-dasharray:5.0,5.0;" x1="843.6245" x2="843.6245" y1="121.2188" y2="1205.0078"/></g><g><title>ProduitRepository</title><rect fill="#000000" fill-opacity="0.00000" height="1083.7891" width="8" x="980.6479" y="121.2188"/><line style="stroke:#181818;stroke-width:0.5;stroke-dasharray:5.0,5.0;" x1="984.0103" x2="984.0103" y1="121.2188" y2="1205.0078"/></g><g><title>VenteRepository</title><rect fill="#000000" fill-opacity="0.00000" height="1083.7891" width="8" x="1112.0371" y="121.2188"/><line style="stroke:#181818;stroke-width:0.5;stroke-dasharray:5.0,5.0;" x1="1115.2856" x2="1115.2856" y1="121.2188" y2="1205.0078"/></g><g><title>PostgreSQL</title><rect fill="#000000" fill-opacity="0.00000" height="1083.7891" width="8" x="1353.8823" y="121.2188"/><line style="stroke:#181818;stroke-width:0.5;stroke-dasharray:5.0,5.0;" x1="1357.7515" x2="1357.7515" y1="121.2188" y2="1205.0078"/></g><g class="participant participant-head" data-participant="Employe"><text fill="#000000" font-family="sans-serif" font-size="14" lengthAdjust="spacing" textLength="54.4688" x="5" y="118.1426">Employe</text><ellipse cx="35.2344" cy="52.1094" fill="#E2E2F0" rx="8" ry="8" style="stroke:#181818;stroke-width:0.5;"/><path d="M35.2344,60.1094 L35.2344,87.1094 M22.2344,68.1094 L48.2344,68.1094 M35.2344,87.1094 L22.2344,102.1094 M35.2344,87.1094 L48.2344,102.1094" fill="none" style="stroke:#181818;stroke-width:0.5;"/></g><g class="participant participant-tail" data-participant="Employe"><text fill="#000000" font-family="sans-serif" font-size="14" lengthAdjust="spacing" textLength="54.4688" x="5" y="1218.541">Employe</text><ellipse cx="35.2344" cy="1230.1172" fill="#E2E2F0" rx="8" ry="8" style="stroke:#181818;stroke-width:0.5;"/><path d="M35.2344,1238.1172 L35.2344,1265.1172 M22.2344,1246.1172 L48.2344,1246.1172 M35.2344,1265.1172 L22.2344,1280.1172 M35.2344,1265.1172 L48.2344,1280.1172" fill="none" style="stroke:#181818;stroke-width:0.5;"/></g><g class="participant participant-head" data-participant="Vue"><rect fill="#E2E2F0" height="31.6094" rx="2.5" ry="2.5" style="stroke:#181818;stroke-width:0.5;" width="192.9512" x="108.5771" y="88.6094"/><text fill="#000000" font-family="sans-serif" font-size="14" lengthAdjust="spacing" textLength="178.9512" x="115.5771" y="110.1426">Navigateur Web (Thymeleaf)</text></g><g class="participant participant-tail" data-participant="Vue"><rect fill="#E2E2F0" height="31.6094" rx="2.5" ry="2.5" style="stroke:#181818;stroke-width:0.5;" width="192.9512" x="108.5771" y="1204.0078"/><text fill="#000000" font-family="sans-serif" font-size="14" lengthAdjust="spacing" textLength="178.9512" x="115.5771" y="1225.541">Navigateur Web (Thymeleaf)</text></g><g class="participant participant-head" data-participant="Controller"><rect fill="#E2E2F0" height="31.6094" rx="2.5" ry="2.5" style="stroke:#181818;stroke-width:0.5;" width="111.2754" x="431.3965" y="88.6094"/><text fill="#000000" font-family="sans-serif" font-size="14" lengthAdjust="spacing" textLength="97.2754" x="438.3965" y="110.1426">VenteController</text></g><g class="participant participant-tail" data-participant="Controller"><rect fill="#E2E2F0" height="31.6094" rx="2.5" ry="2.5" style="stroke:#181818;stroke-width:0.5;" width="111.2754" x="431.3965" y="1204.0078"/><text fill="#000000" font-family="sans-serif" font-size="14" lengthAdjust="spacing" textLength="97.2754" x="438.3965" y="1225.541">VenteController</text></g><g class="participant participant-head" data-participant="Service"><rect fill="#E2E2F0" height="31.6094" rx="2.5" ry="2.5" style="stroke:#181818;stroke-width:0.5;" width="97.2686" x="656.0732" y="88.6094"/><text fill="#000000" font-family="sans-serif" font-size="14" lengthAdjust="spacing" textLength="83.2686" x="663.0732" y="110.1426">VenteService</text></g><g class="participant participant-tail" data-participant="Service"><rect fill="#E2E2F0" height="31.6094" rx="2.5" ry="2.5" style="stroke:#181818;stroke-width:0.5;" width="97.2686" x="656.0732" y="1204.0078"/><text fill="#000000" font-family="sans-serif" font-size="14" lengthAdjust="spacing" textLength="83.2686" x="663.0732" y="1225.541">VenteService</text></g><g class="participant participant-head" data-participant="EmployeRepo"><rect fill="#E2E2F0" height="31.6094" rx="2.5" ry="2.5" style="stroke:#181818;stroke-width:0.5;" width="135.3857" x="776.6245" y="88.6094"/><text fill="#000000" font-family="sans-serif" font-size="14" lengthAdjust="spacing" textLength="121.3857" x="783.6245" y="110.1426">EmployeRepository</text></g><g class="participant participant-tail" data-participant="EmployeRepo"><rect fill="#E2E2F0" height="31.6094" rx="2.5" ry="2.5" style="stroke:#181818;stroke-width:0.5;" width="135.3857" x="776.6245" y="1204.0078"/><text fill="#000000" font-family="sans-serif" font-size="14" lengthAdjust="spacing" textLength="121.3857" x="783.6245" y="1225.541">EmployeRepository</text></g><g class="participant participant-head" data-participant="ProduitRepo"><rect fill="#E2E2F0" height="31.6094" rx="2.5" ry="2.5" style="stroke:#181818;stroke-width:0.5;" width="125.2754" x="922.0103" y="88.6094"/><text fill="#000000" font-family="sans-serif" font-size="14" lengthAdjust="spacing" textLength="111.2754" x="929.0103" y="110.1426">ProduitRepository</text></g><g class="participant participant-tail" data-participant="ProduitRepo"><rect fill="#E2E2F0" height="31.6094" rx="2.5" ry="2.5" style="stroke:#181818;stroke-width:0.5;" width="125.2754" x="922.0103" y="1204.0078"/><text fill="#000000" font-family="sans-serif" font-size="14" lengthAdjust="spacing" textLength="111.2754" x="929.0103" y="1225.541">ProduitRepository</text></g><g class="participant participant-head" data-participant="VenteRepo"><rect fill="#E2E2F0" height="31.6094" rx="2.5" ry="2.5" style="stroke:#181818;stroke-width:0.5;" width="117.5029" x="1057.2856" y="88.6094"/><text fill="#000000" font-family="sans-serif" font-size="14" lengthAdjust="spacing" textLength="103.5029" x="1064.2856" y="110.1426">VenteRepository</text></g><g class="participant participant-tail" data-participant="VenteRepo"><rect fill="#E2E2F0" height="31.6094" rx="2.5" ry="2.5" style="stroke:#181818;stroke-width:0.5;" width="117.5029" x="1057.2856" y="1204.0078"/><text fill="#000000" font-family="sans-serif" font-size="14" lengthAdjust="spacing" textLength="103.5029" x="1064.2856" y="1225.541">VenteRepository</text></g><g class="participant participant-head" data-participant="PostgreSQL"><text fill="#000000" font-family="sans-serif" font-size="14" lengthAdjust="spacing" textLength="76.2617" x="1316.7515" y="118.1426">PostgreSQL</text><path d="M1339.8823,67.6094 C1339.8823,57.6094 1357.8823,57.6094 1357.8823,57.6094 C1357.8823,57.6094 1375.8823,57.6094 1375.8823,67.6094 L1375.8823,93.6094 C1375.8823,103.6094 1357.8823,103.6094 1357.8823,103.6094 C1357.8823,103.6094 1339.8823,103.6094 1339.8823,93.6094 L1339.8823,67.6094" fill="#E2E2F0" style="stroke:#181818;stroke-width:1.5;"/><path d="M1339.8823,67.6094 C1339.8823,77.6094 1357.8823,77.6094 1357.8823,77.6094 C1357.8823,77.6094 1375.8823,77.6094 1375.8823,67.6094" fill="none" style="stroke:#181818;stroke-width:1.5;"/></g><g class="participant participant-tail" data-participant="PostgreSQL"><text fill="#000000" font-family="sans-serif" font-size="14" lengthAdjust="spacing" textLength="76.2617" x="1316.7515" y="1218.541">PostgreSQL</text><path d="M1339.8823,1231.6172 C1339.8823,1221.6172 1357.8823,1221.6172 1357.8823,1221.6172 C1357.8823,1221.6172 1375.8823,1221.6172 1375.8823,1231.6172 L1375.8823,1257.6172 C1375.8823,1267.6172 1357.8823,1267.6172 1357.8823,1267.6172 C1357.8823,1267.6172 1339.8823,1267.6172 1339.8823,1257.6172 L1339.8823,1231.6172" fill="#E2E2F0" style="stroke:#181818;stroke-width:1.5;"/><path d="M1339.8823,1231.6172 C1339.8823,1241.6172 1357.8823,1241.6172 1357.8823,1241.6172 C1357.8823,1241.6172 1375.8823,1241.6172 1375.8823,1231.6172" fill="none" style="stroke:#181818;stroke-width:1.5;"/></g><rect fill="#EEEEEE" height="3" style="stroke:#EEEEEE;stroke-width:1;" width="1419.0132" x="0" y="152.3945"/><line style="stroke:#000000;stroke-width:1;" x1="0" x2="1419.0132" y1="152.3945" y2="152.3945"/><line style="stroke:#000000;stroke-width:1;" x1="0" x2="1419.0132" y1="155.3945" y2="155.3945"/><rect fill="#EEEEEE" height="24.3516" style="stroke:#000000;stroke-width:2;" width="175.1226" x="621.9453" y="141.2188"/><text fill="#000000" font-family="sans-serif" font-size="13" font-weight="bold" lengthAdjust="spacing" textLength="157.5107" x="627.9453" y="158.7139">&#201;tape 1 : Acc&#232;s au panier</text><g class="message" data-participant-1="Employe" data-participant-2="Vue"><polygon fill="#181818" points="193.0527,193.9219,203.0527,197.9219,193.0527,201.9219,197.0527,197.9219" style="stroke:#181818;stroke-width:1;"/><line style="stroke:#181818;stroke-width:1;" x1="35.2344" x2="199.0527" y1="197.9219" y2="197.9219"/><text fill="#000000" font-family="sans-serif" font-size="13" lengthAdjust="spacing" textLength="135.1162" x="42.2344" y="193.0654">acc&#232;de &#224; /panier (GET)</text></g><g class="message" data-participant-1="Vue" data-participant-2="Controller"><polygon fill="#181818" points="475.0342,224.2734,485.0342,228.2734,475.0342,232.2734,479.0342,228.2734" style="stroke:#181818;stroke-width:1;"/><line style="stroke:#181818;stroke-width:1;" x1="205.0527" x2="481.0342" y1="228.2734" y2="228.2734"/><text fill="#000000" font-family="sans-serif" font-size="13" lengthAdjust="spacing" textLength="107.6372" x="212.0527" y="223.417">HTTP GET /panier</text></g><g class="message" data-participant-1="Controller" data-participant-2="Vue"><polygon fill="#181818" points="216.0527,254.625,206.0527,258.625,216.0527,262.625,212.0527,258.625" style="stroke:#181818;stroke-width:1;"/><line style="stroke:#181818;stroke-width:1;stroke-dasharray:2.0,2.0;" x1="210.0527" x2="486.0342" y1="258.625" y2="258.625"/><text fill="#000000" font-family="sans-serif" font-size="13" lengthAdjust="spacing" textLength="236.2979" x="222.0527" y="253.7686">retourne panier.html avec vente en cours</text></g><rect fill="#EEEEEE" height="3" style="stroke:#EEEEEE;stroke-width:1;" width="1419.0132" x="0" y="287.8008"/><line style="stroke:#000000;stroke-width:1;" x1="0" x2="1419.0132" y1="287.8008" y2="287.8008"/><line style="stroke:#000000;stroke-width:1;" x1="0" x2="1419.0132" y1="290.8008" y2="290.8008"/><rect fill="#EEEEEE" height="24.3516" style="stroke:#000000;stroke-width:2;" width="175.7764" x="621.6184" y="276.625"/><text fill="#000000" font-family="sans-serif" font-size="13" font-weight="bold" lengthAdjust="spacing" textLength="158.1646" x="627.6184" y="294.1201">&#201;tape 2 : Ajout de produit</text><g class="message" data-participant-1="Employe" data-participant-2="Vue"><polygon fill="#181818" points="193.0527,329.3281,203.0527,333.3281,193.0527,337.3281,197.0527,333.3281" style="stroke:#181818;stroke-width:1;"/><line style="stroke:#181818;stroke-width:1;" x1="35.2344" x2="199.0527" y1="333.3281" y2="333.3281"/><text fill="#000000" font-family="sans-serif" font-size="13" lengthAdjust="spacing" textLength="145.8184" x="42.2344" y="328.4717">clique "Ajouter au panier"</text></g><g class="message" data-participant-1="Vue" data-participant-2="Controller"><polygon fill="#181818" points="475.0342,359.6797,485.0342,363.6797,475.0342,367.6797,479.0342,363.6797" style="stroke:#181818;stroke-width:1;"/><line style="stroke:#181818;stroke-width:1;" x1="205.0527" x2="481.0342" y1="363.6797" y2="363.6797"/><text fill="#000000" font-family="sans-serif" font-size="13" lengthAdjust="spacing" textLength="257.9814" x="212.0527" y="358.8232">HTTP POST /panier/add {produitId, quantite}</text></g><g class="message" data-participant-1="Controller" data-participant-2="Service"><polygon fill="#181818" points="692.7075,390.0313,702.7075,394.0313,692.7075,398.0313,696.7075,394.0313" style="stroke:#181818;stroke-width:1;"/><line style="stroke:#181818;stroke-width:1;" x1="487.0342" x2="698.7075" y1="394.0313" y2="394.0313"/><text fill="#000000" font-family="sans-serif" font-size="13" lengthAdjust="spacing" textLength="193.6733" x="494.0342" y="389.1748">ajouterProduit(produitId, quantite)</text></g><g class="message" data-participant-1="Service" data-participant-2="ProduitRepo"><polygon fill="#181818" points="972.6479,420.3828,982.6479,424.3828,972.6479,428.3828,976.6479,424.3828" style="stroke:#181818;stroke-width:1;"/><line style="stroke:#181818;stroke-width:1;" x1="704.7075" x2="978.6479" y1="424.3828" y2="424.3828"/><text fill="#000000" font-family="sans-serif" font-size="13" lengthAdjust="spacing" textLength="106.2217" x="711.7075" y="419.5264">findById(produitId)</text></g><g class="message" data-participant-1="ProduitRepo" data-participant-2="PostgreSQL"><polygon fill="#181818" points="1345.8823,483.4375,1355.8823,487.4375,1345.8823,491.4375,1349.8823,487.4375" style="stroke:#181818;stroke-width:1;"/><line style="stroke:#181818;stroke-width:1;" x1="984.6479" x2="1351.8823" y1="487.4375" y2="487.4375"/><text fill="#000000" font-family="sans-serif" font-size="13" lengthAdjust="spacing" textLength="59.2427" x="991.6479" y="449.8779">SELECT *</text><text fill="#000000" font-family="sans-serif" font-size="13" lengthAdjust="spacing" textLength="88.1309" x="995.2598" y="466.2295">FROM produits</text><text fill="#000000" font-family="sans-serif" font-size="13" lengthAdjust="spacing" textLength="84.1636" x="995.2598" y="482.5811">WHERE id = ?</text></g><g class="message" data-participant-1="PostgreSQL" data-participant-2="ProduitRepo"><polygon fill="#181818" points="995.6479,513.7891,985.6479,517.7891,995.6479,521.7891,991.6479,517.7891" style="stroke:#181818;stroke-width:1;"/><line style="stroke:#181818;stroke-width:1;stroke-dasharray:2.0,2.0;" x1="989.6479" x2="1356.8823" y1="517.7891" y2="517.7891"/><text fill="#000000" font-family="sans-serif" font-size="13" lengthAdjust="spacing" textLength="41.1899" x="1001.6479" y="512.9326">Produit</text></g><g class="message" data-participant-1="ProduitRepo" data-participant-2="Service"><polygon fill="#181818" points="715.7075,544.1406,705.7075,548.1406,715.7075,552.1406,711.7075,548.1406" style="stroke:#181818;stroke-width:1;"/><line style="stroke:#181818;stroke-width:1;stroke-dasharray:2.0,2.0;" x1="709.7075" x2="983.6479" y1="548.1406" y2="548.1406"/><text fill="#000000" font-family="sans-serif" font-size="13" lengthAdjust="spacing" textLength="41.1899" x="721.7075" y="543.2842">Produit</text></g><path d="M421.3965,563.1406 L481.5674,563.1406 L481.5674,571.4922 L471.5674,581.4922 L421.3965,581.4922 L421.3965,563.1406" fill="#EEEEEE" style="stroke:#000000;stroke-width:1.5;"/><rect fill="none" height="171.9453" style="stroke:#000000;stroke-width:1.5;" width="987.6167" x="421.3965" y="563.1406"/><text fill="#000000" font-family="sans-serif" font-size="13" font-weight="bold" lengthAdjust="spacing" textLength="15.1709" x="436.3965" y="577.6357">alt</text><text fill="#000000" font-family="sans-serif" font-size="11" font-weight="bold" lengthAdjust="spacing" textLength="84.9546" x="496.5674" y="576.5596">[stock suffisant]</text><g class="message" data-participant-1="Service" data-participant-2="ProduitRepo"><polygon fill="#181818" points="972.6479,599.8438,982.6479,603.8438,972.6479,607.8438,976.6479,603.8438" style="stroke:#181818;stroke-width:1;"/><line style="stroke:#181818;stroke-width:1;" x1="704.7075" x2="978.6479" y1="603.8438" y2="603.8438"/><text fill="#000000" font-family="sans-serif" font-size="13" lengthAdjust="spacing" textLength="174.8462" x="711.7075" y="598.9873">mise &#224; jour stock (quantite - q)</text></g><g class="message" data-participant-1="ProduitRepo" data-participant-2="PostgreSQL"><polygon fill="#181818" points="1345.8823,646.5469,1355.8823,650.5469,1345.8823,654.5469,1349.8823,650.5469" style="stroke:#181818;stroke-width:1;"/><line style="stroke:#181818;stroke-width:1;" x1="984.6479" x2="1351.8823" y1="650.5469" y2="650.5469"/><text fill="#000000" font-family="sans-serif" font-size="13" lengthAdjust="spacing" textLength="102.5908" x="991.6479" y="629.3389">UPDATE produits</text><text fill="#000000" font-family="sans-serif" font-size="13" lengthAdjust="spacing" textLength="100.8071" x="995.2598" y="645.6904">SET quantite = ...</text></g><g class="message" data-participant-1="Service" data-participant-2="Controller"><polygon fill="#181818" points="498.0342,676.8984,488.0342,680.8984,498.0342,684.8984,494.0342,680.8984" style="stroke:#181818;stroke-width:1;"/><line style="stroke:#181818;stroke-width:1;stroke-dasharray:2.0,2.0;" x1="492.0342" x2="703.7075" y1="680.8984" y2="680.8984"/><text fill="#000000" font-family="sans-serif" font-size="13" lengthAdjust="spacing" textLength="78.7808" x="504.0342" y="676.042">produit ajout&#233;</text></g><line style="stroke:#000000;stroke-width:1;stroke-dasharray:2.0,2.0;" x1="421.3965" x2="1409.0132" y1="689.8984" y2="689.8984"/><text fill="#000000" font-family="sans-serif" font-size="11" font-weight="bold" lengthAdjust="spacing" textLength="94.73" x="426.3965" y="701.3174">[stock insuffisant]</text><g class="message" data-participant-1="Service" data-participant-2="Controller"><polygon fill="#181818" points="498.0342,723.0859,488.0342,727.0859,498.0342,731.0859,494.0342,727.0859" style="stroke:#181818;stroke-width:1;"/><line style="stroke:#181818;stroke-width:1;stroke-dasharray:2.0,2.0;" x1="492.0342" x2="703.7075" y1="727.0859" y2="727.0859"/><text fill="#000000" font-family="sans-serif" font-size="13" lengthAdjust="spacing" textLength="68.6309" x="504.0342" y="722.2295">erreur stock</text></g><g class="message" data-participant-1="Controller" data-participant-2="Vue"><polygon fill="#181818" points="216.0527,760.4375,206.0527,764.4375,216.0527,768.4375,212.0527,764.4375" style="stroke:#181818;stroke-width:1;"/><line style="stroke:#181818;stroke-width:1;stroke-dasharray:2.0,2.0;" x1="210.0527" x2="486.0342" y1="764.4375" y2="764.4375"/><text fill="#000000" font-family="sans-serif" font-size="13" lengthAdjust="spacing" textLength="168.3398" x="222.0527" y="759.5811">mise &#224; jour panier (via AJAX)</text></g><rect fill="#EEEEEE" height="3" style="stroke:#EEEEEE;stroke-width:1;" width="1419.0132" x="0" y="793.6133"/><line style="stroke:#000000;stroke-width:1;" x1="0" x2="1419.0132" y1="793.6133" y2="793.6133"/><line style="stroke:#000000;stroke-width:1;" x1="0" x2="1419.0132" y1="796.6133" y2="796.6133"/><rect fill="#EEEEEE" height="24.3516" style="stroke:#000000;stroke-width:2;" width="147.6372" x="635.688" y="782.4375"/><text fill="#000000" font-family="sans-serif" font-size="13" font-weight="bold" lengthAdjust="spacing" textLength="130.0254" x="641.688" y="799.9326">&#201;tape 3 : Finalisation</text><g class="message" data-participant-1="Employe" data-participant-2="Vue"><polygon fill="#181818" points="193.0527,835.1406,203.0527,839.1406,193.0527,843.1406,197.0527,839.1406" style="stroke:#181818;stroke-width:1;"/><line style="stroke:#181818;stroke-width:1;" x1="35.2344" x2="199.0527" y1="839.1406" y2="839.1406"/><text fill="#000000" font-family="sans-serif" font-size="13" lengthAdjust="spacing" textLength="136.4175" x="42.2344" y="834.2842">clique "Valider la vente"</text></g><g class="message" data-participant-1="Vue" data-participant-2="Controller"><polygon fill="#181818" points="475.0342,865.4922,485.0342,869.4922,475.0342,873.4922,479.0342,869.4922" style="stroke:#181818;stroke-width:1;"/><line style="stroke:#181818;stroke-width:1;" x1="205.0527" x2="481.0342" y1="869.4922" y2="869.4922"/><text fill="#000000" font-family="sans-serif" font-size="13" lengthAdjust="spacing" textLength="204.4771" x="212.0527" y="864.6357">HTTP POST /ventes/valider {vente}</text></g><g class="message" data-participant-1="Controller" data-participant-2="Service"><polygon fill="#181818" points="692.7075,895.8438,702.7075,899.8438,692.7075,903.8438,696.7075,899.8438" style="stroke:#181818;stroke-width:1;"/><line style="stroke:#181818;stroke-width:1;" x1="487.0342" x2="698.7075" y1="899.8438" y2="899.8438"/><text fill="#000000" font-family="sans-serif" font-size="13" lengthAdjust="spacing" textLength="136.5698" x="494.0342" y="894.9873">enregistrerVente(vente)</text></g><g class="message" data-participant-1="Service" data-participant-2="EmployeRepo"><polygon fill="#181818" points="832.3174,926.1953,842.3174,930.1953,832.3174,934.1953,836.3174,930.1953" style="stroke:#181818;stroke-width:1;"/><line style="stroke:#181818;stroke-width:1;" x1="704.7075" x2="838.3174" y1="930.1953" y2="930.1953"/><text fill="#000000" font-family="sans-serif" font-size="13" lengthAdjust="spacing" textLength="115.6099" x="711.7075" y="925.3389">findById(employeId)</text></g><g class="message" data-participant-1="Service" data-participant-2="VenteRepo"><polygon fill="#181818" points="1104.0371,956.5469,1114.0371,960.5469,1104.0371,964.5469,1108.0371,960.5469" style="stroke:#181818;stroke-width:1;"/><line style="stroke:#181818;stroke-width:1;" x1="704.7075" x2="1110.0371" y1="960.5469" y2="960.5469"/><text fill="#000000" font-family="sans-serif" font-size="13" lengthAdjust="spacing" textLength="67.9199" x="711.7075" y="955.6904">save(vente)</text></g><g class="message" data-participant-1="VenteRepo" data-participant-2="PostgreSQL"><polygon fill="#181818" points="1345.8823,986.8984,1355.8823,990.8984,1345.8823,994.8984,1349.8823,990.8984" style="stroke:#181818;stroke-width:1;"/><line style="stroke:#181818;stroke-width:1;" x1="1116.0371" x2="1351.8823" y1="990.8984" y2="990.8984"/><text fill="#000000" font-family="sans-serif" font-size="13" lengthAdjust="spacing" textLength="217.8452" x="1123.0371" y="986.042">INSERT INTO ventes + vente_produit</text></g><g class="message" data-participant-1="PostgreSQL" data-participant-2="VenteRepo"><polygon fill="#181818" points="1127.0371,1017.25,1117.0371,1021.25,1127.0371,1025.25,1123.0371,1021.25" style="stroke:#181818;stroke-width:1;"/><line style="stroke:#181818;stroke-width:1;stroke-dasharray:2.0,2.0;" x1="1121.0371" x2="1356.8823" y1="1021.25" y2="1021.25"/><text fill="#000000" font-family="sans-serif" font-size="13" lengthAdjust="spacing" textLength="18.7827" x="1133.0371" y="1016.3936">OK</text></g><g class="message" data-participant-1="VenteRepo" data-participant-2="Service"><polygon fill="#181818" points="715.7075,1047.6016,705.7075,1051.6016,715.7075,1055.6016,711.7075,1051.6016" style="stroke:#181818;stroke-width:1;"/><line style="stroke:#181818;stroke-width:1;stroke-dasharray:2.0,2.0;" x1="709.7075" x2="1115.0371" y1="1051.6016" y2="1051.6016"/><text fill="#000000" font-family="sans-serif" font-size="13" lengthAdjust="spacing" textLength="70.8081" x="721.7075" y="1046.7451">confirmation</text></g><g class="message" data-participant-1="Service" data-participant-2="Controller"><polygon fill="#181818" points="498.0342,1077.9531,488.0342,1081.9531,498.0342,1085.9531,494.0342,1081.9531" style="stroke:#181818;stroke-width:1;"/><line style="stroke:#181818;stroke-width:1;stroke-dasharray:2.0,2.0;" x1="492.0342" x2="703.7075" y1="1081.9531" y2="1081.9531"/><text fill="#000000" font-family="sans-serif" font-size="13" lengthAdjust="spacing" textLength="92.4917" x="504.0342" y="1077.0967">vente confirm&#233;e</text></g><rect fill="#EEEEEE" height="3" style="stroke:#EEEEEE;stroke-width:1;" width="1419.0132" x="0" y="1111.1289"/><line style="stroke:#000000;stroke-width:1;" x1="0" x2="1419.0132" y1="1111.1289" y2="1111.1289"/><line style="stroke:#000000;stroke-width:1;" x1="0" x2="1419.0132" y1="1114.1289" y2="1114.1289"/><rect fill="#EEEEEE" height="24.3516" style="stroke:#000000;stroke-width:2;" width="76.8418" x="671.0857" y="1099.9531"/><text fill="#000000" font-family="sans-serif" font-size="13" font-weight="bold" lengthAdjust="spacing" textLength="59.23" x="677.0857" y="1117.4482">Affichage</text><g class="message" data-participant-1="Controller" data-participant-2="Vue"><polygon fill="#181818" points="216.0527,1152.6563,206.0527,1156.6563,216.0527,1160.6563,212.0527,1156.6563" style="stroke:#181818;stroke-width:1;"/><line style="stroke:#181818;stroke-width:1;stroke-dasharray:2.0,2.0;" x1="210.0527" x2="486.0342" y1="1156.6563" y2="1156.6563"/><text fill="#000000" font-family="sans-serif" font-size="13" lengthAdjust="spacing" textLength="160.3926" x="222.0527" y="1151.7998">redirection vers facture.html</text></g><g class="message" data-participant-1="Vue" data-participant-2="Employe"><polygon fill="#181818" points="46.2344,1183.0078,36.2344,1187.0078,46.2344,1191.0078,42.2344,1187.0078" style="stroke:#181818;stroke-width:1;"/><line style="stroke:#181818;stroke-width:1;stroke-dasharray:2.0,2.0;" x1="40.2344" x2="204.0527" y1="1187.0078" y2="1187.0078"/><text fill="#000000" font-family="sans-serif" font-size="13" lengthAdjust="spacing" textLength="134.418" x="52.2344" y="1182.1514">affiche re&#231;u de la vente</text></g><!--SRC=[XLVDSjn44BxhARfyYGssKy0jLGxbE1iIS6BZtJWSg28JgRMUe9_rp4WLLueghZm2DsvaEVC6UXEUXEwUaJHQUnrVB8rw-k_h_hhNQLSWF9tFuG1cbS6bjiwWWQP2QB5o2BlpbT7L4fxKjOCt-6ulIHx0qT4H7ASE6mFyDTKhLV1Xeb9N6vYLgwA-mLxof2vNjLMLiwm0TfL9hxJ3r3K6uUNb2KGczaJDIXcdMMlbOEULQlLIYJ6vlhYwAR50bU_jWB9msU1K_fBzFgahP-gYG2D2u-iTidCqhKvH1CFpL2h4Su4KXgO0RqGqEfsAdviwQxJR48zEx_1XGtWuIpBbr3jbaTJMrYqDpdyytKaIIcltXrChXA_W4M6HTfyig0P8fIRyA8V1FJXup2aY8SL26KBt5pmCOhlVpHPxXDBfVx__YIBVhQ5kMiAbKAHhYP0DEbSr8T1gswX2Mtelq1Bw4fG5swqBGbJNLTMjRPAmIR8yvfqSUBvOd0DPxCspOOHgX3Vhrcc1LNg5Ke06hvlk7wf1ljEYiMGIKjRO_LkGV994wW-6E0qwyfJkUok7LwuiGBMOXeh6YfGqndhpaJwAfbiJD2YXPH8AFqWoXhiMhQKm0HrPgZBvHdQVBrwUnh1ypR2yhnl7zqEQxeGbBVGrFUo8C0KoWBYp2KnwLMkg4ShDe92Sq5Kc2ZXZrmrLb7RT-Xu0pi_c0m8FLPR1nw3iHRRVAy3VsBOQ4P1Bd2fDQO22lD8PFUbSSmbpZOmEKK86FoZuKbM4Aqx1Ujmt6jUb3ppqn-uTtkpTXefK5jsdPIFO5FLIKb1sQyULcf5_efMJQKD79xr5CXxr8ZcGKmgVtBp8HjF1OBWARRSs52hdbsjZ3FO3qIMrYAeiko5jIcZtbPCaiHqsEtGmMPtFJcSd2_W2VgxWsSNPox6NwE3Dyzd537G6H_0j-V8wxWQ-ZjR1ibkJ6IfPzAr9JscpeXFfpS59AcYmLAyHOEJOwCd1hNo4Dry24XGLUblhq1UKPAKB6w6-4UW4tKXPb3Zhl4ukwn4Z7uSpYZ0laVrKXGFhwlHNi4sUQnuY2T3VLYnBeYPckFUioT_SxSk8Pjprdbn_07CzhLFsADDsLLVwNO7xdC3UAMObocqf1C3deZMEdbNU1_NhywV7Yza4u3bHsk3N4HmU7WR7AEMJ63pxJ1rLgnMJ1YCVrruoJSrcz_V9byuWYWZsna2flt9jIfJ-zlqJTVR0ImaMji-2hhRWicaSZS4UaGY2NWz75UdQ5pOBT-9YmOGeTmllJzBM3xXMApZ-_lYdEoXac1CoQuZvwyhoqA3HZ4KHYh54HmlHYCPDfKhcchBdGKKkfrUJIHcFWM_8iMUwuf6fU3hUEm8kIIpZxWtZPYUqVawyBotjWqffdogGabHCfeDN8bxdtcAawhC3GQJimpQuy57Uxny3ZddR2YdeAgzDAH7U6fX-s6wbVnpNJjbwTkNY_PJFSG_N18gGaudjBUGVxMqn-Vj4ucV8FywueaLWIHJCrJ46B3DXOd1OviYSfKLaZ302r_Q6qf35d5dGxaUQgG-iQbfSAiCJbNFhstuqiCayBrxDPnSB-hSuyreiVEaVVbaDnFmKcmz0MoOxGPE2MZtFQPUJvUSHlFNtteRHBd8SUfrgyhJ58D3hUtjhkCJXd_r0zauyp_X-o7nIgVdHX0CRJT0ej4dLf96EP2lh-CG5MMQF2R9KEhLmkfgea_LXexoeb2QB9__-6HgVMdhB8fffuvTYlxxcIdxpo4Pw5n-Hk5xwV3HE2sNm1x_wzliuzcgY1I1qzrZSl5Q9VnnbztSJzyNcMacJNP3jrSggF9tqSfdcScMLX9Fy3m00]--></g></svg>