<svg xmlns="http://www.w3.org/2000/svg" xmlns:xlink="http://www.w3.org/1999/xlink" contentStyleType="text/css" data-diagram-type="SEQUENCE" height="672px" preserveAspectRatio="none" style="width:1022px;height:672px;background:#FFFFFF;" version="1.1" viewBox="0 0 1022 672" width="1022px" zoomAndPan="magnify"><title>DSS - Rechercher un produit (Spring Boot Web)</title><defs/><g><text fill="#000000" font-family="sans-serif" font-size="14" font-weight="bold" lengthAdjust="spacing" textLength="318.1104" x="348.1331" y="29.5332">DSS - Rechercher un produit (Spring Boot Web)</text><g><title>Employe</title><rect fill="#000000" fill-opacity="0.00000" height="469.625" width="8" x="31.2344" y="121.2188"/><line style="stroke:#181818;stroke-width:0.5;stroke-dasharray:5.0,5.0;" x1="35" x2="35" y1="121.2188" y2="590.8438"/></g><g><title>Navigateur Web (Thymeleaf)</title><rect fill="#000000" fill-opacity="0.00000" height="469.625" width="8" x="270.585" y="121.2188"/><line style="stroke:#181818;stroke-width:0.5;stroke-dasharray:5.0,5.0;" x1="274.1094" x2="274.1094" y1="121.2188" y2="590.8438"/></g><g><title>ProduitController</title><rect fill="#000000" fill-opacity="0.00000" height="469.625" width="8" x="542.2705" y="121.2188"/><line style="stroke:#181818;stroke-width:0.5;stroke-dasharray:5.0,5.0;" x1="545.7466" x2="545.7466" y1="121.2188" y2="590.8438"/></g><g><title>ProduitRepository</title><rect fill="#000000" fill-opacity="0.00000" height="469.625" width="8" x="783.0557" y="121.2188"/><line style="stroke:#181818;stroke-width:0.5;stroke-dasharray:5.0,5.0;" x1="786.418" x2="786.418" y1="121.2188" y2="590.8438"/></g><g><title>PostgreSQL</title><rect fill="#000000" fill-opacity="0.00000" height="469.625" width="8" x="965.2456" y="121.2188"/><line style="stroke:#181818;stroke-width:0.5;stroke-dasharray:5.0,5.0;" x1="969.1147" x2="969.1147" y1="121.2188" y2="590.8438"/></g><g class="participant participant-head" data-participant="Employe"><text fill="#000000" font-family="sans-serif" font-size="14" lengthAdjust="spacing" textLength="54.4688" x="5" y="118.1426">Employe</text><ellipse cx="35.2344" cy="52.1094" fill="#E2E2F0" rx="8" ry="8" style="stroke:#181818;stroke-width:0.5;"/><path d="M35.2344,60.1094 L35.2344,87.1094 M22.2344,68.1094 L48.2344,68.1094 M35.2344,87.1094 L22.2344,102.1094 M35.2344,87.1094 L48.2344,102.1094" fill="none" style="stroke:#181818;stroke-width:0.5;"/></g><g class="participant participant-tail" data-participant="Employe"><text fill="#000000" font-family="sans-serif" font-size="14" lengthAdjust="spacing" textLength="54.4688" x="5" y="604.377">Employe</text><ellipse cx="35.2344" cy="615.9531" fill="#E2E2F0" rx="8" ry="8" style="stroke:#181818;stroke-width:0.5;"/><path d="M35.2344,623.9531 L35.2344,650.9531 M22.2344,631.9531 L48.2344,631.9531 M35.2344,650.9531 L22.2344,665.9531 M35.2344,650.9531 L48.2344,665.9531" fill="none" style="stroke:#181818;stroke-width:0.5;"/></g><g class="participant participant-head" data-participant="Vue"><rect fill="#E2E2F0" height="31.6094" rx="2.5" ry="2.5" style="stroke:#181818;stroke-width:0.5;" width="192.9512" x="178.1094" y="88.6094"/><text fill="#000000" font-family="sans-serif" font-size="14" lengthAdjust="spacing" textLength="178.9512" x="185.1094" y="110.1426">Navigateur Web (Thymeleaf)</text></g><g class="participant participant-tail" data-participant="Vue"><rect fill="#E2E2F0" height="31.6094" rx="2.5" ry="2.5" style="stroke:#181818;stroke-width:0.5;" width="192.9512" x="178.1094" y="589.8438"/><text fill="#000000" font-family="sans-serif" font-size="14" lengthAdjust="spacing" textLength="178.9512" x="185.1094" y="611.377">Navigateur Web (Thymeleaf)</text></g><g class="participant participant-head" data-participant="Controller"><rect fill="#E2E2F0" height="31.6094" rx="2.5" ry="2.5" style="stroke:#181818;stroke-width:0.5;" width="119.0479" x="486.7466" y="88.6094"/><text fill="#000000" font-family="sans-serif" font-size="14" lengthAdjust="spacing" textLength="105.0479" x="493.7466" y="110.1426">ProduitController</text></g><g class="participant participant-tail" data-participant="Controller"><rect fill="#E2E2F0" height="31.6094" rx="2.5" ry="2.5" style="stroke:#181818;stroke-width:0.5;" width="119.0479" x="486.7466" y="589.8438"/><text fill="#000000" font-family="sans-serif" font-size="14" lengthAdjust="spacing" textLength="105.0479" x="493.7466" y="611.377">ProduitController</text></g><g class="participant participant-head" data-participant="Repo"><rect fill="#E2E2F0" height="31.6094" rx="2.5" ry="2.5" style="stroke:#181818;stroke-width:0.5;" width="125.2754" x="724.418" y="88.6094"/><text fill="#000000" font-family="sans-serif" font-size="14" lengthAdjust="spacing" textLength="111.2754" x="731.418" y="110.1426">ProduitRepository</text></g><g class="participant participant-tail" data-participant="Repo"><rect fill="#E2E2F0" height="31.6094" rx="2.5" ry="2.5" style="stroke:#181818;stroke-width:0.5;" width="125.2754" x="724.418" y="589.8438"/><text fill="#000000" font-family="sans-serif" font-size="14" lengthAdjust="spacing" textLength="111.2754" x="731.418" y="611.377">ProduitRepository</text></g><g class="participant participant-head" data-participant="PostgreSQL"><text fill="#000000" font-family="sans-serif" font-size="14" lengthAdjust="spacing" textLength="76.2617" x="928.1147" y="118.1426">PostgreSQL</text><path d="M951.2456,67.6094 C951.2456,57.6094 969.2456,57.6094 969.2456,57.6094 C969.2456,57.6094 987.2456,57.6094 987.2456,67.6094 L987.2456,93.6094 C987.2456,103.6094 969.2456,103.6094 969.2456,103.6094 C969.2456,103.6094 951.2456,103.6094 951.2456,93.6094 L951.2456,67.6094" fill="#E2E2F0" style="stroke:#181818;stroke-width:1.5;"/><path d="M951.2456,67.6094 C951.2456,77.6094 969.2456,77.6094 969.2456,77.6094 C969.2456,77.6094 987.2456,77.6094 987.2456,67.6094" fill="none" style="stroke:#181818;stroke-width:1.5;"/></g><g class="participant participant-tail" data-participant="PostgreSQL"><text fill="#000000" font-family="sans-serif" font-size="14" lengthAdjust="spacing" textLength="76.2617" x="928.1147" y="604.377">PostgreSQL</text><path d="M951.2456,617.4531 C951.2456,607.4531 969.2456,607.4531 969.2456,607.4531 C969.2456,607.4531 987.2456,607.4531 987.2456,617.4531 L987.2456,643.4531 C987.2456,653.4531 969.2456,653.4531 969.2456,653.4531 C969.2456,653.4531 951.2456,653.4531 951.2456,643.4531 L951.2456,617.4531" fill="#E2E2F0" style="stroke:#181818;stroke-width:1.5;"/><path d="M951.2456,617.4531 C951.2456,627.4531 969.2456,627.4531 969.2456,627.4531 C969.2456,627.4531 987.2456,627.4531 987.2456,617.4531" fill="none" style="stroke:#181818;stroke-width:1.5;"/></g><rect fill="#EEEEEE" height="3" style="stroke:#EEEEEE;stroke-width:1;" width="1015.3765" x="0" y="152.3945"/><line style="stroke:#000000;stroke-width:1;" x1="0" x2="1015.3765" y1="152.3945" y2="152.3945"/><line style="stroke:#000000;stroke-width:1;" x1="0" x2="1015.3765" y1="155.3945" y2="155.3945"/><rect fill="#EEEEEE" height="24.3516" style="stroke:#000000;stroke-width:2;" width="260.3906" x="377.4929" y="141.2188"/><text fill="#000000" font-family="sans-serif" font-size="13" font-weight="bold" lengthAdjust="spacing" textLength="242.7788" x="383.4929" y="158.7139">&#201;tape 1 : Saisie du crit&#232;re de recherche</text><g class="message" data-participant-1="Employe" data-participant-2="Vue"><polygon fill="#181818" points="262.585,193.9219,272.585,197.9219,262.585,201.9219,266.585,197.9219" style="stroke:#181818;stroke-width:1;"/><line style="stroke:#181818;stroke-width:1;" x1="35.2344" x2="268.585" y1="197.9219" y2="197.9219"/><text fill="#000000" font-family="sans-serif" font-size="13" lengthAdjust="spacing" textLength="145.228" x="42.2344" y="193.0654">acc&#232;de &#224; /produits (GET)</text></g><g class="message" data-participant-1="Vue" data-participant-2="Controller"><polygon fill="#181818" points="534.2705,224.2734,544.2705,228.2734,534.2705,232.2734,538.2705,228.2734" style="stroke:#181818;stroke-width:1;"/><line style="stroke:#181818;stroke-width:1;" x1="274.585" x2="540.2705" y1="228.2734" y2="228.2734"/><text fill="#000000" font-family="sans-serif" font-size="13" lengthAdjust="spacing" textLength="175.9253" x="281.585" y="223.417">HTTP GET /produits?query=...</text></g><g class="message" data-participant-1="Controller" data-participant-2="Repo"><polygon fill="#181818" points="775.0557,254.625,785.0557,258.625,775.0557,262.625,779.0557,258.625" style="stroke:#181818;stroke-width:1;"/><line style="stroke:#181818;stroke-width:1;" x1="546.2705" x2="781.0557" y1="258.625" y2="258.625"/><text fill="#000000" font-family="sans-serif" font-size="13" lengthAdjust="spacing" textLength="216.7852" x="553.2705" y="253.7686">recherche personnalis&#233;e selon crit&#232;re</text></g><path d="M551,271.625 L551,362.625 L1001,362.625 L1001,281.625 L991,271.625 L551,271.625" fill="#FEFFDD" style="stroke:#181818;stroke-width:0.5;"/><path d="M991,271.625 L991,281.625 L1001,281.625 L991,271.625" fill="#FEFFDD" style="stroke:#181818;stroke-width:0.5;"/><text fill="#000000" font-family="sans-serif" font-size="13" lengthAdjust="spacing" textLength="64.3018" x="557" y="290.1201">Exemples :</text><text fill="#000000" font-family="sans-serif" font-size="13" lengthAdjust="spacing" textLength="73.6899" x="557" y="306.4717">- findById(id)</text><text fill="#000000" font-family="sans-serif" font-size="13" lengthAdjust="spacing" textLength="234.8315" x="557" y="322.8232">- findByNomContainingIgnoreCase(nom)</text><text fill="#000000" font-family="sans-serif" font-size="13" lengthAdjust="spacing" textLength="291.9414" x="557" y="339.1748">- findByCategorieContainingIgnoreCase(categorie)</text><text fill="#000000" font-family="sans-serif" font-size="13" lengthAdjust="spacing" textLength="429.2412" x="557" y="355.5264">- findByNomContainingIgnoreCaseAndCategorieContainingIgnoreCase(...)</text><g class="message" data-participant-1="Repo" data-participant-2="PostgreSQL"><polygon fill="#181818" points="957.2456,403.0859,967.2456,407.0859,957.2456,411.0859,961.2456,407.0859" style="stroke:#181818;stroke-width:1;"/><line style="stroke:#181818;stroke-width:1;" x1="787.0557" x2="963.2456" y1="407.0859" y2="407.0859"/><text fill="#000000" font-family="sans-serif" font-size="13" lengthAdjust="spacing" textLength="59.2427" x="794.0557" y="385.8779">SELECT *</text><text fill="#000000" font-family="sans-serif" font-size="13" lengthAdjust="spacing" textLength="154.5781" x="797.6675" y="402.2295">FROM produits WHERE ...</text></g><g class="message" data-participant-1="PostgreSQL" data-participant-2="Repo"><polygon fill="#181818" points="798.0557,433.4375,788.0557,437.4375,798.0557,441.4375,794.0557,437.4375" style="stroke:#181818;stroke-width:1;"/><line style="stroke:#181818;stroke-width:1;stroke-dasharray:2.0,2.0;" x1="792.0557" x2="968.2456" y1="437.4375" y2="437.4375"/><text fill="#000000" font-family="sans-serif" font-size="13" lengthAdjust="spacing" textLength="76.6035" x="804.0557" y="432.5811">List&lt;Produit&gt;</text></g><g class="message" data-participant-1="Repo" data-participant-2="Controller"><polygon fill="#181818" points="557.2705,463.7891,547.2705,467.7891,557.2705,471.7891,553.2705,467.7891" style="stroke:#181818;stroke-width:1;"/><line style="stroke:#181818;stroke-width:1;stroke-dasharray:2.0,2.0;" x1="551.2705" x2="786.0557" y1="467.7891" y2="467.7891"/><text fill="#000000" font-family="sans-serif" font-size="13" lengthAdjust="spacing" textLength="142.3525" x="563.2705" y="462.9326">r&#233;sultats correspondants</text></g><rect fill="#EEEEEE" height="3" style="stroke:#EEEEEE;stroke-width:1;" width="1015.3765" x="0" y="496.9648"/><line style="stroke:#000000;stroke-width:1;" x1="0" x2="1015.3765" y1="496.9648" y2="496.9648"/><line style="stroke:#000000;stroke-width:1;" x1="0" x2="1015.3765" y1="499.9648" y2="499.9648"/><rect fill="#EEEEEE" height="24.3516" style="stroke:#000000;stroke-width:2;" width="218.4517" x="398.4624" y="485.7891"/><text fill="#000000" font-family="sans-serif" font-size="13" font-weight="bold" lengthAdjust="spacing" textLength="200.8398" x="404.4624" y="503.2842">&#201;tape 2 : Affichage des r&#233;sultats</text><g class="message" data-participant-1="Controller" data-participant-2="Vue"><polygon fill="#181818" points="285.585,538.4922,275.585,542.4922,285.585,546.4922,281.585,542.4922" style="stroke:#181818;stroke-width:1;"/><line style="stroke:#181818;stroke-width:1;stroke-dasharray:2.0,2.0;" x1="279.585" x2="545.2705" y1="542.4922" y2="542.4922"/><text fill="#000000" font-family="sans-serif" font-size="13" lengthAdjust="spacing" textLength="247.6855" x="291.585" y="537.6357">retourne "home.html" avec liste de produits</text></g><g class="message" data-participant-1="Vue" data-participant-2="Employe"><polygon fill="#181818" points="46.2344,568.8438,36.2344,572.8438,46.2344,576.8438,42.2344,572.8438" style="stroke:#181818;stroke-width:1;"/><line style="stroke:#181818;stroke-width:1;stroke-dasharray:2.0,2.0;" x1="40.2344" x2="273.585" y1="572.8438" y2="572.8438"/><text fill="#000000" font-family="sans-serif" font-size="13" lengthAdjust="spacing" textLength="215.3506" x="52.2344" y="567.9873">affiche r&#233;sultats dans un tableau filtr&#233;</text></g><!--SRC=[XLNDSX914BxlKtHn4Io9fSUKn4eGJQemHg3CnSjajXV6cftPp0-6crSVmPitmRDli6_YazWpBBiBYNgWYcMxl-xlwwyR9vn4U3MTGXyco1TemWUyWiBer0i7tMbXX9h3cTOEhl6cboIFO30Om2btw0s4jrmKJ8OV4yQTDZ3A2wbNk8iSwhpGbYbd0q2CAvXn8gGf1vrBjXHp5j72- -viiSfH8ijw7M0MFdZSZx_QjZRKoXaj9PeOrZm-63r1wa5GTwiO7HwJb3bsmonIaBPkRd3wVjn94cgv_EfOWV0CZc7AX1K8gGTkX2lNXhuZc9rOH2Uf-4B_93HBEOppSarHvNTuMWbfeVjcDEkH9EFVNxvXp2WteFsI02M3WiqFWEcXpasnyCA2f5IX79gCSOJFU9CaeI3LRTXJ-VFPx0geMbFyvQr7ineS7Hs51XXLkVNbJuU0rW6gPUW5WH77W5F-ac4OR8ayMe4PbfThHurs8au7kY9z0ahdr3zmvihDN1k1qHjZt0CnMFxGv2FPAhf7CrOX4zRgsY3uNokqY1BjC4OYtA0LQAnMYabX0oEBKgiQchgxaC2A0YcVc27avSOjT1h7Qsg7a2AGQSMTeEHqAmeg7_gk14WIfOc84VE50vsrpJUw2yD52yT97pAXqhFLHKfiUlNZfSv3F1EA5kjYhhJ18RcmIsoRe24jHAJyO2ZVlVqlwgbA_mr5dkWbg588ZExFZoyqZSD1kb8i5yG-HzggOCIW7od2YUfEHXkKOwJ-Agmx11Ko8SauDadYg6XapQg5vHgDHyCPF8QF2bvFthrj77zzFfgCe38ixWtdhjnmxxO3h3qLy9Oq_62qkDDXgEG4SW4LRnNjDxOP2-jULFVXXEgqeWmwxOsAgqbUYgQrJNTS6o9LQ9K6dipVrHwhcHukfIatral73hDj96ZRxyd1ZZhOhgKzMClsVNfEkATP9lXYUptsKEWmjPUbFaurjSv2vtYqSBdiL5jO4QrvthS3-wI3z7A_57MOwxHSqrPXrRc8qYqzxhF5wc9HDxkhIUSoKi0s8iNQS7leGDC_WT_QgDnKvtFl1jRfhV3ggBGcHZhu9U4dVm00]--></g></svg>